<?xml version="1.0" encoding="utf-8"?>
<!-- Generator: Adobe Illustrator 22.0.1, SVG Export Plug-In . SVG Version: 6.00 Build 0)  -->
<svg version="1.1" xmlns="http://www.w3.org/2000/svg" xmlns:xlink="http://www.w3.org/1999/xlink" x="0px" y="0px"
	 viewBox="0 0 349.2 403.8" style="enable-background:new 0 0 349.2 403.8;" xml:space="preserve">
<style type="text/css">
	.st0{fill:url(#SVGID_1_);}
	.st1{opacity:0.5;fill:url(#SVGID_2_);}
	.st2{opacity:0.5;fill:url(#SVGID_3_);}
	.st3{fill:url(#SVGID_4_);}
	.st4{fill:#42E8E0;}
	.st5{fill:url(#SVGID_5_);}
	.st6{fill:url(#SVGID_6_);}
	.st7{fill:#2FD3C7;}
	.st8{fill:url(#SVGID_7_);}
	.st9{fill:url(#SVGID_8_);}
	.st10{fill:url(#SVGID_9_);}
	.st11{fill:url(#SVGID_10_);}
	.st12{fill:#393091;}
	.st13{fill:#BCBEFF;}
	.st14{fill:url(#SVGID_11_);}
	.st15{fill:url(#SVGID_12_);}
	.st16{fill:#453C9E;}
	.st17{fill:url(#SVGID_13_);}
	.st18{fill:url(#SVGID_14_);}
	.st19{fill:url(#SVGID_15_);}
	.st20{fill:url(#SVGID_16_);}
	.st21{fill:#FFFFFF;}
	.st22{fill:#251C72;}
	.st23{opacity:0.8;fill:url(#SVGID_17_);}
	.st24{fill:url(#SVGID_18_);}
	.st25{fill:url(#SVGID_19_);}
	.st26{fill:url(#SVGID_20_);}
	.st27{opacity:0.3;}
	.st28{fill:url(#SVGID_21_);}
	.st29{opacity:0.3;fill:#0F054C;}
	.st30{fill:url(#SVGID_22_);}
	.st31{fill:#0F054C;}
	.st32{opacity:0.4;fill:#42E8E0;}
	.st33{fill:url(#SVGID_23_);}
	.st34{fill:url(#SVGID_24_);}
	.st35{fill:url(#SVGID_25_);}
	.st36{fill:#5351AF;}
	.st37{fill:url(#SVGID_26_);}
	.st38{fill:url(#SVGID_27_);}
	.st39{fill:url(#SVGID_28_);}
	.st40{fill:url(#SVGID_29_);}
	.st41{fill:url(#SVGID_30_);}
	.st42{fill:#CCCCCC;}
	.st43{fill:url(#SVGID_31_);stroke:#000000;stroke-width:0.3;}
	.st44{fill:#01A0C6;}
	.st45{fill:#CCCCCC;stroke:#CCCCCC;stroke-width:2;}
	.st46{fill:#FFFFFF;stroke:#FFFFFF;stroke-width:2;}
	.st47{fill:#0390BF;}
	.st48{fill:#0C1393;}
</style>
<g id="Capa_2">
	<linearGradient id="SVGID_1_" gradientUnits="userSpaceOnUse" x1="174.6081" y1="-53.6853" x2="174.6081" y2="407.4054">
		<stop  offset="0" style="stop-color:#FFFFFF;stop-opacity:0.2"/>
		<stop  offset="0.1712" style="stop-color:#2B237C"/>
		<stop  offset="0.31" style="stop-color:#251C72"/>
		<stop  offset="0.8744" style="stop-color:#0F054C"/>
		<stop  offset="1" style="stop-color:#FFFFFF;stop-opacity:0.2"/>
	</linearGradient>
	<rect y="-97.2" class="st0" width="349.2" height="526"/>
</g>
<g id="_x2014_ÎÓÈ_x5F_1">
	<linearGradient id="SVGID_2_" gradientUnits="userSpaceOnUse" x1="184.5359" y1="349.6308" x2="184.5359" y2="233.2906">
		<stop  offset="0" style="stop-color:#42E8E0"/>
		<stop  offset="0.1055" style="stop-color:#37B6BF"/>
		<stop  offset="0.2197" style="stop-color:#2C87A1"/>
		<stop  offset="0.338" style="stop-color:#235F87"/>
		<stop  offset="0.4587" style="stop-color:#1C3F72"/>
		<stop  offset="0.5824" style="stop-color:#162561"/>
		<stop  offset="0.7105" style="stop-color:#121355"/>
		<stop  offset="0.8458" style="stop-color:#10084E"/>
		<stop  offset="1" style="stop-color:#0F054C"/>
	</linearGradient>
	<path class="st1" d="M217.6,233.3h-66.1l9.8,103.6h0c-0.1,3.3,2,6.6,6.3,9.1c8.5,4.9,22.2,4.9,30.7,0c4.2-2.4,6.4-5.7,6.4-8.9l0,0
		L217.6,233.3z"/>
	
		<radialGradient id="SVGID_3_" cx="184.5099" cy="8256.9424" r="52.1264" gradientTransform="matrix(1 0 0 0.5091 0 -3934.7898)" gradientUnits="userSpaceOnUse">
		<stop  offset="0" style="stop-color:#42E8E0"/>
		<stop  offset="0.1055" style="stop-color:#37B6BF"/>
		<stop  offset="0.2197" style="stop-color:#2C87A1"/>
		<stop  offset="0.338" style="stop-color:#235F87"/>
		<stop  offset="0.4587" style="stop-color:#1C3F72"/>
		<stop  offset="0.5824" style="stop-color:#162561"/>
		<stop  offset="0.7105" style="stop-color:#121355"/>
		<stop  offset="0.8458" style="stop-color:#10084E"/>
		<stop  offset="1" style="stop-color:#0F054C"/>
	</radialGradient>
	<ellipse class="st2" cx="184.5" cy="269.1" rx="46.4" ry="26.8"/>
	<radialGradient id="SVGID_4_" cx="183.7562" cy="277.7203" r="27.1571" gradientUnits="userSpaceOnUse">
		<stop  offset="0" style="stop-color:#42E8E0"/>
		<stop  offset="0.1055" style="stop-color:#37B6BF"/>
		<stop  offset="0.2197" style="stop-color:#2C87A1"/>
		<stop  offset="0.338" style="stop-color:#235F87"/>
		<stop  offset="0.4587" style="stop-color:#1C3F72"/>
		<stop  offset="0.5824" style="stop-color:#162561"/>
		<stop  offset="0.7105" style="stop-color:#121355"/>
		<stop  offset="0.8458" style="stop-color:#10084E"/>
		<stop  offset="1" style="stop-color:#0F054C"/>
	</radialGradient>
	<ellipse class="st3" cx="183.7" cy="266.5" rx="21.7" ry="12.5"/>
	<path class="st4" d="M168.3,260.3c8.5-4.9,22.2-4.9,30.7,0c3.7,2.1,5.7,4.8,6.2,7.5c0.7-3.6-1.4-7.4-6.2-10.2
		c-8.5-4.9-22.2-4.9-30.7,0c-4.8,2.8-6.9,6.6-6.2,10.2C162.6,265.1,164.7,262.4,168.3,260.3z"/>
	<g>
		<g>
			<g>
				
					<radialGradient id="SVGID_5_" cx="-3080.3113" cy="-2022.6702" r="15.4735" fx="-3080.2878" fy="-2021.6633" gradientTransform="matrix(-0.5036 0.7671 -1.2637 -0.8297 -3951.9827 950.7507)" gradientUnits="userSpaceOnUse">
					<stop  offset="0" style="stop-color:#C0BFF6"/>
					<stop  offset="1" style="stop-color:#393091"/>
				</radialGradient>
				<path class="st5" d="M142.3,261.8c-3.2-2.1-8.2-8.3-6.5-10.9c1.7-2.6,9.4-0.5,12.6,1.6c3.2,2.1,4.4,5.9,2.8,8.4
					C149.4,263.5,145.5,263.9,142.3,261.8z"/>
				
					<linearGradient id="SVGID_6_" gradientUnits="userSpaceOnUse" x1="-2755.0916" y1="1483.6163" x2="-2762.3352" y2="1493.2905" gradientTransform="matrix(-0.5036 0.7671 -0.9596 -0.6301 183.5907 3311.0549)">
					<stop  offset="0" style="stop-color:#42E8E0"/>
					<stop  offset="4.674554e-03" style="stop-color:#42E6DF"/>
					<stop  offset="0.1358" style="stop-color:#40B6CB"/>
					<stop  offset="0.2707" style="stop-color:#3E8DB9"/>
					<stop  offset="0.4074" style="stop-color:#3C6BAA"/>
					<stop  offset="0.5467" style="stop-color:#3B519F"/>
					<stop  offset="0.6893" style="stop-color:#3A3F97"/>
					<stop  offset="0.8375" style="stop-color:#393493"/>
					<stop  offset="1" style="stop-color:#393091"/>
				</linearGradient>
				<path class="st6" d="M142.3,261.8c-3.2-2.1-8.2-8.3-6.5-10.9c1.7-2.6,9.4-0.5,12.6,1.6c3.2,2.1,4.4,5.9,2.8,8.4
					C149.4,263.5,145.5,263.9,142.3,261.8z"/>
			</g>
			<path class="st7" d="M160.9,269.3c-0.3,0-0.6-0.1-0.8-0.3l-11.4-7.7c-0.7-0.5-0.9-1.4-0.4-2.1c0.5-0.7,1.4-0.9,2.1-0.4l11.4,7.7
				c0.7,0.5,0.9,1.4,0.4,2.1C161.9,269.1,161.4,269.3,160.9,269.3z"/>
			<path class="st7" d="M215.5,303.8c-0.6,0-1.2-0.4-1.4-0.9l-8.3-20.4c-0.3-0.8,0.1-1.6,0.8-2c0.8-0.3,1.6,0.1,2,0.8l8.3,20.4
				c0.3,0.8-0.1,1.6-0.8,2C215.8,303.8,215.7,303.8,215.5,303.8z"/>
			<g>
				<g>
					<g>
						
							<radialGradient id="SVGID_7_" cx="-198.5835" cy="-96.8317" r="46.214" gradientTransform="matrix(0.981 0.1942 -0.1942 0.981 378.7342 377.2575)" gradientUnits="userSpaceOnUse">
							<stop  offset="0" style="stop-color:#C0BFF6"/>
							<stop  offset="1" style="stop-color:#393091"/>
						</radialGradient>
						<circle class="st8" cx="164.4" cy="269.3" r="8"/>
					</g>
				</g>
				<g>
					<g>
						
							<linearGradient id="SVGID_8_" gradientUnits="userSpaceOnUse" x1="-619.2018" y1="508.2821" x2="-603.1887" y2="508.2821" gradientTransform="matrix(0.5372 -0.8434 0.8434 0.5372 64.0839 -519.2515)">
							<stop  offset="0" style="stop-color:#42E8E0"/>
							<stop  offset="4.674554e-03" style="stop-color:#42E6DF"/>
							<stop  offset="0.1358" style="stop-color:#40B6CB"/>
							<stop  offset="0.2707" style="stop-color:#3E8DB9"/>
							<stop  offset="0.4074" style="stop-color:#3C6BAA"/>
							<stop  offset="0.5467" style="stop-color:#3B519F"/>
							<stop  offset="0.6893" style="stop-color:#3A3F97"/>
							<stop  offset="0.8375" style="stop-color:#393493"/>
							<stop  offset="1" style="stop-color:#393091"/>
						</linearGradient>
						<circle class="st9" cx="164.4" cy="269.3" r="8"/>
					</g>
				</g>
				<g>
					<g>
						
							<radialGradient id="SVGID_9_" cx="788.454" cy="377.4746" r="45.6559" gradientTransform="matrix(0.7781 0 0 1.0592 -417.6095 -120.2201)" gradientUnits="userSpaceOnUse">
							<stop  offset="0" style="stop-color:#C0BFF6"/>
							<stop  offset="1" style="stop-color:#393091"/>
						</radialGradient>
						<path class="st10" d="M204.4,283.8c0,15.5-9.3,28.1-20.7,28.1c-11.4,0-20.7-12.6-20.7-28.1s9.3-20.2,20.7-20.2
							C195.1,263.6,204.4,268.3,204.4,283.8z"/>
					</g>
				</g>
				<g>
					<g>
						
							<linearGradient id="SVGID_10_" gradientUnits="userSpaceOnUse" x1="772.7792" y1="408.0233" x2="772.7792" y2="362.3863" gradientTransform="matrix(0.7781 0 0 1.0592 -417.6095 -120.2201)">
							<stop  offset="0" style="stop-color:#42E8E0"/>
							<stop  offset="4.674554e-03" style="stop-color:#42E6DF"/>
							<stop  offset="0.1358" style="stop-color:#40B6CB"/>
							<stop  offset="0.2707" style="stop-color:#3E8DB9"/>
							<stop  offset="0.4074" style="stop-color:#3C6BAA"/>
							<stop  offset="0.5467" style="stop-color:#3B519F"/>
							<stop  offset="0.6893" style="stop-color:#3A3F97"/>
							<stop  offset="0.8375" style="stop-color:#393493"/>
							<stop  offset="1" style="stop-color:#393091"/>
						</linearGradient>
						<path class="st11" d="M204.4,283.8c0,15.5-9.3,28.1-20.7,28.1c-11.4,0-20.7-12.6-20.7-28.1s9.3-20.2,20.7-20.2
							C195.1,263.6,204.4,268.3,204.4,283.8z"/>
					</g>
				</g>
				<ellipse class="st12" cx="183.7" cy="272" rx="14.1" ry="8.1"/>
				<path class="st4" d="M173.7,268.4c5.5-3.2,14.4-3.2,20,0c2.3,1.3,3.6,3,4,4.7c0.6-2.4-0.8-5-4-6.8c-5.5-3.2-14.4-3.2-20,0
					c-3.2,1.9-4.6,4.4-4,6.8C170.1,271.4,171.4,269.7,173.7,268.4z"/>
				<path class="st13" d="M177.5,241.9c0,3.8-2.7,8.4-6,10.3c-3.3,1.9-6,0.4-6-3.4c0-3.8,2.7-8.4,6-10.3
					C174.9,236.5,177.5,238.1,177.5,241.9z"/>
				<g>
					<g>
						<radialGradient id="SVGID_11_" cx="197.6671" cy="249.4105" r="35.6338" gradientUnits="userSpaceOnUse">
							<stop  offset="0" style="stop-color:#C0BFF6"/>
							<stop  offset="1" style="stop-color:#393091"/>
						</radialGradient>
						<circle class="st14" cx="184.5" cy="252.5" r="21.1"/>
					</g>
				</g>
				<g>
					<g>
						<linearGradient id="SVGID_12_" gradientUnits="userSpaceOnUse" x1="181.5754" y1="273.414" x2="187.4444" y2="231.6537">
							<stop  offset="0" style="stop-color:#42E8E0"/>
							<stop  offset="4.674554e-03" style="stop-color:#42E6DF"/>
							<stop  offset="0.1358" style="stop-color:#40B6CB"/>
							<stop  offset="0.2707" style="stop-color:#3E8DB9"/>
							<stop  offset="0.4074" style="stop-color:#3C6BAA"/>
							<stop  offset="0.5467" style="stop-color:#3B519F"/>
							<stop  offset="0.6893" style="stop-color:#3A3F97"/>
							<stop  offset="0.8375" style="stop-color:#393493"/>
							<stop  offset="1" style="stop-color:#393091"/>
						</linearGradient>
						<circle class="st15" cx="184.5" cy="252.5" r="21.1"/>
					</g>
				</g>
				<g>
					<path class="st12" d="M177.9,262.5c-0.5,4.1-3.7,5.4-7,2.9c-3.3-2.5-5.6-8-5-12.1c0.5-4.1,3.7-5.4,7-2.9
						C176.2,253,178.5,258.4,177.9,262.5z"/>
					<path class="st4" d="M175.2,258.9c-0.2,1.5-1.3,2-2.5,1.1s-2-2.9-1.8-4.4c0.2-1.5,1.3-2,2.5-1.1
						C174.6,255.5,175.4,257.4,175.2,258.9z"/>
					<path class="st16" d="M172.5,264.8c-3.3-2.5-5.6-8-5-12.1c0.2-1.7,0.9-2.9,1.8-3.6c-1.7,0.2-3.1,1.6-3.4,4.2
						c-0.5,4.1,1.7,9.6,5,12.1c2,1.5,3.9,1.7,5.2,0.7C175.1,266.2,173.8,265.8,172.5,264.8z"/>
					<path class="st4" d="M171.2,265.3c-3.3-2.5-5.6-8-5-12.1c0.2-1.9,1.1-3.2,2.2-3.8c-1.3,0.5-2.2,1.9-2.5,4
						c-0.5,4.1,1.7,9.6,5,12.1c1.8,1.4,3.5,1.6,4.8,0.9C174.5,266.9,172.9,266.6,171.2,265.3z"/>
				</g>
				<g>
					<g>
						
							<radialGradient id="SVGID_13_" cx="-183.1198" cy="-66.2227" r="16.7027" gradientTransform="matrix(0.981 0.1942 -0.1942 0.981 378.7342 377.2575)" gradientUnits="userSpaceOnUse">
							<stop  offset="0" style="stop-color:#C0BFF6"/>
							<stop  offset="1" style="stop-color:#393091"/>
						</radialGradient>
						<circle class="st17" cx="207.2" cy="282" r="8"/>
					</g>
				</g>
				<g>
					<g>
						
							<linearGradient id="SVGID_14_" gradientUnits="userSpaceOnUse" x1="-192.1981" y1="-54.3019" x2="-181.3189" y2="-66.0502" gradientTransform="matrix(0.981 0.1942 -0.1942 0.981 378.7342 377.2575)">
							<stop  offset="0" style="stop-color:#42E8E0"/>
							<stop  offset="4.674554e-03" style="stop-color:#42E6DF"/>
							<stop  offset="0.1358" style="stop-color:#40B6CB"/>
							<stop  offset="0.2707" style="stop-color:#3E8DB9"/>
							<stop  offset="0.4074" style="stop-color:#3C6BAA"/>
							<stop  offset="0.5467" style="stop-color:#3B519F"/>
							<stop  offset="0.6893" style="stop-color:#3A3F97"/>
							<stop  offset="0.8375" style="stop-color:#393493"/>
							<stop  offset="1" style="stop-color:#393091"/>
						</linearGradient>
						<circle class="st18" cx="207.2" cy="282" r="8"/>
					</g>
				</g>
			</g>
			
				<radialGradient id="SVGID_15_" cx="247.4349" cy="-1783.0443" r="15.4744" fx="247.4582" fy="-1782.0375" gradientTransform="matrix(0.9112 0.1087 -0.1791 1.501 -322.7463 2951.5791)" gradientUnits="userSpaceOnUse">
				<stop  offset="0" style="stop-color:#C0BFF6"/>
				<stop  offset="1" style="stop-color:#393091"/>
			</radialGradient>
			<path class="st19" d="M220,308.5c-0.5,3.8-3.8,11-6.9,10.6c-3-0.4-4.6-8.2-4.2-12c0.5-3.8,3.3-6.6,6.3-6.2
				C218.3,301.3,220.4,304.7,220,308.5z"/>
			
				<linearGradient id="SVGID_16_" gradientUnits="userSpaceOnUse" x1="82.2274" y1="368.7427" x2="94.3128" y2="368.7427" gradientTransform="matrix(0.9112 0.1087 -0.136 1.1399 183.9272 -119.891)">
				<stop  offset="0" style="stop-color:#42E8E0"/>
				<stop  offset="4.674554e-03" style="stop-color:#42E6DF"/>
				<stop  offset="0.1358" style="stop-color:#40B6CB"/>
				<stop  offset="0.2707" style="stop-color:#3E8DB9"/>
				<stop  offset="0.4074" style="stop-color:#3C6BAA"/>
				<stop  offset="0.5467" style="stop-color:#3B519F"/>
				<stop  offset="0.6893" style="stop-color:#3A3F97"/>
				<stop  offset="0.8375" style="stop-color:#393493"/>
				<stop  offset="1" style="stop-color:#393091"/>
			</linearGradient>
			<path class="st20" d="M220,308.5c-0.5,3.8-3.8,11-6.9,10.6c-3-0.4-4.6-8.2-4.2-12c0.5-3.8,3.3-6.6,6.3-6.2
				C218.3,301.3,220.4,304.7,220,308.5z"/>
		</g>
	</g>
	<g>
		<polygon class="st4" points="134.2,231.4 115.2,220.5 115.2,242.4 134.2,253.3 153.1,242.4 153.1,220.5 		"/>
		<polygon class="st4" points="134.2,253.3 115.2,242.4 115.2,220.5 134.2,231.4 		"/>
		<polygon class="st7" points="153.1,242.4 134.2,253.3 134.2,231.4 153.1,220.5 		"/>
		<polygon class="st4" points="134.2,231.4 115.2,220.5 134.2,209.6 153.1,220.5 		"/>
		<g>
			<path class="st21" d="M134.2,239C134.1,239,134.1,239,134.2,239l-1.4-0.8c-0.1,0-0.1-0.1-0.1-0.2c0-0.1,0.1-0.1,0.2-0.1l1.2,0.7
				l1.2-0.7c0.1,0,0.2,0,0.2,0.1c0,0.1,0,0.2-0.1,0.2L134.2,239C134.2,239,134.2,239,134.2,239z"/>
			<path class="st21" d="M130.2,236.7C130.2,236.7,130.2,236.7,130.2,236.7l-2.7-1.6c-0.1,0-0.1-0.1-0.1-0.2c0-0.1,0.1-0.1,0.2-0.1
				l2.7,1.5c0.1,0,0.1,0.1,0.1,0.2C130.3,236.7,130.3,236.7,130.2,236.7z M124.9,233.7C124.9,233.7,124.8,233.7,124.9,233.7
				l-2.7-1.6c-0.1,0-0.1-0.1-0.1-0.2c0-0.1,0.1-0.1,0.2-0.1l2.7,1.5c0.1,0,0.1,0.1,0.1,0.2C125,233.6,124.9,233.7,124.9,233.7z
				 M119.6,230.6C119.5,230.6,119.5,230.6,119.6,230.6l-2.7-1.6c-0.1,0-0.1-0.1-0.1-0.2c0-0.1,0.1-0.1,0.2-0.1l2.7,1.5
				c0.1,0,0.1,0.1,0.1,0.2C119.7,230.6,119.6,230.6,119.6,230.6z M114.3,227.5C114.2,227.5,114.2,227.5,114.3,227.5l-2.7-1.6
				c-0.1,0-0.1-0.1-0.1-0.2c0-0.1,0.1-0.1,0.2-0.1l2.7,1.5c0.1,0,0.1,0.1,0.1,0.2C114.4,227.5,114.3,227.5,114.3,227.5z
				 M108.9,224.5C108.9,224.5,108.9,224.5,108.9,224.5l-2.7-1.6c-0.1,0-0.1-0.1-0.1-0.2c0-0.1,0.1-0.1,0.2-0.1l2.7,1.5
				c0.1,0,0.1,0.1,0.1,0.2C109,224.4,109,224.5,108.9,224.5z"/>
			<path class="st21" d="M103.6,221.4C103.6,221.4,103.6,221.4,103.6,221.4l-1.4-0.8c0,0-0.1-0.1-0.1-0.1s0-0.1,0.1-0.1l1.3-0.8
				c0.1,0,0.2,0,0.2,0.1c0,0.1,0,0.2-0.1,0.2l-1.1,0.6l1.1,0.6c0.1,0,0.1,0.1,0.1,0.2C103.7,221.4,103.7,221.4,103.6,221.4z"/>
			<path class="st21" d="M106.3,218.4c0,0-0.1,0-0.1-0.1c0-0.1,0-0.2,0.1-0.2l2.7-1.5c0.1,0,0.2,0,0.2,0.1c0,0.1,0,0.2-0.1,0.2
				L106.3,218.4C106.3,218.3,106.3,218.4,106.3,218.4z M111.6,215.3c0,0-0.1,0-0.1-0.1c0-0.1,0-0.2,0.1-0.2l2.7-1.5
				c0.1,0,0.2,0,0.2,0.1c0,0.1,0,0.2-0.1,0.2L111.6,215.3C111.6,215.3,111.6,215.3,111.6,215.3z M116.9,212.2c0,0-0.1,0-0.1-0.1
				c0-0.1,0-0.2,0.1-0.2l2.7-1.5c0.1,0,0.2,0,0.2,0.1c0,0.1,0,0.2-0.1,0.2L116.9,212.2C117,212.2,116.9,212.2,116.9,212.2z
				 M122.2,209.1c0,0-0.1,0-0.1-0.1c0-0.1,0-0.2,0.1-0.2l2.7-1.5c0.1,0,0.2,0,0.2,0.1c0,0.1,0,0.2-0.1,0.2L122.2,209.1
				C122.3,209.1,122.3,209.1,122.2,209.1z M127.5,206.1c0,0-0.1,0-0.1-0.1c0-0.1,0-0.2,0.1-0.2l2.7-1.5c0.1,0,0.2,0,0.2,0.1
				c0,0.1,0,0.2-0.1,0.2L127.5,206.1C127.6,206.1,127.6,206.1,127.5,206.1z"/>
			<path class="st21" d="M135.5,203C135.4,203,135.4,203,135.5,203l-1.3-0.7l-1.2,0.7c-0.1,0-0.2,0-0.2-0.1c0-0.1,0-0.2,0.1-0.2
				l1.3-0.8c0,0,0.1,0,0.1,0l1.3,0.8c0.1,0,0.1,0.1,0.1,0.2C135.6,203,135.5,203,135.5,203z"/>
			<path class="st21" d="M162,218.4C162,218.4,162,218.3,162,218.4l-2.7-1.6c-0.1,0-0.1-0.1-0.1-0.2c0-0.1,0.1-0.1,0.2-0.1l2.7,1.5
				c0.1,0,0.1,0.1,0.1,0.2C162.1,218.3,162.1,218.4,162,218.4z M156.7,215.3C156.7,215.3,156.7,215.3,156.7,215.3l-2.7-1.6
				c-0.1,0-0.1-0.1-0.1-0.2c0-0.1,0.1-0.1,0.2-0.1l2.7,1.5c0.1,0,0.1,0.1,0.1,0.2C156.8,215.3,156.8,215.3,156.7,215.3z
				 M151.4,212.2C151.4,212.2,151.4,212.2,151.4,212.2l-2.7-1.6c-0.1,0-0.1-0.1-0.1-0.2c0-0.1,0.1-0.1,0.2-0.1l2.7,1.5
				c0.1,0,0.1,0.1,0.1,0.2C151.5,212.2,151.5,212.2,151.4,212.2z M146.1,209.1C146.1,209.1,146,209.1,146.1,209.1l-2.7-1.6
				c-0.1,0-0.1-0.1-0.1-0.2c0-0.1,0.1-0.1,0.2-0.1l2.7,1.5c0.1,0,0.1,0.1,0.1,0.2C146.2,209.1,146.1,209.1,146.1,209.1z
				 M140.8,206.1C140.8,206.1,140.7,206.1,140.8,206.1l-2.7-1.6c-0.1,0-0.1-0.1-0.1-0.2c0-0.1,0.1-0.1,0.2-0.1l2.7,1.5
				c0.1,0,0.1,0.1,0.1,0.2C140.9,206.1,140.8,206.1,140.8,206.1z"/>
			<path class="st21" d="M164.7,221.4c0,0-0.1,0-0.1-0.1c0-0.1,0-0.2,0.1-0.2l1.1-0.6l-1.1-0.6c-0.1,0-0.1-0.1-0.1-0.2
				c0-0.1,0.1-0.1,0.2-0.1l1.3,0.8c0,0,0.1,0.1,0.1,0.1s0,0.1-0.1,0.1L164.7,221.4C164.8,221.4,164.7,221.4,164.7,221.4z"/>
			<path class="st21" d="M138.1,236.7c0,0-0.1,0-0.1-0.1c0-0.1,0-0.2,0.1-0.2l2.7-1.5c0.1,0,0.2,0,0.2,0.1c0,0.1,0,0.2-0.1,0.2
				L138.1,236.7C138.2,236.7,138.1,236.7,138.1,236.7z M143.4,233.7c0,0-0.1,0-0.1-0.1c0-0.1,0-0.2,0.1-0.2l2.7-1.5
				c0.1,0,0.2,0,0.2,0.1c0,0.1,0,0.2-0.1,0.2L143.4,233.7C143.5,233.7,143.5,233.7,143.4,233.7z M148.8,230.6c0,0-0.1,0-0.1-0.1
				c0-0.1,0-0.2,0.1-0.2l2.7-1.5c0.1,0,0.2,0,0.2,0.1c0,0.1,0,0.2-0.1,0.2L148.8,230.6C148.8,230.6,148.8,230.6,148.8,230.6z
				 M154.1,227.5c0,0-0.1,0-0.1-0.1c0-0.1,0-0.2,0.1-0.2l2.7-1.5c0.1,0,0.2,0,0.2,0.1c0,0.1,0,0.2-0.1,0.2L154.1,227.5
				C154.1,227.5,154.1,227.5,154.1,227.5z M159.4,224.5c0,0-0.1,0-0.1-0.1c0-0.1,0-0.2,0.1-0.2l2.7-1.5c0.1,0,0.2,0,0.2,0.1
				c0,0.1,0,0.2-0.1,0.2L159.4,224.5C159.4,224.5,159.4,224.5,159.4,224.5z"/>
		</g>
		<polygon class="st21" points="134.2,231.4 115.2,220.5 115.2,221.4 134.2,232.4 153.1,221.4 153.1,220.5 		"/>
	</g>
	<polygon class="st22" points="201.9,252 194.2,256.4 194.2,247.5 201.9,243.1 	"/>
	
		<radialGradient id="SVGID_17_" cx="196.6324" cy="-1593.7246" r="14.0606" gradientTransform="matrix(1 0 0 1.2847 0 2282.1553)" gradientUnits="userSpaceOnUse">
		<stop  offset="0" style="stop-color:#2B237C"/>
		<stop  offset="0.31" style="stop-color:#251C72"/>
		<stop  offset="1" style="stop-color:#0F054C"/>
	</radialGradient>
	<polygon class="st23" points="200.7,243.8 200.7,251.3 194.2,255.1 194.2,256.4 201.9,252 201.9,243.1 	"/>
	<g>
		<polygon class="st4" points="195.7,250 195,250.3 195,249.6 195.7,249.2 		"/>
		<polygon class="st4" points="197.1,249.1 196.5,249.5 196.5,248.7 197.1,248.3 		"/>
		<polygon class="st4" points="198.6,248.3 197.9,248.7 197.9,247.9 198.6,247.5 		"/>
		<polygon class="st4" points="198.6,250.3 197.9,250.7 197.9,250 198.6,249.6 		"/>
		<polygon class="st4" points="197.7,251.9 197,252.3 197,251.5 197.7,251.1 		"/>
		<polygon class="st4" points="200.1,249.5 199.4,249.9 199.4,249.1 200.1,248.7 		"/>
	</g>
	<path class="st21" d="M203.9,251.9C203.9,251.9,203.9,251.9,203.9,251.9l-0.7-0.4c-0.1,0-0.1-0.1,0-0.2c0-0.1,0.1-0.1,0.2,0
		l0.6,0.4l1.9-1c0.1,0,0.2,0,0.2,0.1c0,0.1,0,0.2-0.1,0.2L203.9,251.9C204,251.9,204,251.9,203.9,251.9z M200.8,249.9
		C200.7,249.9,200.7,249.9,200.8,249.9l-2.6-1.7c-0.1,0-0.1-0.1,0-0.2c0-0.1,0.1-0.1,0.2,0l2.5,1.6c0.1,0,0.1,0.1,0,0.2
		C200.9,249.8,200.8,249.9,200.8,249.9z M208.5,249.4c-0.1,0-0.1,0-0.1-0.1c0-0.1,0-0.2,0.1-0.2l2.6-1.4c0.1,0,0.2,0,0.2,0.1
		c0,0.1,0,0.2-0.1,0.2L208.5,249.4C208.6,249.4,208.5,249.4,208.5,249.4z M213.8,246.5c-0.1,0-0.1,0-0.1-0.1c0-0.1,0-0.2,0.1-0.2
		l2.6-1.4c0.1,0,0.2,0,0.2,0.1c0,0.1,0,0.2-0.1,0.2L213.8,246.5C213.8,246.5,213.8,246.5,213.8,246.5z M219,243.6
		c-0.1,0-0.1,0-0.1-0.1c0-0.1,0-0.2,0.1-0.2l2.6-1.4c0.1,0,0.2,0,0.2,0.1c0,0.1,0,0.2-0.1,0.2L219,243.6
		C219.1,243.6,219.1,243.6,219,243.6z M224.3,240.7c-0.1,0-0.1,0-0.1-0.1c0-0.1,0-0.2,0.1-0.2l1-0.6l-1.2-0.6
		c-0.1,0-0.1-0.1-0.1-0.2c0-0.1,0.1-0.1,0.2-0.1l1.4,0.7c0,0,0.1,0.1,0.1,0.1c0,0.1,0,0.1-0.1,0.1L224.3,240.7
		C224.3,240.7,224.3,240.7,224.3,240.7z M221.5,237.9C221.5,237.9,221.4,237.9,221.5,237.9l-2.7-1.4c-0.1,0-0.1-0.1-0.1-0.2
		c0-0.1,0.1-0.1,0.2-0.1l2.6,1.4c0.1,0,0.1,0.1,0.1,0.2C221.6,237.8,221.5,237.9,221.5,237.9z M216.2,235
		C216.2,235,216.1,235,216.2,235l-2.7-1.4c-0.1,0-0.1-0.1-0.1-0.2c0-0.1,0.1-0.1,0.2-0.1l2.6,1.4c0.1,0,0.1,0.1,0.1,0.2
		C216.3,235,216.2,235,216.2,235z M210.9,232.2C210.9,232.2,210.8,232.2,210.9,232.2l-2.7-1.4c-0.1,0-0.1-0.1-0.1-0.2
		c0-0.1,0.1-0.1,0.2-0.1l2.6,1.4c0.1,0,0.1,0.1,0.1,0.2C211,232.2,210.9,232.2,210.9,232.2z M205.6,229.4
		C205.6,229.4,205.5,229.4,205.6,229.4l-2.7-1.4c-0.1,0-0.1-0.1-0.1-0.2c0-0.1,0.1-0.1,0.2-0.1l2.6,1.4c0.1,0,0.1,0.1,0.1,0.2
		C205.7,229.4,205.6,229.4,205.6,229.4z M200.3,226.6C200.3,226.6,200.2,226.6,200.3,226.6l-2.7-1.4c-0.1,0-0.1-0.1-0.1-0.2
		c0-0.1,0.1-0.1,0.2-0.1l2.6,1.4c0.1,0,0.1,0.1,0.1,0.2C200.4,226.5,200.3,226.6,200.3,226.6z M195,223.7
		C195,223.7,194.9,223.7,195,223.7l-2.7-1.4c-0.1,0-0.1-0.1-0.1-0.2c0-0.1,0.1-0.1,0.2-0.1l2.6,1.4c0.1,0,0.1,0.1,0.1,0.2
		C195.1,223.7,195,223.7,195,223.7z M189.7,220.9C189.7,220.9,189.6,220.9,189.7,220.9l-2.7-1.4c-0.1,0-0.1-0.1-0.1-0.2
		c0-0.1,0.1-0.1,0.2-0.1l2.6,1.4c0.1,0,0.1,0.1,0.1,0.2C189.8,220.9,189.7,220.9,189.7,220.9z M184.4,218.1
		C184.4,218.1,184.3,218.1,184.4,218.1l-2.7-1.4c-0.1,0-0.1-0.1-0.1-0.2c0-0.1,0.1-0.1,0.2-0.1l2.6,1.4c0.1,0,0.1,0.1,0.1,0.2
		C184.5,218.1,184.4,218.1,184.4,218.1z M179.1,215.3C179.1,215.3,179,215.3,179.1,215.3l-2.7-1.4c-0.1,0-0.1-0.1-0.1-0.2
		c0-0.1,0.1-0.1,0.2-0.1l2.6,1.4c0.1,0,0.1,0.1,0.1,0.2C179.2,215.3,179.1,215.3,179.1,215.3z M173.8,212.5
		C173.8,212.5,173.8,212.5,173.8,212.5l-2.7-1.4c-0.1,0-0.1-0.1-0.1-0.2c0-0.1,0.1-0.1,0.2-0.1l2.6,1.4c0.1,0,0.1,0.1,0.1,0.2
		C173.9,212.4,173.8,212.5,173.8,212.5z M150.2,211.2c0,0-0.1,0-0.1-0.1c0-0.1,0-0.2,0.1-0.2l2.6-1.5c0.1,0,0.2,0,0.2,0.1
		c0,0.1,0,0.2-0.1,0.2L150.2,211.2C150.2,211.2,150.2,211.2,150.2,211.2z M168.5,209.6C168.5,209.6,168.5,209.6,168.5,209.6
		l-2.7-1.4c-0.1,0-0.1-0.1-0.1-0.2c0-0.1,0.1-0.1,0.2-0.1l2.6,1.4c0.1,0,0.1,0.1,0.1,0.2C168.6,209.6,168.6,209.6,168.5,209.6z
		 M155.4,208.2c0,0-0.1,0-0.1-0.1c0-0.1,0-0.2,0.1-0.2l2.6-1.5c0.1,0,0.2,0,0.2,0.1c0,0.1,0,0.2-0.1,0.2L155.4,208.2
		C155.4,208.1,155.4,208.2,155.4,208.2z M163.2,206.8C163.2,206.8,163.2,206.8,163.2,206.8l-2.7-1.4c-0.1,0-0.1-0.1-0.1-0.2
		c0-0.1,0.1-0.1,0.2-0.1l2.6,1.4c0.1,0,0.1,0.1,0.1,0.2C163.3,206.8,163.3,206.8,163.2,206.8z"/>
	<g>
		<g>
			<linearGradient id="SVGID_18_" gradientUnits="userSpaceOnUse" x1="207.6901" y1="253.6194" x2="187.6976" y2="259.6989">
				<stop  offset="0" style="stop-color:#BCBEFF"/>
				<stop  offset="0.151" style="stop-color:#A3A7F5"/>
				<stop  offset="0.3866" style="stop-color:#8289E8"/>
				<stop  offset="0.6124" style="stop-color:#6A73DF"/>
				<stop  offset="0.8221" style="stop-color:#5C66D9"/>
				<stop  offset="1" style="stop-color:#5761D7"/>
			</linearGradient>
			<polygon class="st24" points="208,249.6 208.9,248.2 208,247.7 200.4,252.1 200.4,260.9 201.2,261.4 202.1,260 208,256.5 			"/>
			<linearGradient id="SVGID_19_" gradientUnits="userSpaceOnUse" x1="204.2296" y1="254.888" x2="176.8342" y2="258.1518">
				<stop  offset="0" style="stop-color:#BCBEFF"/>
				<stop  offset="0.151" style="stop-color:#A3A7F5"/>
				<stop  offset="0.3866" style="stop-color:#8289E8"/>
				<stop  offset="0.6124" style="stop-color:#6A73DF"/>
				<stop  offset="0.8221" style="stop-color:#5C66D9"/>
				<stop  offset="1" style="stop-color:#5761D7"/>
			</linearGradient>
			<polygon class="st25" points="208.9,257 201.2,261.4 201.2,252.6 208.9,248.2 			"/>
		</g>
		<linearGradient id="SVGID_20_" gradientUnits="userSpaceOnUse" x1="200.1205" y1="262.9418" x2="214.3948" y2="239.3322">
			<stop  offset="0" style="stop-color:#42E8E0"/>
			<stop  offset="0.1188" style="stop-color:#42E2DE"/>
			<stop  offset="0.2699" style="stop-color:#41D3D7"/>
			<stop  offset="0.4386" style="stop-color:#40B9CC"/>
			<stop  offset="0.6201" style="stop-color:#3E94BC"/>
			<stop  offset="0.8101" style="stop-color:#3C66A8"/>
			<stop  offset="1" style="stop-color:#393091"/>
		</linearGradient>
		<polygon class="st26" points="208.9,257 201.2,261.4 201.2,252.6 208.9,248.2 		"/>
	</g>
	<g>
		<g class="st27">
			<linearGradient id="SVGID_21_" gradientUnits="userSpaceOnUse" x1="100.616" y1="333.0135" x2="132.9352" y2="351.6731">
				<stop  offset="0" style="stop-color:#BCBEFF"/>
				<stop  offset="0.2271" style="stop-color:#AAADF8"/>
				<stop  offset="0.6802" style="stop-color:#7C83E5"/>
				<stop  offset="1" style="stop-color:#5761D7"/>
			</linearGradient>
			<path class="st28" d="M137.3,343.6v-3.5l-1-0.5c-0.3,1.7-2.2,2.8-3.9,3l-11.2,6.6l-4.9,1.8l-15.6-8.1l0.4-0.2
				c-1.3-0.6-2.1-2.1-2.8-3.4l-1.1,0.6l-0.6,0.2v3.6h0c0,0.7,0.5,1.4,1.4,1.9l15.7,9c1.8,1.1,4.8,1.1,6.7,0l15.7-9
				C136.8,345.1,137.3,344.4,137.3,343.6C137.3,343.7,137.3,343.6,137.3,343.6L137.3,343.6z"/>
			<path class="st29" d="M132.4,342.5l-11.2,6.6l-4.3,1.5v4.8c1.2,0,2.4-0.3,3.3-0.8l15.7-9c0.9-0.5,1.4-1.2,1.4-1.9
				c0,0,0-0.1,0-0.1l0,0v-3.5l-0.9-0.5h-0.1C136,341.2,134.1,342.3,132.4,342.5z"/>
			<g>
				<linearGradient id="SVGID_22_" gradientUnits="userSpaceOnUse" x1="96.5635" y1="340.0668" x2="137.2979" y2="340.0668">
					<stop  offset="0" style="stop-color:#E9E9FD"/>
					<stop  offset="0.3601" style="stop-color:#D3D2F9"/>
					<stop  offset="0.7062" style="stop-color:#C5C4F7"/>
					<stop  offset="1" style="stop-color:#C0BFF6"/>
				</linearGradient>
				<path class="st30" d="M113.6,351l-15.7-9c-1.8-1.1-1.8-2.8,0-3.8l15.7-9c1.8-1.1,4.8-1.1,6.7,0l15.7,9c1.8,1.1,1.8,2.8,0,3.8
					l-15.7,9C118.4,352.1,115.4,352.1,113.6,351z"/>
			</g>
			<g class="st27">
				<path class="st31" d="M113.6,351l-15.7-9c-1.8-1.1-1.8-2.8,0-3.8l15.7-9c1.8-1.1,4.8-1.1,6.7,0l15.7,9c1.8,1.1,1.8,2.8,0,3.8
					l-15.7,9C118.4,352.1,115.4,352.1,113.6,351z"/>
			</g>
		</g>
		<g>
			<g>
				<path class="st4" d="M116.9,339.6c-1.1,0-2.1-0.2-3-0.7l-15.7-9c-0.8-0.5-1.3-1.1-1.3-1.8c0-0.7,0.4-1.3,1.3-1.8l15.7-9
					c1.6-0.9,4.3-0.9,5.9,0l15.7,9c0.8,0.5,1.3,1.1,1.3,1.8s-0.4,1.3-1.3,1.8l-15.7,9C119.1,339.4,118,339.6,116.9,339.6z
					 M114.1,338.7c1.6,0.9,4.1,0.9,5.6,0l15.7-9c0.7-0.4,1.1-1,1.1-1.5s-0.4-1.1-1.1-1.5l-15.7-9c-1.6-0.9-4.1-0.9-5.6,0l-15.7,9
					c-0.7,0.4-1.1,1-1.1,1.5c0,0.6,0.4,1.1,1.1,1.5L114.1,338.7z"/>
				<g>
					<path class="st32" d="M137.3,324.6v-5.4l-1-0.5c-0.3,1.7-2.2,2.8-3.9,3l-11.2,6.6l-4.9,1.8l-15.6-8.1l0.4-0.2
						c-1.3-0.6-2.1-2.1-2.8-3.4l-1.1,0.6l-0.6,0.2v5.5h0c0,0.7,0.5,1.4,1.4,1.9l15.7,9c1.8,1.1,4.8,1.1,6.7,0l15.7-9
						C136.8,326.1,137.3,325.4,137.3,324.6C137.3,324.7,137.3,324.7,137.3,324.6L137.3,324.6z"/>
					<g>
						<g>
							<linearGradient id="SVGID_23_" gradientUnits="userSpaceOnUse" x1="100.616" y1="309.2551" x2="132.9352" y2="327.9146">
								<stop  offset="0" style="stop-color:#BCBEFF"/>
								<stop  offset="0.2271" style="stop-color:#AAADF8"/>
								<stop  offset="0.6802" style="stop-color:#7C83E5"/>
								<stop  offset="1" style="stop-color:#5761D7"/>
							</linearGradient>
							<path class="st33" d="M137.3,319.9v-3.5l-1-0.5c-0.3,1.7-2.2,2.8-3.9,3l-11.2,6.6l-4.9,1.8l-15.6-8.1l0.4-0.2
								c-1.3-0.6-2.1-2.1-2.8-3.4l-1.1,0.6l-0.6,0.2v3.6l0,0c0,0.7,0.5,1.4,1.4,1.9l15.7,9c1.8,1.1,4.8,1.1,6.7,0l15.7-9
								C136.8,321.3,137.3,320.6,137.3,319.9C137.3,319.9,137.3,319.9,137.3,319.9L137.3,319.9z"/>
							<path class="st29" d="M132.4,318.8l-11.2,6.6l-4.3,1.5v4.8c1.2,0,2.4-0.3,3.3-0.8l15.7-9c0.9-0.5,1.4-1.2,1.4-1.9
								c0,0,0-0.1,0-0.1l0,0v-3.5l-0.9-0.5h-0.1C136,317.5,134.1,318.5,132.4,318.8z"/>
							<linearGradient id="SVGID_24_" gradientUnits="userSpaceOnUse" x1="143.775" y1="325.1111" x2="106.8845" y2="322.1577">
								<stop  offset="0" style="stop-color:#42E8E0"/>
								<stop  offset="4.674554e-03" style="stop-color:#42E6DF"/>
								<stop  offset="0.1358" style="stop-color:#40B6CB"/>
								<stop  offset="0.2707" style="stop-color:#3E8DB9"/>
								<stop  offset="0.4074" style="stop-color:#3C6BAA"/>
								<stop  offset="0.5467" style="stop-color:#3B519F"/>
								<stop  offset="0.6893" style="stop-color:#3A3F97"/>
								<stop  offset="0.8375" style="stop-color:#393493"/>
								<stop  offset="1" style="stop-color:#393091"/>
							</linearGradient>
							<path class="st34" d="M132.4,318.8l-11.2,6.6l-4.3,1.5v4.8c1.2,0,2.4-0.3,3.3-0.8l15.7-9c0.9-0.5,1.4-1.2,1.4-1.9
								c0,0,0-0.1,0-0.1l0,0v-3.5l-0.9-0.5h-0.1C136,317.5,134.1,318.5,132.4,318.8z"/>
							<g>
								<linearGradient id="SVGID_25_" gradientUnits="userSpaceOnUse" x1="96.5635" y1="316.3083" x2="137.2979" y2="316.3083">
									<stop  offset="0" style="stop-color:#E9E9FD"/>
									<stop  offset="0.3601" style="stop-color:#D3D2F9"/>
									<stop  offset="0.7062" style="stop-color:#C5C4F7"/>
									<stop  offset="1" style="stop-color:#C0BFF6"/>
								</linearGradient>
								<path class="st35" d="M113.6,327.3l-15.7-9c-1.8-1.1-1.8-2.8,0-3.8l15.7-9c1.8-1.1,4.8-1.1,6.7,0l15.7,9
									c1.8,1.1,1.8,2.8,0,3.8l-15.7,9C118.4,328.3,115.4,328.3,113.6,327.3z"/>
							</g>
							<g>
								<path class="st36" d="M116.9,325.6c-1,0-1.9-0.2-2.7-0.6l-12.2-7.1c-0.7-0.4-1.1-1-1.1-1.6c0-0.6,0.4-1.2,1.1-1.6l12.2-7.1
									c1.5-0.8,3.9-0.8,5.3,0l12.2,7.1c0.7,0.4,1.1,1,1.1,1.6c0,0.6-0.4,1.2-1.1,1.6l-12.2,7.1
									C118.9,325.4,117.9,325.6,116.9,325.6z M116.9,307.3c-0.9,0-1.8,0.2-2.5,0.6l-12.2,7.1c-0.6,0.4-1,0.9-1,1.4
									c0,0.5,0.4,1,1,1.4l12.2,7.1c1.4,0.8,3.7,0.8,5.1,0l12.2-7.1c0.6-0.4,1-0.9,1-1.4c0-0.5-0.4-1-1-1.4l-12.2-7.1
									C118.8,307.5,117.8,307.3,116.9,307.3z"/>
							</g>
							<g>
								<path class="st21" d="M135.9,318.2l-15.7,9c-1.8,1.1-4.8,1.1-6.7,0l-15.7-9c-0.8-0.5-1.3-1.1-1.4-1.7
									c-0.1,0.8,0.3,1.6,1.4,2.1l15.7,9c1.8,1.1,4.8,1.1,6.7,0l15.7-9c1-0.6,1.5-1.4,1.4-2.1C137.2,317.1,136.7,317.8,135.9,318.2
									z"/>
							</g>
						</g>
					</g>
				</g>
			</g>
		</g>
	</g>
	<g>
		<g class="st27">
			<linearGradient id="SVGID_26_" gradientUnits="userSpaceOnUse" x1="229.7877" y1="261.7549" x2="262.1069" y2="280.4144">
				<stop  offset="0" style="stop-color:#BCBEFF"/>
				<stop  offset="0.2271" style="stop-color:#AAADF8"/>
				<stop  offset="0.6802" style="stop-color:#7C83E5"/>
				<stop  offset="1" style="stop-color:#5761D7"/>
			</linearGradient>
			<path class="st37" d="M266.5,272.4v-3.5l-1-0.5c-0.3,1.7-2.2,2.8-3.9,3l-11.2,6.6l-4.9,1.8l-15.6-8.1l0.4-0.2
				c-1.3-0.6-2.1-2.1-2.8-3.4l-1.1,0.6l-0.6,0.2v3.6l0,0c0,0.7,0.5,1.4,1.4,1.9l15.7,9c1.8,1.1,4.8,1.1,6.7,0l15.7-9
				C266,273.8,266.5,273.1,266.5,272.4C266.5,272.4,266.5,272.4,266.5,272.4L266.5,272.4z"/>
			<path class="st29" d="M261.6,271.3l-11.2,6.6l-4.3,1.5v4.8c1.2,0,2.4-0.3,3.3-0.8l15.7-9c0.9-0.5,1.4-1.2,1.4-1.9
				c0,0,0-0.1,0-0.1l0,0v-3.5l-0.9-0.5h-0.1C265.2,270,263.2,271,261.6,271.3z"/>
			<g>
				<linearGradient id="SVGID_27_" gradientUnits="userSpaceOnUse" x1="225.7351" y1="268.8081" x2="266.4696" y2="268.8081">
					<stop  offset="0" style="stop-color:#E9E9FD"/>
					<stop  offset="0.3601" style="stop-color:#D3D2F9"/>
					<stop  offset="0.7062" style="stop-color:#C5C4F7"/>
					<stop  offset="1" style="stop-color:#C0BFF6"/>
				</linearGradient>
				<path class="st38" d="M242.8,279.8l-15.7-9c-1.8-1.1-1.8-2.8,0-3.8l15.7-9c1.8-1.1,4.8-1.1,6.7,0l15.7,9c1.8,1.1,1.8,2.8,0,3.8
					l-15.7,9C247.6,280.8,244.6,280.8,242.8,279.8z"/>
			</g>
			<g class="st27">
				<path class="st31" d="M242.8,279.8l-15.7-9c-1.8-1.1-1.8-2.8,0-3.8l15.7-9c1.8-1.1,4.8-1.1,6.7,0l15.7,9c1.8,1.1,1.8,2.8,0,3.8
					l-15.7,9C247.6,280.8,244.6,280.8,242.8,279.8z"/>
			</g>
		</g>
		<g>
			<g>
				<path class="st4" d="M246.1,268.4c-1.1,0-2.1-0.2-3-0.7l-15.7-9c-0.8-0.5-1.3-1.1-1.3-1.8s0.4-1.3,1.3-1.8l15.7-9
					c1.6-0.9,4.3-0.9,5.9,0l15.7,9c0.8,0.5,1.3,1.1,1.3,1.8c0,0.7-0.4,1.3-1.3,1.8l-15.7,9C248.2,268.1,247.2,268.4,246.1,268.4z
					 M246.1,245.6c-1,0-2,0.2-2.8,0.7l-15.7,9c-0.7,0.4-1.1,1-1.1,1.5s0.4,1.1,1.1,1.5l15.7,9c1.6,0.9,4.1,0.9,5.6,0l15.7-9
					c0.7-0.4,1.1-1,1.1-1.5c0-0.6-0.4-1.1-1.1-1.5l-15.7-9C248.1,245.8,247.1,245.6,246.1,245.6z"/>
				<g>
					<path class="st32" d="M266.5,253.4V248l-1-0.5c-0.3,1.7-2.2,2.8-3.9,3l-11.2,6.6l-4.9,1.8l-15.6-8.1l0.4-0.2
						c-1.3-0.6-2.1-2.1-2.8-3.4l-1.1,0.6l-0.6,0.2v5.5l0,0c0,0.7,0.5,1.4,1.4,1.9l15.7,9c1.8,1.1,4.8,1.1,6.7,0l15.7-9
						C266,254.8,266.5,254.1,266.5,253.4C266.5,253.4,266.5,253.4,266.5,253.4L266.5,253.4z"/>
					<g>
						<g>
							<linearGradient id="SVGID_28_" gradientUnits="userSpaceOnUse" x1="229.7877" y1="237.9964" x2="262.1069" y2="256.6559">
								<stop  offset="0" style="stop-color:#BCBEFF"/>
								<stop  offset="0.2271" style="stop-color:#AAADF8"/>
								<stop  offset="0.6802" style="stop-color:#7C83E5"/>
								<stop  offset="1" style="stop-color:#5761D7"/>
							</linearGradient>
							<path class="st39" d="M266.5,248.6V245l-1-0.5c-0.3,1.7-2.2,2.8-3.9,3l-11.2,6.6l-4.9,1.8l-15.6-8.1l0.4-0.2
								c-1.3-0.6-2.1-2.1-2.8-3.4l-1.1,0.6l-0.6,0.2v3.6l0,0c0,0.7,0.5,1.4,1.4,1.9l15.7,9c1.8,1.1,4.8,1.1,6.7,0l15.7-9
								C266,250.1,266.5,249.4,266.5,248.6C266.5,248.7,266.5,248.6,266.5,248.6L266.5,248.6z"/>
							<linearGradient id="SVGID_29_" gradientUnits="userSpaceOnUse" x1="229.7877" y1="237.9964" x2="262.1069" y2="256.6559">
								<stop  offset="0" style="stop-color:#42E8E0"/>
								<stop  offset="4.674554e-03" style="stop-color:#42E6DF"/>
								<stop  offset="0.1358" style="stop-color:#40B6CB"/>
								<stop  offset="0.2707" style="stop-color:#3E8DB9"/>
								<stop  offset="0.4074" style="stop-color:#3C6BAA"/>
								<stop  offset="0.5467" style="stop-color:#3B519F"/>
								<stop  offset="0.6893" style="stop-color:#3A3F97"/>
								<stop  offset="0.8375" style="stop-color:#393493"/>
								<stop  offset="1" style="stop-color:#393091"/>
							</linearGradient>
							<path class="st40" d="M266.5,248.6V245l-1-0.5c-0.3,1.7-2.2,2.8-3.9,3l-11.2,6.6l-4.9,1.8l-15.6-8.1l0.4-0.2
								c-1.3-0.6-2.1-2.1-2.8-3.4l-1.1,0.6l-0.6,0.2v3.6l0,0c0,0.7,0.5,1.4,1.4,1.9l15.7,9c1.8,1.1,4.8,1.1,6.7,0l15.7-9
								C266,250.1,266.5,249.4,266.5,248.6C266.5,248.7,266.5,248.6,266.5,248.6L266.5,248.6z"/>
							<path class="st29" d="M261.6,247.5l-11.2,6.6l-4.3,1.5v4.8c1.2,0,2.4-0.3,3.3-0.8l15.7-9c0.9-0.5,1.4-1.2,1.4-1.9
								c0,0,0-0.1,0-0.1l0,0V245l-0.9-0.5h-0.1C265.2,246.2,263.2,247.3,261.6,247.5z"/>
							<g>
								<linearGradient id="SVGID_30_" gradientUnits="userSpaceOnUse" x1="225.7351" y1="245.0496" x2="266.4696" y2="245.0496">
									<stop  offset="0" style="stop-color:#E9E9FD"/>
									<stop  offset="0.3601" style="stop-color:#D3D2F9"/>
									<stop  offset="0.7062" style="stop-color:#C5C4F7"/>
									<stop  offset="1" style="stop-color:#C0BFF6"/>
								</linearGradient>
								<path class="st41" d="M242.8,256l-15.7-9c-1.8-1.1-1.8-2.8,0-3.8l15.7-9c1.8-1.1,4.8-1.1,6.7,0l15.7,9
									c1.8,1.1,1.8,2.8,0,3.8l-15.7,9C247.6,257.1,244.6,257.1,242.8,256z"/>
							</g>
							<g>
								<path class="st36" d="M246.1,254.4c-1,0-1.9-0.2-2.7-0.6l-12.2-7.1c-0.7-0.4-1.1-1-1.1-1.6c0-0.6,0.4-1.2,1.1-1.6l12.2-7.1
									c1.5-0.8,3.9-0.8,5.3,0l12.2,7.1c0.7,0.4,1.1,1,1.1,1.6s-0.4,1.2-1.1,1.6l-12.2,7.1C248,254.2,247.1,254.4,246.1,254.4z
									 M243.6,253.5c1.4,0.8,3.7,0.8,5.1,0l12.2-7.1c0.6-0.4,1-0.9,1-1.4s-0.4-1-1-1.4l-12.2-7.1c-1.4-0.8-3.7-0.8-5.1,0
									l-12.2,7.1c-0.6,0.4-1,0.9-1,1.4c0,0.5,0.4,1,1,1.4L243.6,253.5z"/>
							</g>
							<g>
								<path class="st21" d="M265.1,247l-15.7,9c-1.8,1.1-4.8,1.1-6.7,0l-15.7-9c-0.8-0.5-1.3-1.1-1.4-1.7
									c-0.1,0.8,0.3,1.6,1.4,2.1l15.7,9c1.8,1.1,4.8,1.1,6.7,0l15.7-9c1-0.6,1.5-1.4,1.4-2.1C266.4,245.9,265.9,246.5,265.1,247z"
									/>
							</g>
						</g>
					</g>
				</g>
			</g>
		</g>
	</g>
	<g>
		<g>
			<path class="st42" d="M175.4,22.5c-14.5,0-26.2,11.7-26.2,26.2c0,14.5,11.7,26.2,26.2,26.2c14.5,0,26.2-11.7,26.2-26.2
				C201.6,34.2,189.9,22.5,175.4,22.5z M175.4,63.7c-8.3,0-15-6.7-15-15s6.7-15,15-15c8.3,0,15,6.7,15,15S183.7,63.7,175.4,63.7z"/>
			<radialGradient id="SVGID_31_" cx="173.0915" cy="48.6295" r="26.171" gradientUnits="userSpaceOnUse">
				<stop  offset="0.2931" style="stop-color:#FFFFFF"/>
				<stop  offset="1" style="stop-color:#01A0C6"/>
			</radialGradient>
			<path class="st43" d="M173.1,22.5c-14.5,0-26.2,11.7-26.2,26.2c0,14.5,11.7,26.2,26.2,26.2c14.5,0,26.2-11.7,26.2-26.2
				C199.3,34.2,187.5,22.5,173.1,22.5z M173.1,63.7c-8.3,0-15-6.7-15-15s6.7-15,15-15c8.3,0,15,6.7,15,15S181.4,63.7,173.1,63.7z"/>
			<g>
				<g>
					<path class="st42" d="M182.7,45.5c0,0,0.9,1.1,1.3,1.6c-2.8,0.9-5.8,1.8-8.7,2.1c0-3.3-0.3-6.7-0.8-10
						c-1.4,2.9-4.6,6.2-7.6,9.2c-1.6-0.4-3.3-0.9-4.9-1.3c0.3-0.4,1.1-1.4,1.1-1.4c-1.5,0.2-3.1,0.5-4.6,0.9
						c0.4,0.6,1.2,1.3,2.1,2.2c0,0,0.7-0.8,1.1-1.2c4,1.4,8.1,2.5,11.6,2.4c0,3.6,0,7.2-0.1,10.9c0.9-1.1,2.2-2.4,3.5-3.6
						c-0.1-0.2-0.3-0.3-0.4-0.5c-0.5,0.5-1,1-1.5,1.4c0.3-2.8,0.5-5.5,0.5-8.3c3.5-0.3,6.7-1.4,9.3-2.3c0.3,0.3,1,1.2,1,1.2
						c0.8-0.9,1.3-1.8,1.5-2.4C185.7,46,184.2,45.7,182.7,45.5z M168.3,48.6c1.7-1.9,3.5-3.9,5-5.8c0,2.1,0,4.2,0.1,6.3
						C171.7,49.2,170,49,168.3,48.6z"/>
				</g>
				<g>
					<path class="st44" d="M181.6,44.3c0,0,0.9,1.1,1.3,1.5c-2.6,0.9-5.5,1.8-8.2,2c0-3.2-0.3-6.4-0.7-9.6c-1.4,2.7-4.4,6-7.2,8.8
						c-1.5-0.4-3.1-0.8-4.6-1.2c0.3-0.3,1.1-1.3,1.1-1.3c-1.4,0.2-2.9,0.5-4.3,0.9c0.4,0.5,1.1,1.3,1.9,2.1c0,0,0.7-0.8,1-1.1
						c3.8,1.4,7.7,2.4,10.9,2.3c0,3.5,0,6.9-0.1,10.4c0.9-1.1,2-2.3,3.3-3.4c-0.1-0.2-0.2-0.3-0.4-0.5c-0.5,0.5-0.9,0.9-1.4,1.4
						c0.3-2.6,0.4-5.3,0.4-7.9c3.3-0.3,6.3-1.4,8.8-2.2c0.3,0.3,0.9,1.1,0.9,1.1c0.7-0.9,1.2-1.7,1.5-2.3
						C184.5,44.8,183,44.5,181.6,44.3z M168,47.3c1.6-1.8,3.4-3.7,4.7-5.5c0,2,0,4,0,6.1C171.2,47.8,169.6,47.6,168,47.3z"/>
				</g>
			</g>
		</g>
		<g>
			<path class="st45" d="M147.7,90.3c0.4,0,0.8-0.2,1-0.6c0.2-0.2,0.4-0.7,0.7-1.5l3.8-9.5h0.5l3.9,9.1c0.4,1,0.8,1.7,1,2
				c0.2,0.3,0.5,0.4,0.9,0.4v0.4h-5.6v-0.4c0.6,0,0.9-0.1,1.1-0.1c0.2-0.1,0.3-0.3,0.3-0.6c0-0.1,0-0.3-0.1-0.6
				c-0.1-0.2-0.1-0.4-0.2-0.6l-0.4-1h-3.9c-0.3,0.7-0.4,1.1-0.5,1.3c-0.2,0.4-0.2,0.8-0.2,1c0,0.2,0.2,0.4,0.5,0.5
				c0.2,0.1,0.5,0.1,0.9,0.1v0.4h-3.5V90.3z M154.2,86.7l-1.7-4h-0.1l-1.6,4H154.2z"/>
			<path class="st45" d="M160.2,90.3c0.5,0,0.8-0.1,1-0.2c0.3-0.2,0.5-0.5,0.5-1v-8.4c0-0.5-0.2-0.8-0.5-1c-0.2-0.1-0.5-0.2-1-0.2
				v-0.4h6.1v0.4c-0.7,0-1.2,0.1-1.4,0.3c-0.2,0.2-0.4,0.6-0.4,1.3v8.2c0,0.4,0.1,0.6,0.3,0.8c0.2,0.1,0.6,0.2,1.2,0.2
				c1,0,1.9-0.2,2.6-0.7c0.7-0.5,1.3-1.4,1.8-2.7h0.5l-0.7,3.9h-10V90.3z"/>
			<path class="st45" d="M171.8,90.8v-0.4c0.5,0,0.9-0.1,1.1-0.2c0.3-0.2,0.5-0.5,0.5-1v-8.4c0-0.5-0.2-0.8-0.5-1
				c-0.2-0.1-0.5-0.2-1-0.2v-0.4h10v3.5h-0.4c-0.2-1.1-0.6-1.9-1.1-2.3c-0.5-0.4-1.5-0.6-2.9-0.6c-0.5,0-0.9,0.1-1,0.2
				c-0.1,0.1-0.2,0.3-0.2,0.7v4c1,0,1.7-0.2,2-0.5c0.3-0.4,0.6-1,0.8-2h0.4v5.8h-0.4c-0.1-1-0.4-1.7-0.8-2.1c-0.4-0.4-1.1-0.6-2-0.6
				v4.2c0,0.4,0.1,0.6,0.3,0.7c0.2,0.1,0.6,0.2,1.2,0.2c1.1,0,2-0.2,2.7-0.6c0.7-0.4,1.3-1.2,1.9-2.4h0.5l-0.7,3.6H171.8z"/>
			<path class="st45" d="M183.7,86.7h0.5c0.3,1.3,0.7,2.2,1.3,2.8c0.6,0.6,1.3,0.9,2.1,0.9c0.8,0,1.3-0.2,1.6-0.6
				c0.3-0.4,0.5-0.8,0.5-1.3c0-0.5-0.2-0.9-0.5-1.3c-0.2-0.2-0.7-0.5-1.4-0.8l-1.1-0.6c-1.1-0.6-1.9-1.1-2.3-1.6
				c-0.5-0.5-0.7-1.2-0.7-2c0-0.8,0.3-1.6,0.9-2.4c0.6-0.7,1.5-1.1,2.7-1.1c0.6,0,1.2,0.1,1.8,0.3c0.6,0.2,0.9,0.3,1,0.3
				c0.2,0,0.3-0.1,0.4-0.2c0.1-0.1,0.1-0.3,0.2-0.4h0.5v3.8h-0.5c-0.2-0.9-0.6-1.6-1.2-2.3c-0.6-0.6-1.3-0.9-2.1-0.9
				c-0.6,0-1,0.2-1.4,0.5c-0.3,0.3-0.5,0.7-0.5,1.2c0,0.5,0.2,1,0.5,1.2c0.3,0.3,1,0.7,2.1,1.2l1.3,0.6c0.6,0.3,1,0.6,1.4,1
				c0.6,0.7,1,1.4,1,2.4c0,0.9-0.3,1.7-1,2.5c-0.7,0.8-1.8,1.2-3.3,1.2c-0.3,0-0.7,0-1-0.1c-0.4-0.1-0.7-0.2-1-0.3l-0.3-0.1
				c-0.1,0-0.2,0-0.2-0.1c-0.1,0-0.1,0-0.2,0c-0.2,0-0.3,0.1-0.4,0.2c-0.1,0.1-0.1,0.3-0.2,0.4h-0.5V86.7z"/>
			<path class="st45" d="M193,90.3c0.5,0,0.8-0.1,1.1-0.2c0.3-0.2,0.5-0.5,0.5-1v-8.4c0-0.5-0.2-0.9-0.5-1c-0.2-0.1-0.6-0.2-1.1-0.2
				v-0.4h6.1v0.4c-0.5,0-0.9,0.1-1.1,0.2c-0.3,0.2-0.5,0.5-0.5,1v8.4c0,0.5,0.1,0.8,0.4,1c0.3,0.2,0.7,0.2,1.2,0.2v0.4H193V90.3z"/>
		</g>
		<g>
			<path class="st46" d="M148.4,91c0.4,0,0.8-0.2,1-0.6c0.2-0.2,0.4-0.7,0.7-1.5l3.8-9.5h0.5l3.9,9.1c0.4,1,0.8,1.7,1,2
				c0.2,0.3,0.5,0.4,0.9,0.4v0.4h-5.6V91c0.6,0,0.9-0.1,1.1-0.1c0.2-0.1,0.3-0.3,0.3-0.6c0-0.1,0-0.3-0.1-0.6
				c-0.1-0.2-0.1-0.4-0.2-0.6l-0.4-1h-3.9c-0.3,0.7-0.4,1.1-0.5,1.3c-0.2,0.4-0.2,0.8-0.2,1c0,0.2,0.2,0.4,0.5,0.5
				c0.2,0.1,0.5,0.1,0.9,0.1v0.4h-3.5V91z M154.9,87.4l-1.7-4h-0.1l-1.6,4H154.9z"/>
			<path class="st46" d="M160.9,91c0.5,0,0.8-0.1,1-0.2c0.3-0.2,0.5-0.5,0.5-1v-8.4c0-0.5-0.2-0.8-0.5-1c-0.2-0.1-0.5-0.2-1-0.2
				v-0.4h6.1v0.4c-0.7,0-1.2,0.1-1.4,0.3c-0.2,0.2-0.4,0.6-0.4,1.3v8.2c0,0.4,0.1,0.6,0.3,0.8c0.2,0.1,0.6,0.2,1.2,0.2
				c1,0,1.9-0.2,2.6-0.7c0.7-0.5,1.3-1.4,1.8-2.7h0.5l-0.7,3.9h-10V91z"/>
			<path class="st46" d="M172.4,91.4V91c0.5,0,0.9-0.1,1.1-0.2c0.3-0.2,0.5-0.5,0.5-1v-8.4c0-0.5-0.2-0.8-0.5-1
				c-0.2-0.1-0.5-0.2-1-0.2v-0.4h10v3.5H182c-0.2-1.1-0.6-1.9-1.1-2.3c-0.5-0.4-1.5-0.6-2.9-0.6c-0.5,0-0.9,0.1-1,0.2
				c-0.1,0.1-0.2,0.3-0.2,0.7v4c1,0,1.7-0.2,2-0.5c0.3-0.4,0.6-1,0.8-2h0.4v5.8h-0.4c-0.1-1-0.4-1.7-0.8-2.1c-0.4-0.4-1.1-0.6-2-0.6
				v4.2c0,0.4,0.1,0.6,0.3,0.7c0.2,0.1,0.6,0.2,1.2,0.2c1.1,0,2-0.2,2.7-0.6c0.7-0.4,1.3-1.2,1.9-2.4h0.5l-0.7,3.6H172.4z"/>
			<path class="st46" d="M184.3,87.4h0.5c0.3,1.3,0.7,2.2,1.3,2.8c0.6,0.6,1.3,0.9,2.1,0.9c0.8,0,1.3-0.2,1.6-0.6
				c0.3-0.4,0.5-0.8,0.5-1.3c0-0.5-0.2-0.9-0.5-1.3c-0.2-0.2-0.7-0.5-1.4-0.8l-1.1-0.6c-1.1-0.6-1.9-1.1-2.3-1.6
				c-0.5-0.5-0.7-1.2-0.7-2c0-0.8,0.3-1.6,0.9-2.4c0.6-0.7,1.5-1.1,2.7-1.1c0.6,0,1.2,0.1,1.8,0.3c0.6,0.2,0.9,0.3,1,0.3
				c0.2,0,0.3-0.1,0.4-0.2c0.1-0.1,0.1-0.3,0.2-0.4h0.5v3.8h-0.5c-0.2-0.9-0.6-1.6-1.2-2.3c-0.6-0.6-1.3-0.9-2.1-0.9
				c-0.6,0-1,0.2-1.4,0.5c-0.3,0.3-0.5,0.7-0.5,1.2c0,0.5,0.2,1,0.5,1.2c0.3,0.3,1,0.7,2.1,1.2l1.3,0.6c0.6,0.3,1,0.6,1.4,1
				c0.6,0.7,1,1.4,1,2.4c0,0.9-0.3,1.7-1,2.5c-0.7,0.8-1.8,1.2-3.3,1.2c-0.3,0-0.7,0-1-0.1c-0.4-0.1-0.7-0.2-1-0.3l-0.3-0.1
				c-0.1,0-0.2,0-0.2-0.1c-0.1,0-0.1,0-0.2,0c-0.2,0-0.3,0.1-0.4,0.2c-0.1,0.1-0.1,0.3-0.2,0.4h-0.5V87.4z"/>
			<path class="st46" d="M193.6,91c0.5,0,0.8-0.1,1.1-0.2c0.3-0.2,0.5-0.5,0.5-1v-8.4c0-0.5-0.2-0.9-0.5-1c-0.2-0.1-0.6-0.2-1.1-0.2
				v-0.4h6.1v0.4c-0.5,0-0.9,0.1-1.1,0.2c-0.3,0.2-0.5,0.5-0.5,1v8.4c0,0.5,0.1,0.8,0.4,1c0.3,0.2,0.7,0.2,1.2,0.2v0.4h-6.1V91z"/>
		</g>
		<g>
			<path class="st47" d="M148.6,91.5c0.4,0,0.8-0.2,1-0.6c0.2-0.2,0.4-0.7,0.7-1.5l3.8-9.5h0.5l3.9,9.1c0.4,1,0.8,1.7,1,2
				c0.2,0.3,0.5,0.4,0.9,0.4v0.4h-5.6v-0.4c0.6,0,0.9-0.1,1.1-0.1c0.2-0.1,0.3-0.3,0.3-0.6c0-0.1,0-0.3-0.1-0.6
				c-0.1-0.2-0.1-0.4-0.2-0.6l-0.4-1h-3.9c-0.3,0.7-0.4,1.1-0.5,1.3c-0.2,0.4-0.2,0.8-0.2,1c0,0.2,0.2,0.4,0.5,0.5
				c0.2,0.1,0.5,0.1,0.9,0.1v0.4h-3.5V91.5z M155.1,87.8l-1.7-4h-0.1l-1.6,4H155.1z"/>
			<path class="st47" d="M161.1,91.5c0.5,0,0.8-0.1,1-0.2c0.3-0.2,0.5-0.5,0.5-1v-8.4c0-0.5-0.2-0.8-0.5-1c-0.2-0.1-0.5-0.2-1-0.2
				v-0.4h6.1v0.4c-0.7,0-1.2,0.1-1.4,0.3c-0.2,0.2-0.4,0.6-0.4,1.3v8.2c0,0.4,0.1,0.6,0.3,0.8c0.2,0.1,0.6,0.2,1.2,0.2
				c1,0,1.9-0.2,2.6-0.7c0.7-0.5,1.3-1.4,1.8-2.7h0.5l-0.7,3.9h-10V91.5z"/>
			<path class="st47" d="M172.7,91.9v-0.4c0.5,0,0.8-0.1,1.1-0.2c0.3-0.2,0.5-0.5,0.5-1v-8.4c0-0.5-0.2-0.8-0.5-1
				c-0.2-0.1-0.5-0.2-1-0.2v-0.4h10v3.5h-0.4c-0.2-1.1-0.6-1.9-1.1-2.3c-0.5-0.4-1.5-0.6-2.9-0.6c-0.5,0-0.9,0.1-1,0.2
				c-0.1,0.1-0.2,0.3-0.2,0.7v4c1,0,1.7-0.2,2-0.5c0.3-0.4,0.6-1,0.8-2h0.4v5.8h-0.4c-0.1-1-0.4-1.7-0.8-2.1c-0.4-0.4-1.1-0.6-2-0.6
				v4.2c0,0.4,0.1,0.6,0.3,0.7c0.2,0.1,0.6,0.2,1.2,0.2c1.1,0,2-0.2,2.7-0.6c0.7-0.4,1.3-1.2,1.9-2.4h0.5l-0.7,3.6H172.7z"/>
			<path class="st47" d="M184.5,87.9h0.5c0.3,1.3,0.7,2.2,1.3,2.8c0.6,0.6,1.3,0.9,2.1,0.9c0.8,0,1.3-0.2,1.7-0.6
				c0.3-0.4,0.5-0.8,0.5-1.3c0-0.5-0.2-0.9-0.5-1.3c-0.2-0.2-0.7-0.5-1.4-0.8l-1.1-0.6c-1.1-0.6-1.9-1.1-2.3-1.6
				c-0.5-0.5-0.7-1.2-0.7-2c0-0.8,0.3-1.6,0.9-2.4c0.6-0.7,1.5-1.1,2.7-1.1c0.6,0,1.2,0.1,1.8,0.3c0.6,0.2,0.9,0.3,1,0.3
				c0.2,0,0.3-0.1,0.4-0.2c0.1-0.1,0.1-0.3,0.2-0.4h0.5v3.8h-0.5c-0.2-0.9-0.6-1.6-1.2-2.3c-0.6-0.6-1.3-0.9-2.1-0.9
				c-0.6,0-1,0.2-1.4,0.5c-0.3,0.3-0.5,0.7-0.5,1.2c0,0.5,0.2,1,0.5,1.2c0.3,0.3,1,0.7,2.1,1.2l1.3,0.6c0.6,0.3,1,0.6,1.4,1
				c0.6,0.7,1,1.4,1,2.4c0,0.9-0.3,1.7-1,2.5c-0.7,0.8-1.8,1.2-3.3,1.2c-0.3,0-0.7,0-1-0.1c-0.4-0.1-0.7-0.2-1-0.3l-0.3-0.1
				c-0.1,0-0.2,0-0.2-0.1c-0.1,0-0.1,0-0.2,0c-0.2,0-0.3,0.1-0.4,0.2c-0.1,0.1-0.1,0.3-0.2,0.4h-0.5V87.9z"/>
			<path class="st47" d="M193.8,91.5c0.5,0,0.8-0.1,1.1-0.2c0.3-0.2,0.5-0.5,0.5-1v-8.4c0-0.5-0.2-0.9-0.5-1
				c-0.2-0.1-0.6-0.2-1.1-0.2v-0.4h6.1v0.4c-0.5,0-0.9,0.1-1.1,0.2c-0.3,0.2-0.5,0.5-0.5,1v8.4c0,0.5,0.1,0.8,0.4,1
				c0.3,0.2,0.7,0.2,1.2,0.2v0.4h-6.1V91.5z"/>
		</g>
	</g>
	<g>
		<path class="st21" d="M136.5,108.4h4.3c1.1,0,2,0.3,2.5,0.8c0.5,0.6,0.8,1.5,0.8,2.8v0.7c0,1.5-0.5,2.4-1.6,2.7
			c0.7,0.2,1.1,0.6,1.4,1.2c0.3,0.6,0.4,1.4,0.4,2.5c0,1.7-0.3,2.9-0.8,3.8c-0.5,0.9-1.4,1.3-2.7,1.3h-4.3V108.4z M140.2,114.3
			c0.3,0,0.5-0.1,0.6-0.3c0.1-0.2,0.1-0.5,0.1-0.9v-1.6c0-0.5-0.2-0.8-0.7-0.8h-0.7v3.5H140.2z M141.1,120.2v-2
			c0-0.5-0.1-0.8-0.2-1.1s-0.4-0.4-0.7-0.4h-0.6v4.6l0.3,0C140.7,121.4,141.1,121,141.1,120.2z"/>
		<path class="st21" d="M145.2,109.8v-2.2h3.2v2.2H145.2z M145.2,124.1v-13.4h3.2v13.4H145.2z"/>
		<path class="st21" d="M150.5,123.2c-0.6-0.8-0.9-1.9-0.9-3.4v-5.4c0-1.2,0.4-2.2,1.1-2.8c0.7-0.6,1.7-1,3-1c2.6,0,3.9,1.3,3.9,3.8
			v1c0,1,0,1.8,0,2.4h-4.7v2.6c0,0.5,0,0.8,0.1,1.1c0.1,0.3,0.3,0.4,0.6,0.4c0.2,0,0.4-0.1,0.5-0.2c0.1-0.1,0.2-0.3,0.2-0.5
			c0-0.2,0-0.5,0-0.8V119h3.2v0.8c0,1.6-0.3,2.7-0.9,3.5c-0.6,0.7-1.6,1.1-3.1,1.1C152.1,124.3,151.1,123.9,150.5,123.2z
			 M154.3,116.1v-1.7c0-1-0.2-1.4-0.7-1.4c-0.5,0-0.8,0.5-0.8,1.4v1.7H154.3z"/>
		<path class="st21" d="M158.7,110.7h3.2v1.7c0.1-0.6,0.4-1,0.7-1.3c0.3-0.3,0.8-0.5,1.3-0.5c0.9,0,1.6,0.3,2,0.8s0.7,1.3,0.7,2.4
			v10.4h-3.2v-10c0-0.3-0.1-0.5-0.2-0.8c-0.1-0.2-0.3-0.3-0.5-0.3c-0.3,0-0.5,0.1-0.7,0.4c-0.1,0.3-0.2,0.7-0.2,1.2v9.4h-3.2V110.7z
			"/>
		<path class="st21" d="M169.5,124.1l-2.1-13.4h3.2l0.7,6.8l0.1,2.2l0.1-2.2l0.7-6.8h3.2l-2.2,13.4H169.5z"/>
		<path class="st21" d="M177.1,123.2c-0.6-0.8-0.9-1.9-0.9-3.4v-5.4c0-1.2,0.4-2.2,1.1-2.8c0.7-0.6,1.7-1,3-1c2.6,0,3.9,1.3,3.9,3.8
			v1c0,1,0,1.8,0,2.4h-4.7v2.6c0,0.5,0,0.8,0.1,1.1c0.1,0.3,0.3,0.4,0.6,0.4c0.2,0,0.4-0.1,0.5-0.2c0.1-0.1,0.2-0.3,0.2-0.5
			c0-0.2,0-0.5,0-0.8V119h3.2v0.8c0,1.6-0.3,2.7-0.9,3.5c-0.6,0.7-1.6,1.1-3.1,1.1C178.6,124.3,177.7,123.9,177.1,123.2z
			 M180.9,116.1v-1.7c0-1-0.2-1.4-0.7-1.4c-0.5,0-0.8,0.5-0.8,1.4v1.7H180.9z"/>
		<path class="st21" d="M185.2,110.7h3.2v1.7c0.1-0.6,0.4-1,0.7-1.3c0.3-0.3,0.8-0.5,1.3-0.5c0.9,0,1.6,0.3,2,0.8s0.7,1.3,0.7,2.4
			v10.4H190v-10c0-0.3-0.1-0.5-0.2-0.8c-0.1-0.2-0.3-0.3-0.5-0.3c-0.3,0-0.5,0.1-0.7,0.4c-0.1,0.3-0.2,0.7-0.2,1.2v9.4h-3.2V110.7z"
			/>
		<path class="st21" d="M194.4,109.8v-2.2h3.2v2.2H194.4z M194.4,124.1v-13.4h3.2v13.4H194.4z"/>
		<path class="st21" d="M199.7,123.7c-0.4-0.4-0.7-0.9-0.8-1.5c-0.1-0.6-0.2-1.4-0.2-2.4l0-6.1c0-1,0.2-1.7,0.7-2.3s1.2-0.9,2-0.9
			c0.9,0,1.5,0.3,1.9,0.9v-3.1h3.2v15.8h-3.2v-1.4c-0.2,0.5-0.4,0.9-0.7,1.2c-0.3,0.3-0.7,0.4-1.3,0.4
			C200.7,124.3,200.1,124.1,199.7,123.7z M203.3,121.3c0.1-0.3,0.1-0.7,0.1-1.3v-0.6v-5c0-0.4-0.1-0.7-0.2-1s-0.3-0.4-0.6-0.4
			c-0.3,0-0.5,0.1-0.6,0.4c-0.1,0.3-0.2,0.6-0.2,1v5.7c0,1.1,0.3,1.7,0.8,1.7C203,121.8,203.2,121.6,203.3,121.3z"/>
		<path class="st21" d="M207.9,120.1v-5.4c0-1.3,0.4-2.3,1.1-3c0.7-0.8,1.7-1.1,2.9-1.1c1.2,0,2.2,0.4,2.9,1.1
			c0.7,0.8,1.1,1.8,1.1,3v5.4c0,2.8-1.3,4.2-4,4.2C209.2,124.3,207.9,122.9,207.9,120.1z M212.4,121.5c0.1-0.2,0.2-0.4,0.2-0.8v-6.6
			c0-0.8-0.3-1.2-0.8-1.2c-0.5,0-0.8,0.4-0.8,1.2v6.6c0,0.3,0.1,0.6,0.2,0.8s0.3,0.3,0.6,0.3S212.3,121.7,212.4,121.5z"/>
		<path class="st21" d="M110.4,149.2c-0.8-0.9-1.2-2-1.2-3.5V137c0-1.9,0.4-3.3,1.1-4.2c0.7-0.9,1.9-1.4,3.5-1.4
			c1.4,0,2.5,0.4,3.3,1.1c0.8,0.8,1.3,1.8,1.3,3.3v3.2h-3.7v-2.8c0-0.5-0.1-0.9-0.2-1.1c-0.1-0.2-0.4-0.3-0.7-0.3
			c-0.3,0-0.6,0.1-0.7,0.3c-0.1,0.2-0.2,0.6-0.2,1v9.4c0,0.5,0.1,0.9,0.2,1.1c0.1,0.2,0.4,0.3,0.7,0.3c0.6,0,0.9-0.5,0.9-1.4v-3.4
			h3.8v3.5c0,3.1-1.6,4.7-4.7,4.7C112.4,150.5,111.3,150.1,110.4,149.2z"/>
		<path class="st21" d="M120.6,149.2c-0.7-0.9-1.1-2.2-1.1-4v-6.4c0-1.5,0.4-2.6,1.3-3.4c0.8-0.8,2-1.2,3.5-1.2
			c3.1,0,4.6,1.5,4.6,4.5v1.2c0,1.2,0,2.1,0,2.8h-5.5v3.1c0,0.6,0.1,1,0.2,1.3c0.1,0.3,0.4,0.5,0.7,0.5c0.3,0,0.5-0.1,0.6-0.3
			c0.1-0.2,0.2-0.4,0.2-0.6s0-0.6,0-1v-1.5h3.8v0.9c0,1.9-0.4,3.2-1.1,4.1c-0.7,0.9-2,1.3-3.7,1.3
			C122.5,150.5,121.3,150.1,120.6,149.2z M121.8,133.6v-2.4l5.1-2.3v3.7L121.8,133.6z M125.1,140.8v-2.1c0-1.2-0.3-1.7-0.9-1.7
			c-0.6,0-1,0.6-1,1.7v2.1H125.1z"/>
		<path class="st21" d="M129.9,145.7l0-1.3h3.8l0,1.9c0,0.4,0.1,0.7,0.2,0.9c0.1,0.2,0.4,0.3,0.7,0.3c0.5,0,0.8-0.4,0.8-1.2
			c0-0.6-0.1-1.1-0.4-1.4s-0.6-0.7-1.1-1.1l-2-1.6c-0.7-0.5-1.2-1.1-1.5-1.7c-0.3-0.6-0.5-1.4-0.5-2.4c0-0.8,0.2-1.5,0.6-2.1
			s1-1,1.7-1.3c0.7-0.3,1.5-0.4,2.4-0.4c3.1,0,4.7,1.5,4.7,4.6v0.3h-4v-0.6c0-0.4-0.1-0.7-0.2-1c-0.1-0.3-0.3-0.4-0.6-0.4
			c-0.3,0-0.5,0.1-0.6,0.2c-0.1,0.2-0.2,0.4-0.2,0.6c0,0.6,0.2,1,0.7,1.4l2.4,1.7c0.8,0.6,1.5,1.3,1.9,2c0.5,0.7,0.7,1.7,0.7,2.8
			c0,1.5-0.4,2.6-1.3,3.4s-2,1.2-3.5,1.2C131.5,150.5,129.9,148.9,129.9,145.7z"/>
		<path class="st21" d="M141,149.3c-0.5-0.8-0.7-2-0.7-3.5c0-1.3,0.2-2.2,0.5-2.9c0.3-0.7,0.8-1.2,1.4-1.5c0.6-0.3,1.5-0.7,2.7-1
			l1-0.3v0v-1.6c0-0.4-0.1-0.7-0.3-1c-0.2-0.2-0.4-0.3-0.6-0.3c-0.2,0-0.4,0.1-0.5,0.3c-0.2,0.2-0.2,0.4-0.2,0.8v1h-3.7v-0.5
			c0-1.6,0.4-2.7,1.1-3.4c0.7-0.7,1.9-1,3.6-1c1.3,0,2.4,0.3,3.2,1s1.2,1.7,1.2,2.9v12.2H146v-1.9c-0.2,0.7-0.5,1.2-0.9,1.5
			c-0.4,0.4-0.9,0.5-1.5,0.5C142.3,150.5,141.5,150.1,141,149.3z M145.7,147.2c0.1-0.2,0.2-0.5,0.2-0.9v-4.5c-0.6,0.2-1,0.5-1.3,0.8
			c-0.3,0.3-0.4,0.8-0.4,1.4v2.1c0,0.9,0.3,1.4,0.9,1.4C145.4,147.6,145.6,147.4,145.7,147.2z"/>
		<path class="st21" d="M151.2,134.4h3.8v1.8c0.2-0.6,0.5-1.1,1-1.5c0.5-0.3,1.1-0.5,1.8-0.5v3.2c-0.5,0-1.1,0.1-1.8,0.2
			c-0.6,0.2-1,0.3-1,0.5v12.2h-3.8V134.4z"/>
		<path class="st21" d="M169.2,150.4c-0.6,0.1-0.9,0.2-0.9,0.2c-1.5,0-2.7-0.4-3.5-1.3c-0.8-0.9-1.2-2.1-1.2-3.8v-9.1
			c0-1.6,0.4-2.8,1.2-3.7c0.8-0.8,1.9-1.3,3.4-1.3c1.5,0,2.6,0.4,3.4,1.3c0.8,0.8,1.2,2.1,1.2,3.7v9.1c0,1.5-0.3,2.8-1,3.7l1.6,1
			l-1.3,2.2L169.2,150.4z M169,146.5c0.1-0.3,0.2-0.8,0.2-1.4v-8.8c0-0.5-0.1-0.9-0.2-1.1c-0.1-0.3-0.4-0.4-0.7-0.4
			c-0.6,0-0.9,0.5-0.9,1.5v8.9c0,0.5,0.1,1,0.2,1.3c0.1,0.3,0.4,0.5,0.7,0.5C168.6,147.1,168.9,146.9,169,146.5z"/>
		<path class="st21" d="M175.2,149.5c-0.4-0.7-0.7-1.8-0.7-3.2v-11.9h3.8v11.1c0,0.1,0,0.4,0,0.8c0,0.4,0.1,0.8,0.2,0.9
			c0.1,0.2,0.4,0.3,0.6,0.3c0.4,0,0.6-0.2,0.7-0.5c0.1-0.3,0.2-0.8,0.2-1.4v-0.1l0-11.1h3.8v16h-3.8v-1.7c-0.3,0.7-0.6,1.2-0.9,1.4
			c-0.3,0.3-0.9,0.4-1.5,0.4C176.5,150.5,175.7,150.2,175.2,149.5z"/>
		<path class="st21" d="M185.5,133.3v-2.7h3.8v2.7H185.5z M185.5,150.3v-16h3.8v16H185.5z"/>
		<path class="st21" d="M190.8,134.4h3.8v2c0.2-0.7,0.4-1.2,0.8-1.6c0.4-0.4,0.9-0.6,1.6-0.6c1.1,0,1.9,0.3,2.4,1
			c0.5,0.7,0.8,1.6,0.8,2.8v12.3h-3.8v-11.9c0-0.3-0.1-0.6-0.2-0.9c-0.1-0.2-0.4-0.4-0.6-0.4c-0.4,0-0.7,0.2-0.8,0.5
			c-0.1,0.4-0.2,0.8-0.2,1.4v11.2h-3.8V134.4z M196.2,133c-0.3-0.1-0.8-0.2-1.2-0.4c-0.2-0.1-0.5-0.2-0.7-0.3
			c-0.2-0.1-0.4-0.1-0.6-0.1c-0.4,0-0.8,0.2-1,0.7l-1.6-0.8c0.3-0.8,0.7-1.4,1-1.8c0.4-0.4,0.9-0.6,1.6-0.6c0.4,0,0.7,0,1,0.1
			c0.3,0.1,0.7,0.2,1.2,0.4c0.5,0.2,0.9,0.3,1.2,0.3c0.4,0,0.7-0.3,1-0.8l1.8,0.6c-0.2,0.6-0.4,1.1-0.6,1.5
			c-0.2,0.4-0.5,0.7-0.8,0.9c-0.3,0.2-0.7,0.4-1.2,0.4C196.9,133.2,196.5,133.1,196.2,133z"/>
		<path class="st21" d="M201.6,145.6v-6.4c0-1.5,0.4-2.7,1.3-3.6s2-1.3,3.5-1.3c1.5,0,2.7,0.4,3.5,1.3s1.3,2.1,1.3,3.6v6.4
			c0,3.3-1.6,5-4.8,5S201.6,148.9,201.6,145.6z M207.1,147.2c0.1-0.2,0.2-0.5,0.2-0.9v-7.8c0-0.9-0.3-1.4-0.9-1.4
			c-0.6,0-0.9,0.5-0.9,1.4v7.8c0,0.4,0.1,0.7,0.2,0.9c0.1,0.2,0.4,0.3,0.7,0.3S206.9,147.5,207.1,147.2z"/>
		<path class="st21" d="M212.6,134.4h3.8v2c0.2-0.7,0.4-1.2,0.8-1.6c0.4-0.4,0.9-0.6,1.6-0.6c1.1,0,1.9,0.3,2.4,1
			c0.5,0.7,0.8,1.6,0.8,2.8v12.3h-3.8v-11.9c0-0.3-0.1-0.6-0.2-0.9c-0.1-0.2-0.4-0.4-0.6-0.4c-0.4,0-0.7,0.2-0.8,0.5
			c-0.1,0.4-0.2,0.8-0.2,1.4v11.2h-3.8V134.4z"/>
		<path class="st21" d="M224.4,149.2c-0.7-0.9-1.1-2.2-1.1-4v-6.4c0-1.5,0.4-2.6,1.3-3.4c0.8-0.8,2-1.2,3.5-1.2
			c3.1,0,4.6,1.5,4.6,4.5v1.2c0,1.2,0,2.1,0,2.8h-5.5v3.1c0,0.6,0.1,1,0.2,1.3c0.1,0.3,0.4,0.5,0.7,0.5c0.3,0,0.5-0.1,0.6-0.3
			c0.1-0.2,0.2-0.4,0.2-0.6s0-0.6,0-1v-1.5h3.8v0.9c0,1.9-0.4,3.2-1.1,4.1s-2,1.3-3.7,1.3C226.3,150.5,225.1,150.1,224.4,149.2z
			 M229,140.8v-2.1c0-1.2-0.3-1.7-0.9-1.7c-0.6,0-1,0.6-1,1.7v2.1H229z"/>
		<path class="st21" d="M233.8,145.7l0-1.3h3.8l0,1.9c0,0.4,0.1,0.7,0.2,0.9c0.1,0.2,0.4,0.3,0.7,0.3c0.5,0,0.8-0.4,0.8-1.2
			c0-0.6-0.1-1.1-0.4-1.4s-0.6-0.7-1.1-1.1l-2-1.6c-0.7-0.5-1.2-1.1-1.5-1.7c-0.3-0.6-0.5-1.4-0.5-2.4c0-0.8,0.2-1.5,0.6-2.1
			c0.4-0.6,1-1,1.7-1.3c0.7-0.3,1.5-0.4,2.4-0.4c3.1,0,4.7,1.5,4.7,4.6v0.3h-4v-0.6c0-0.4-0.1-0.7-0.2-1c-0.1-0.3-0.3-0.4-0.6-0.4
			c-0.3,0-0.5,0.1-0.6,0.2c-0.1,0.2-0.2,0.4-0.2,0.6c0,0.6,0.2,1,0.7,1.4l2.4,1.7c0.8,0.6,1.5,1.3,1.9,2s0.7,1.7,0.7,2.8
			c0,1.5-0.4,2.6-1.3,3.4s-2,1.2-3.5,1.2C235.4,150.5,233.8,148.9,233.8,145.7z"/>
	</g>
	<g>
		<path class="st21" d="M104.4,184.6c-0.8,0-1.3,0.1-1.7,0.2c-0.4,0.1-0.7,0.4-0.9,0.7c-0.2,0.4-0.3,0.9-0.3,1.7
			c0,0.3,0,0.6,0.1,0.7c0.1,0.2,0.2,0.3,0.5,0.3c0.2,0,0.4-0.1,0.5-0.3s0.1-0.5,0.1-0.8v-0.9h2.3v1.6c0,0.8-0.3,1.4-0.8,1.8
			c-0.5,0.4-1.2,0.6-2.1,0.6c-1.1,0-1.8-0.3-2.2-0.8c-0.4-0.6-0.7-1.4-0.7-2.5c0-1.1,0.3-2,0.8-2.7c0.5-0.7,1.3-1,2.4-1v-1h2.1
			V184.6z M104.5,179.2v1.8h-2.2v-1.8H104.5z"/>
		<path class="st21" d="M108.7,189.4c-0.3,0.1-0.5,0.1-0.5,0.1c-0.9,0-1.5-0.2-2-0.8c-0.5-0.5-0.7-1.2-0.7-2.2v-5.2
			c0-0.9,0.2-1.6,0.7-2.1c0.5-0.5,1.1-0.7,2-0.7s1.5,0.2,2,0.7c0.5,0.5,0.7,1.2,0.7,2.1v5.2c0,0.9-0.2,1.6-0.6,2.1l0.9,0.6l-0.7,1.3
			L108.7,189.4z M108.6,187.2c0.1-0.2,0.1-0.5,0.1-0.8v-5.1c0-0.3,0-0.5-0.1-0.7c-0.1-0.2-0.2-0.2-0.4-0.2c-0.3,0-0.5,0.3-0.5,0.9
			v5.1c0,0.3,0,0.6,0.1,0.8c0.1,0.2,0.2,0.3,0.4,0.3C108.4,187.5,108.5,187.4,108.6,187.2z"/>
		<path class="st21" d="M112.2,188.8c-0.3-0.4-0.4-1-0.4-1.8v-6.9h2.2v6.4c0,0.1,0,0.2,0,0.5c0,0.3,0,0.4,0.1,0.5
			c0.1,0.1,0.2,0.2,0.4,0.2c0.2,0,0.4-0.1,0.4-0.3c0.1-0.2,0.1-0.5,0.1-0.8v-0.1l0-6.4h2.2v9.2h-2.2v-1c-0.2,0.4-0.3,0.7-0.5,0.8
			c-0.2,0.2-0.5,0.3-0.9,0.3C113,189.4,112.5,189.2,112.2,188.8z"/>
		<path class="st21" d="M118.7,188.7c-0.4-0.5-0.6-1.3-0.6-2.3v-3.7c0-0.8,0.2-1.5,0.7-1.9c0.5-0.4,1.2-0.7,2-0.7
			c1.8,0,2.7,0.9,2.7,2.6v0.7c0,0.7,0,1.2,0,1.6h-3.2v1.8c0,0.3,0,0.6,0.1,0.8c0.1,0.2,0.2,0.3,0.4,0.3c0.2,0,0.3-0.1,0.4-0.2
			c0.1-0.1,0.1-0.2,0.1-0.3c0-0.1,0-0.3,0-0.6v-0.9h2.2v0.5c0,1.1-0.2,1.9-0.6,2.4c-0.4,0.5-1.1,0.8-2.2,0.8
			C119.8,189.4,119.1,189.2,118.7,188.7z M119.4,179.7v-1.4l2.9-1.3v2.1L119.4,179.7z M121.3,183.8v-1.2c0-0.7-0.2-1-0.5-1
			c-0.4,0-0.6,0.3-0.6,1v1.2H121.3z"/>
		<path class="st21" d="M127.9,189.1c-0.3-0.3-0.5-0.6-0.5-1c-0.1-0.4-0.1-1-0.1-1.6l0-4.2c0-0.7,0.2-1.2,0.5-1.6
			c0.3-0.4,0.8-0.6,1.4-0.6c0.6,0,1,0.2,1.3,0.6v-2.2h2.2v10.9h-2.2v-1c-0.1,0.4-0.3,0.6-0.5,0.8c-0.2,0.2-0.5,0.3-0.9,0.3
			C128.5,189.4,128.1,189.3,127.9,189.1z M130.4,187.4c0.1-0.2,0.1-0.5,0.1-0.9v-0.4v-3.5c0-0.3,0-0.5-0.1-0.7
			c-0.1-0.2-0.2-0.3-0.4-0.3c-0.2,0-0.4,0.1-0.4,0.3c-0.1,0.2-0.1,0.4-0.1,0.7v3.9c0,0.8,0.2,1.2,0.5,1.2
			C130.1,187.7,130.3,187.6,130.4,187.4z"/>
		<path class="st21" d="M134.1,188.7c-0.4-0.5-0.6-1.3-0.6-2.3v-3.7c0-0.8,0.2-1.5,0.7-1.9c0.5-0.4,1.2-0.7,2-0.7
			c1.8,0,2.7,0.9,2.7,2.6v0.7c0,0.7,0,1.2,0,1.6h-3.2v1.8c0,0.3,0,0.6,0.1,0.8c0.1,0.2,0.2,0.3,0.4,0.3c0.2,0,0.3-0.1,0.4-0.2
			c0.1-0.1,0.1-0.2,0.1-0.3c0-0.1,0-0.3,0-0.6v-0.9h2.2v0.5c0,1.1-0.2,1.9-0.6,2.4c-0.4,0.5-1.1,0.8-2.2,0.8
			C135.2,189.4,134.5,189.2,134.1,188.7z M136.7,183.8v-1.2c0-0.7-0.2-1-0.5-1c-0.4,0-0.6,0.3-0.6,1v1.2H136.7z"/>
		<path class="st21" d="M139.5,186.7l0-0.7h2.2l0,1.1c0,0.2,0,0.4,0.1,0.5c0.1,0.1,0.2,0.2,0.4,0.2c0.3,0,0.4-0.2,0.4-0.7
			c0-0.4-0.1-0.6-0.2-0.8c-0.1-0.2-0.4-0.4-0.7-0.6l-1.2-0.9c-0.4-0.3-0.7-0.6-0.9-1c-0.2-0.3-0.3-0.8-0.3-1.4
			c0-0.5,0.1-0.9,0.4-1.2c0.2-0.3,0.6-0.6,1-0.8c0.4-0.2,0.9-0.3,1.4-0.3c1.8,0,2.7,0.9,2.7,2.7v0.2h-2.3v-0.4c0-0.2,0-0.4-0.1-0.6
			c-0.1-0.2-0.2-0.2-0.4-0.2c-0.2,0-0.3,0-0.3,0.1c-0.1,0.1-0.1,0.2-0.1,0.4c0,0.3,0.1,0.6,0.4,0.8l1.4,1c0.5,0.4,0.9,0.8,1.1,1.2
			c0.3,0.4,0.4,1,0.4,1.6c0,0.9-0.2,1.5-0.7,2c-0.5,0.5-1.2,0.7-2,0.7C140.4,189.4,139.5,188.5,139.5,186.7z"/>
		<path class="st21" d="M146.2,188.7c-0.4-0.5-0.6-1.3-0.6-2.3v-3.7c0-0.8,0.2-1.5,0.7-1.9c0.5-0.4,1.2-0.7,2-0.7
			c1.8,0,2.7,0.9,2.7,2.6v0.7c0,0.7,0,1.2,0,1.6h-3.2v1.8c0,0.3,0,0.6,0.1,0.8c0.1,0.2,0.2,0.3,0.4,0.3c0.2,0,0.3-0.1,0.4-0.2
			c0.1-0.1,0.1-0.2,0.1-0.3c0-0.1,0-0.3,0-0.6v-0.9h2.2v0.5c0,1.1-0.2,1.9-0.6,2.4c-0.4,0.5-1.1,0.8-2.2,0.8
			C147.3,189.4,146.6,189.2,146.2,188.7z M148.9,183.8v-1.2c0-0.7-0.2-1-0.5-1c-0.4,0-0.6,0.3-0.6,1v1.2H148.9z"/>
		<path class="st21" d="M152.1,188.7c-0.3-0.5-0.4-1.2-0.4-2c0-0.7,0.1-1.3,0.3-1.7c0.2-0.4,0.5-0.7,0.8-0.9
			c0.3-0.2,0.8-0.4,1.5-0.6l0.6-0.2v0v-0.9c0-0.2,0-0.4-0.1-0.6c-0.1-0.1-0.2-0.2-0.3-0.2c-0.1,0-0.2,0.1-0.3,0.2
			c-0.1,0.1-0.1,0.3-0.1,0.4v0.6h-2.1v-0.3c0-0.9,0.2-1.6,0.6-1.9c0.4-0.4,1.1-0.6,2.1-0.6c0.8,0,1.4,0.2,1.9,0.6
			c0.5,0.4,0.7,1,0.7,1.7v7h-2.2v-1.1c-0.1,0.4-0.3,0.7-0.5,0.9c-0.2,0.2-0.5,0.3-0.9,0.3C152.8,189.4,152.3,189.2,152.1,188.7z
			 M154.8,187.5c0.1-0.1,0.1-0.3,0.1-0.5v-2.6c-0.3,0.1-0.6,0.3-0.7,0.5c-0.2,0.2-0.2,0.5-0.2,0.8v1.2c0,0.5,0.2,0.8,0.5,0.8
			C154.6,187.7,154.7,187.7,154.8,187.5z"/>
		<path class="st21" d="M157.7,186.7l0-0.7h2.2l0,1.1c0,0.2,0,0.4,0.1,0.5c0.1,0.1,0.2,0.2,0.4,0.2c0.3,0,0.4-0.2,0.4-0.7
			c0-0.4-0.1-0.6-0.2-0.8c-0.1-0.2-0.4-0.4-0.7-0.6l-1.2-0.9c-0.4-0.3-0.7-0.6-0.9-1c-0.2-0.3-0.3-0.8-0.3-1.4
			c0-0.5,0.1-0.9,0.4-1.2c0.2-0.3,0.6-0.6,1-0.8c0.4-0.2,0.9-0.3,1.4-0.3c1.8,0,2.7,0.9,2.7,2.7v0.2h-2.3v-0.4c0-0.2,0-0.4-0.1-0.6
			c-0.1-0.2-0.2-0.2-0.4-0.2c-0.2,0-0.3,0-0.3,0.1c-0.1,0.1-0.1,0.2-0.1,0.4c0,0.3,0.1,0.6,0.4,0.8l1.4,1c0.5,0.4,0.9,0.8,1.1,1.2
			c0.3,0.4,0.4,1,0.4,1.6c0,0.9-0.2,1.5-0.7,2c-0.5,0.5-1.2,0.7-2,0.7C158.6,189.4,157.7,188.5,157.7,186.7z"/>
		<path class="st21" d="M104.8,193.6h2.3v2.6c0.2-0.7,0.7-1,1.3-1c0.6,0,1.1,0.2,1.4,0.6c0.3,0.4,0.5,0.9,0.5,1.6v7.1h-2.2v-7
			c0-0.2,0-0.4-0.1-0.5c-0.1-0.1-0.2-0.2-0.4-0.2c-0.2,0-0.3,0.1-0.4,0.2c-0.1,0.1-0.1,0.3-0.1,0.5v7h-2.3V193.6z"/>
		<path class="st21" d="M111.3,203.9c-0.3-0.5-0.4-1.2-0.4-2c0-0.7,0.1-1.3,0.3-1.7c0.2-0.4,0.5-0.7,0.8-0.9
			c0.3-0.2,0.8-0.4,1.5-0.6l0.6-0.2v0v-0.9c0-0.2,0-0.4-0.1-0.6c-0.1-0.1-0.2-0.2-0.3-0.2c-0.1,0-0.2,0.1-0.3,0.2
			c-0.1,0.1-0.1,0.3-0.1,0.4v0.6h-2.1v-0.3c0-0.9,0.2-1.6,0.6-1.9c0.4-0.4,1.1-0.6,2.1-0.6c0.8,0,1.4,0.2,1.9,0.6
			c0.5,0.4,0.7,1,0.7,1.7v7h-2.2v-1.1c-0.1,0.4-0.3,0.7-0.5,0.9c-0.2,0.2-0.5,0.3-0.9,0.3C112.1,204.6,111.6,204.3,111.3,203.9z
			 M114,202.7c0.1-0.1,0.1-0.3,0.1-0.5v-2.6c-0.3,0.1-0.6,0.3-0.7,0.5c-0.2,0.2-0.2,0.5-0.2,0.8v1.2c0,0.5,0.2,0.8,0.5,0.8
			C113.9,202.9,114,202.8,114,202.7z"/>
		<path class="st21" d="M117.8,203.8c-0.4-0.5-0.7-1.3-0.7-2.4v-2.8c0-0.8,0.1-1.4,0.3-1.9c0.2-0.5,0.5-0.9,0.9-1.1
			c0.4-0.3,1-0.4,1.7-0.4c0.8,0,1.4,0.2,1.9,0.6c0.5,0.4,0.7,1,0.7,1.7v1.4h-2.2v-1.3c0-0.2,0-0.4-0.1-0.6c-0.1-0.1-0.2-0.2-0.4-0.2
			c-0.4,0-0.5,0.3-0.5,0.8v4.5c0,0.2,0,0.4,0.1,0.5c0.1,0.1,0.2,0.2,0.4,0.2s0.3-0.1,0.4-0.2c0.1-0.1,0.1-0.3,0.1-0.6l0-1.6h2.2v1.6
			c0,0.8-0.2,1.4-0.7,1.8c-0.5,0.4-1.1,0.6-1.9,0.6C119,204.6,118.3,204.3,117.8,203.8z"/>
		<path class="st21" d="M124,203.8c-0.4-0.5-0.6-1.3-0.6-2.3v-3.7c0-0.8,0.2-1.5,0.7-1.9c0.5-0.4,1.2-0.7,2-0.7
			c1.8,0,2.7,0.9,2.7,2.6v0.7c0,0.7,0,1.2,0,1.6h-3.2v1.8c0,0.3,0,0.6,0.1,0.8c0.1,0.2,0.2,0.3,0.4,0.3c0.2,0,0.3-0.1,0.4-0.2
			c0.1-0.1,0.1-0.2,0.1-0.3c0-0.1,0-0.3,0-0.6v-0.9h2.2v0.5c0,1.1-0.2,1.9-0.6,2.4c-0.4,0.5-1.1,0.8-2.2,0.8
			C125.1,204.6,124.4,204.3,124,203.8z M126.6,199v-1.2c0-0.7-0.2-1-0.5-1c-0.4,0-0.6,0.3-0.6,1v1.2H126.6z"/>
		<path class="st21" d="M129.6,195.2h2.2v1c0.1-0.4,0.3-0.6,0.6-0.8c0.3-0.2,0.6-0.3,1-0.3v1.8c-0.3,0-0.7,0-1,0.1
			c-0.4,0.1-0.6,0.2-0.6,0.3v7.1h-2.2V195.2z"/>
		<path class="st21" d="M136.9,193.6h2.3v2.6c0.2-0.7,0.7-1,1.3-1c0.6,0,1.1,0.2,1.4,0.6c0.3,0.4,0.5,0.9,0.5,1.6v7.1h-2.2v-7
			c0-0.2,0-0.4-0.1-0.5c-0.1-0.1-0.2-0.2-0.4-0.2c-0.2,0-0.3,0.1-0.4,0.2s-0.1,0.3-0.1,0.5v7h-2.3V193.6z"/>
		<path class="st21" d="M143.2,201.7V198c0-0.9,0.2-1.6,0.7-2.1c0.5-0.5,1.2-0.8,2-0.8c0.9,0,1.5,0.3,2,0.8c0.5,0.5,0.7,1.2,0.7,2.1
			v3.7c0,1.9-0.9,2.9-2.8,2.9C144.1,204.6,143.2,203.6,143.2,201.7z M146.3,202.7c0.1-0.1,0.1-0.3,0.1-0.5v-4.5
			c0-0.5-0.2-0.8-0.5-0.8c-0.3,0-0.5,0.3-0.5,0.8v4.5c0,0.2,0,0.4,0.1,0.5c0.1,0.1,0.2,0.2,0.4,0.2
			C146.1,202.9,146.2,202.8,146.3,202.7z"/>
		<path class="st21" d="M149.3,204.6h1.1c0.2,0,0.2-0.1,0.2-0.2c0-0.1,0-0.1,0-0.1l-1.4-9h2.1l0.4,4.5l0.2,2.3l0.2-2.3l0.5-4.5h2.1
			L153,205c-0.1,0.4-0.2,0.6-0.4,0.8c-0.2,0.2-0.5,0.3-0.9,0.3h-2.5V204.6z"/>
		<path class="st21" d="M155.7,199.1c0.8,0,1.3-0.1,1.7-0.2c0.4-0.1,0.7-0.4,0.9-0.7c0.2-0.4,0.3-0.9,0.3-1.7c0-0.3,0-0.6-0.1-0.7
			c-0.1-0.2-0.2-0.3-0.5-0.3c-0.2,0-0.4,0.1-0.5,0.3s-0.1,0.5-0.1,0.8v0.9h-2.3V196c0-0.8,0.3-1.4,0.8-1.8c0.5-0.4,1.2-0.6,2.1-0.6
			c1.1,0,1.8,0.3,2.2,0.8c0.4,0.6,0.7,1.4,0.7,2.5c0,1.1-0.3,2-0.8,2.7c-0.5,0.7-1.3,1-2.4,1v1h-2.1V199.1z M155.6,204.5v-1.8h2.2
			v1.8H155.6z"/>
	</g>
	<g>
		<path class="st21" d="M95.2,273c-0.5-0.5-0.7-1.2-0.7-2v-5c0-1.1,0.2-1.9,0.6-2.4c0.4-0.5,1.1-0.8,2-0.8c0.8,0,1.4,0.2,1.9,0.7
			c0.5,0.4,0.7,1.1,0.7,1.9v1.9h-2.2v-1.6c0-0.3,0-0.5-0.1-0.6c-0.1-0.1-0.2-0.2-0.4-0.2c-0.2,0-0.3,0.1-0.4,0.2
			c-0.1,0.1-0.1,0.3-0.1,0.6v5.4c0,0.3,0,0.5,0.1,0.6c0.1,0.1,0.2,0.2,0.4,0.2c0.3,0,0.5-0.3,0.5-0.8v-2h2.2v2
			c0,1.8-0.9,2.7-2.7,2.7C96.3,273.8,95.7,273.5,95.2,273z"/>
		<path class="st21" d="M100.5,264.4h2.2v1c0.1-0.4,0.3-0.6,0.6-0.8c0.3-0.2,0.6-0.3,1-0.3v1.8c-0.3,0-0.7,0-1,0.1
			c-0.4,0.1-0.6,0.2-0.6,0.3v7.1h-2.2V264.4z"/>
		<path class="st21" d="M105.4,273c-0.4-0.5-0.6-1.3-0.6-2.3v-3.7c0-0.8,0.2-1.5,0.7-1.9c0.5-0.4,1.2-0.7,2-0.7
			c1.8,0,2.7,0.9,2.7,2.6v0.7c0,0.7,0,1.2,0,1.6H107v1.8c0,0.3,0,0.6,0.1,0.8c0.1,0.2,0.2,0.3,0.4,0.3c0.2,0,0.3-0.1,0.4-0.2
			c0.1-0.1,0.1-0.2,0.1-0.3c0-0.1,0-0.3,0-0.6v-0.9h2.2v0.5c0,1.1-0.2,1.9-0.6,2.4c-0.4,0.5-1.1,0.8-2.2,0.8
			C106.5,273.8,105.8,273.5,105.4,273z M108,268.1V267c0-0.7-0.2-1-0.5-1c-0.4,0-0.6,0.3-0.6,1v1.2H108z"/>
		<path class="st21" d="M111.2,273c-0.3-0.5-0.4-1.2-0.4-2c0-0.7,0.1-1.3,0.3-1.7c0.2-0.4,0.5-0.7,0.8-0.9c0.3-0.2,0.8-0.4,1.5-0.6
			l0.6-0.2v0v-0.9c0-0.2,0-0.4-0.1-0.6c-0.1-0.1-0.2-0.2-0.3-0.2c-0.1,0-0.2,0.1-0.3,0.2c-0.1,0.1-0.1,0.3-0.1,0.4v0.6h-2.1v-0.3
			c0-0.9,0.2-1.6,0.6-1.9c0.4-0.4,1.1-0.6,2.1-0.6c0.8,0,1.4,0.2,1.9,0.6c0.5,0.4,0.7,1,0.7,1.7v7H114v-1.1
			c-0.1,0.4-0.3,0.7-0.5,0.9c-0.2,0.2-0.5,0.3-0.9,0.3C112,273.8,111.5,273.5,111.2,273z M113.9,271.8c0.1-0.1,0.1-0.3,0.1-0.5v-2.6
			c-0.3,0.1-0.6,0.3-0.7,0.5c-0.2,0.2-0.2,0.5-0.2,0.8v1.2c0,0.5,0.2,0.8,0.5,0.8C113.7,272,113.8,272,113.9,271.8z"/>
		<path class="st21" d="M117.1,264.4h2.2v1c0.1-0.4,0.3-0.6,0.6-0.8c0.3-0.2,0.6-0.3,1-0.3v1.8c-0.3,0-0.7,0-1,0.1
			c-0.4,0.1-0.6,0.2-0.6,0.3v7.1h-2.2V264.4z"/>
		<path class="st21" d="M124.7,273.1c-0.3-0.4-0.4-1-0.4-1.8v-6.9h2.2v6.4c0,0.1,0,0.2,0,0.5c0,0.3,0,0.4,0.1,0.5
			c0.1,0.1,0.2,0.2,0.4,0.2c0.2,0,0.4-0.1,0.4-0.3c0.1-0.2,0.1-0.5,0.1-0.8v-0.1l0-6.4h2.2v9.2h-2.2v-1c-0.2,0.4-0.3,0.7-0.5,0.8
			c-0.2,0.2-0.5,0.3-0.9,0.3C125.5,273.8,125,273.6,124.7,273.1z"/>
		<path class="st21" d="M130.7,264.4h2.2v1.2c0.1-0.4,0.3-0.7,0.5-0.9c0.2-0.2,0.5-0.4,0.9-0.4c0.6,0,1.1,0.2,1.4,0.6
			c0.3,0.4,0.4,0.9,0.4,1.6v7.1h-2.2v-6.9c0-0.2,0-0.4-0.1-0.5c-0.1-0.1-0.2-0.2-0.4-0.2c-0.2,0-0.4,0.1-0.4,0.3
			c-0.1,0.2-0.1,0.5-0.1,0.8v6.5h-2.2V264.4z"/>
		<path class="st21" d="M101.8,279.6h2.2v1.2c0.1-0.4,0.3-0.7,0.5-0.9c0.2-0.2,0.5-0.4,0.9-0.4c0.6,0,1.1,0.2,1.4,0.6
			c0.3,0.4,0.4,0.9,0.4,1.6v7.1h-2.2v-6.9c0-0.2,0-0.4-0.1-0.5c-0.1-0.1-0.2-0.2-0.4-0.2c-0.2,0-0.4,0.1-0.4,0.3
			c-0.1,0.2-0.1,0.5-0.1,0.8v6.5h-2.2V279.6z"/>
		<path class="st21" d="M108.5,288.3c-0.3-0.4-0.4-1-0.4-1.8v-6.9h2.2v6.4c0,0.1,0,0.2,0,0.5c0,0.3,0,0.4,0.1,0.5
			c0.1,0.1,0.2,0.2,0.4,0.2c0.2,0,0.4-0.1,0.4-0.3c0.1-0.2,0.1-0.5,0.1-0.8V286l0-6.4h2.2v9.2h-2.2v-1c-0.2,0.4-0.3,0.7-0.5,0.8
			c-0.2,0.2-0.5,0.3-0.9,0.3C109.2,288.9,108.7,288.7,108.5,288.3z"/>
		<path class="st21" d="M114.9,288.1c-0.4-0.5-0.6-1.3-0.6-2.3v-3.7c0-0.8,0.2-1.5,0.7-1.9c0.5-0.4,1.2-0.7,2-0.7
			c1.8,0,2.7,0.9,2.7,2.6v0.7c0,0.7,0,1.2,0,1.6h-3.2v1.8c0,0.3,0,0.6,0.1,0.8c0.1,0.2,0.2,0.3,0.4,0.3c0.2,0,0.3-0.1,0.4-0.2
			c0.1-0.1,0.1-0.2,0.1-0.3c0-0.1,0-0.3,0-0.6v-0.9h2.2v0.5c0,1.1-0.2,1.9-0.6,2.4c-0.4,0.5-1.1,0.8-2.2,0.8
			C116,288.9,115.3,288.6,114.9,288.1z M117.6,283.3v-1.2c0-0.7-0.2-1-0.5-1c-0.4,0-0.6,0.3-0.6,1v1.2H117.6z"/>
		<path class="st21" d="M121.7,288.8l-1.5-9.2h2.2l0.5,4.7l0.1,1.5l0.1-1.5l0.5-4.7h2.2l-1.5,9.2H121.7z"/>
		<path class="st21" d="M126.3,286v-3.7c0-0.9,0.2-1.6,0.7-2.1c0.5-0.5,1.2-0.8,2-0.8c0.9,0,1.5,0.3,2,0.8c0.5,0.5,0.7,1.2,0.7,2.1
			v3.7c0,1.9-0.9,2.9-2.8,2.9C127.2,288.9,126.3,287.9,126.3,286z M129.4,287c0.1-0.1,0.1-0.3,0.1-0.5V282c0-0.5-0.2-0.8-0.5-0.8
			c-0.3,0-0.5,0.3-0.5,0.8v4.5c0,0.2,0,0.4,0.1,0.5c0.1,0.1,0.2,0.2,0.4,0.2C129.2,287.2,129.4,287.1,129.4,287z"/>
		<path class="st21" d="M95.3,303.3c-0.4-0.5-0.7-1.3-0.7-2.4v-1.1h2.1v1.3c0,0.5,0.2,0.8,0.5,0.8c0.2,0,0.3-0.1,0.4-0.2
			c0.1-0.1,0.1-0.3,0.1-0.6c0-0.4,0-0.6-0.1-0.9c-0.1-0.2-0.2-0.4-0.3-0.6c-0.1-0.2-0.4-0.4-0.7-0.7l-0.9-0.9
			c-0.7-0.7-1.1-1.5-1.1-2.3c0-0.9,0.2-1.6,0.6-2.1c0.4-0.5,1-0.7,1.9-0.7c1,0,1.7,0.3,2.1,0.8c0.4,0.5,0.6,1.3,0.6,2.4h-2.2l0-0.7
			c0-0.1,0-0.3-0.1-0.3c-0.1-0.1-0.2-0.1-0.3-0.1c-0.2,0-0.3,0-0.4,0.1c-0.1,0.1-0.1,0.2-0.1,0.4c0,0.4,0.2,0.7,0.6,1.1l1.3,1.2
			c0.3,0.3,0.5,0.6,0.7,0.8c0.2,0.3,0.3,0.6,0.5,0.9c0.1,0.3,0.2,0.8,0.2,1.2c0,1.1-0.2,1.9-0.6,2.4c-0.4,0.6-1,0.8-1.9,0.8
			C96.4,304,95.7,303.8,95.3,303.3z"/>
		<path class="st21" d="M100.6,294.1v-1.5h2.2v1.5H100.6z M100.6,303.9v-9.2h2.2v9.2H100.6z"/>
		<path class="st21" d="M103.7,294.7h2.2v1.2c0.1-0.4,0.3-0.7,0.5-0.9c0.2-0.2,0.5-0.4,0.9-0.4c0.6,0,1.1,0.2,1.4,0.6
			c0.3,0.4,0.4,0.9,0.4,1.6v7.1h-2.2V297c0-0.2,0-0.4-0.1-0.5c-0.1-0.1-0.2-0.2-0.4-0.2c-0.2,0-0.4,0.1-0.4,0.3
			c-0.1,0.2-0.1,0.5-0.1,0.8v6.5h-2.2V294.7z"/>
		<path class="st21" d="M110,294.1v-1.5h2.2v1.5H110z M110,303.9v-9.2h2.2v9.2H110z"/>
		<path class="st21" d="M113.6,303.3c-0.4-0.5-0.6-1.3-0.6-2.3v-3.7c0-0.8,0.2-1.5,0.7-1.9c0.5-0.4,1.2-0.7,2-0.7
			c1.8,0,2.7,0.9,2.7,2.6v0.7c0,0.7,0,1.2,0,1.6h-3.2v1.8c0,0.3,0,0.6,0.1,0.8c0.1,0.2,0.2,0.3,0.4,0.3c0.2,0,0.3-0.1,0.4-0.2
			c0.1-0.1,0.1-0.2,0.1-0.3c0-0.1,0-0.3,0-0.6v-0.9h2.2v0.5c0,1.1-0.2,1.9-0.6,2.4c-0.4,0.5-1.1,0.8-2.2,0.8
			C114.7,304,114,303.8,113.6,303.3z M116.2,298.4v-1.2c0-0.7-0.2-1-0.5-1c-0.4,0-0.6,0.3-0.6,1v1.2H116.2z"/>
		<path class="st21" d="M119,301.3l0-0.7h2.2l0,1.1c0,0.2,0,0.4,0.1,0.5c0.1,0.1,0.2,0.2,0.4,0.2c0.3,0,0.4-0.2,0.4-0.7
			c0-0.4-0.1-0.6-0.2-0.8c-0.1-0.2-0.4-0.4-0.7-0.6l-1.2-0.9c-0.4-0.3-0.7-0.6-0.9-1c-0.2-0.3-0.3-0.8-0.3-1.4
			c0-0.5,0.1-0.9,0.4-1.2c0.2-0.3,0.6-0.6,1-0.8c0.4-0.2,0.9-0.3,1.4-0.3c1.8,0,2.7,0.9,2.7,2.7v0.2h-2.3v-0.4c0-0.2,0-0.4-0.1-0.6
			c-0.1-0.2-0.2-0.2-0.4-0.2c-0.2,0-0.3,0-0.3,0.1c-0.1,0.1-0.1,0.2-0.1,0.4c0,0.3,0.1,0.6,0.4,0.8l1.4,1c0.5,0.4,0.9,0.8,1.1,1.2
			c0.3,0.4,0.4,1,0.4,1.6c0,0.9-0.2,1.5-0.7,2c-0.5,0.5-1.2,0.7-2,0.7C119.9,304,119,303.1,119,301.3z"/>
		<path class="st21" d="M125.9,303.7c-0.2-0.2-0.3-0.6-0.3-1.2v-5.8h-0.6v-1.7h0.6v-2h2.1v2h0.6v1.7h-0.6v5.2c0,0.2,0,0.3,0,0.4
			c0,0.1,0.1,0.1,0.2,0.1c0.1,0,0.2,0,0.2,0c0.1,0,0.1,0,0.2,0v1.5c-0.1,0-0.3,0.1-0.5,0.1c-0.2,0-0.5,0.1-0.7,0.1
			C126.5,304,126.1,303.9,125.9,303.7z"/>
		<path class="st21" d="M129,294.7h2.2v1c0.1-0.4,0.3-0.6,0.6-0.8c0.3-0.2,0.6-0.3,1-0.3v1.8c-0.3,0-0.7,0-1,0.1
			c-0.4,0.1-0.6,0.2-0.6,0.3v7.1H129V294.7z"/>
		<path class="st21" d="M133.3,301.2v-3.7c0-0.9,0.2-1.6,0.7-2.1c0.5-0.5,1.2-0.8,2-0.8s1.5,0.3,2,0.8c0.5,0.5,0.7,1.2,0.7,2.1v3.7
			c0,1.9-0.9,2.9-2.8,2.9C134.2,304,133.3,303.1,133.3,301.2z M136.4,302.1c0.1-0.1,0.1-0.3,0.1-0.5v-4.5c0-0.5-0.2-0.8-0.5-0.8
			c-0.3,0-0.5,0.3-0.5,0.8v4.5c0,0.2,0,0.4,0.1,0.5c0.1,0.1,0.2,0.2,0.4,0.2C136.2,302.3,136.4,302.3,136.4,302.1z"/>
	</g>
	<g>
		<path class="st21" d="M230.1,217.3v-10.8h2.1v10.8H230.1z"/>
		<path class="st21" d="M233,208h2.2v1c0.1-0.4,0.3-0.6,0.6-0.8c0.3-0.2,0.6-0.3,1-0.3v1.8c-0.3,0-0.7,0-1,0.1
			c-0.4,0.1-0.6,0.2-0.6,0.3v7.1H233V208z"/>
		<path class="st21" d="M240.5,216.6c-0.3-0.5-0.4-1.2-0.4-2c0-0.7,0.1-1.3,0.3-1.7c0.2-0.4,0.5-0.7,0.8-0.9
			c0.3-0.2,0.8-0.4,1.5-0.6l0.6-0.2v0v-0.9c0-0.2,0-0.4-0.1-0.6c-0.1-0.1-0.2-0.2-0.3-0.2c-0.1,0-0.2,0.1-0.3,0.2
			c-0.1,0.1-0.1,0.3-0.1,0.4v0.6h-2.1v-0.3c0-0.9,0.2-1.6,0.6-1.9s1.1-0.6,2.1-0.6c0.8,0,1.4,0.2,1.9,0.6c0.5,0.4,0.7,1,0.7,1.7v7
			h-2.2v-1.1c-0.1,0.4-0.3,0.7-0.5,0.9c-0.2,0.2-0.5,0.3-0.9,0.3C241.3,217.4,240.8,217.1,240.5,216.6z M243.2,215.4
			c0.1-0.1,0.1-0.3,0.1-0.5v-2.6c-0.3,0.1-0.6,0.3-0.7,0.5c-0.2,0.2-0.2,0.5-0.2,0.8v1.2c0,0.5,0.2,0.8,0.5,0.8
			C243,215.6,243.2,215.6,243.2,215.4z"/>
		<path class="st21" d="M249.4,217.3v-10.9h2.2v10.9H249.4z"/>
		<path class="st21" d="M252.7,216.6c-0.3-0.5-0.4-1.2-0.4-2c0-0.7,0.1-1.3,0.3-1.7c0.2-0.4,0.5-0.7,0.8-0.9
			c0.3-0.2,0.8-0.4,1.5-0.6l0.6-0.2v0v-0.9c0-0.2,0-0.4-0.1-0.6s-0.2-0.2-0.3-0.2c-0.1,0-0.2,0.1-0.3,0.2c-0.1,0.1-0.1,0.3-0.1,0.4
			v0.6h-2.1v-0.3c0-0.9,0.2-1.6,0.6-1.9c0.4-0.4,1.1-0.6,2.1-0.6c0.8,0,1.4,0.2,1.9,0.6c0.5,0.4,0.7,1,0.7,1.7v7h-2.2v-1.1
			c-0.1,0.4-0.3,0.7-0.5,0.9c-0.2,0.2-0.5,0.3-0.9,0.3C253.5,217.4,253,217.1,252.7,216.6z M255.4,215.4c0.1-0.1,0.1-0.3,0.1-0.5
			v-2.6c-0.3,0.1-0.6,0.3-0.7,0.5c-0.2,0.2-0.2,0.5-0.2,0.8v1.2c0,0.5,0.2,0.8,0.5,0.8C255.2,215.6,255.3,215.6,255.4,215.4z"/>
		<path class="st21" d="M226.1,221.6h2.9c0.9,0,1.5,0.3,1.9,0.8c0.4,0.6,0.6,1.4,0.6,2.5c0,1.1-0.2,1.9-0.5,2.4
			c-0.3,0.5-0.9,0.8-1.8,0.8h-0.9v4.3h-2.1V221.6z M228.3,226.2c0.3,0,0.5,0,0.6-0.1c0.1-0.1,0.2-0.2,0.2-0.4c0-0.2,0.1-0.4,0.1-0.8
			c0-0.5-0.1-0.8-0.2-1s-0.3-0.3-0.6-0.3h-0.2v2.6H228.3z"/>
		<path class="st21" d="M232,222.5V221h2.2v1.5H232z M232,232.4v-9.2h2.2v9.2H232z"/>
		<path class="st21" d="M234.8,232.4V231l2.3-6.1h-2.2v-1.7h4.5v1.5l-2.2,6.1h2.2v1.7H234.8z"/>
		<path class="st21" d="M239.7,232.4V231l2.3-6.1h-2.2v-1.7h4.5v1.5l-2.2,6.1h2.2v1.7H239.7z"/>
		<path class="st21" d="M245,231.8c-0.3-0.5-0.4-1.2-0.4-2c0-0.7,0.1-1.3,0.3-1.7c0.2-0.4,0.5-0.7,0.8-0.9c0.3-0.2,0.8-0.4,1.5-0.6
			l0.6-0.2v0v-0.9c0-0.2,0-0.4-0.1-0.6s-0.2-0.2-0.3-0.2c-0.1,0-0.2,0.1-0.3,0.2c-0.1,0.1-0.1,0.3-0.1,0.4v0.6h-2.1v-0.3
			c0-0.9,0.2-1.6,0.6-1.9s1.1-0.6,2.1-0.6c0.8,0,1.4,0.2,1.9,0.6c0.5,0.4,0.7,1,0.7,1.7v7h-2.2v-1.1c-0.1,0.4-0.3,0.7-0.5,0.9
			c-0.2,0.2-0.5,0.3-0.9,0.3C245.8,232.5,245.3,232.3,245,231.8z M247.7,230.6c0.1-0.1,0.1-0.3,0.1-0.5v-2.6
			c-0.3,0.1-0.6,0.3-0.7,0.5c-0.2,0.2-0.2,0.5-0.2,0.8v1.2c0,0.5,0.2,0.8,0.5,0.8C247.5,230.8,247.6,230.7,247.7,230.6z"/>
		<path class="st21" d="M250.9,223.2h2.2v1c0.1-0.4,0.3-0.6,0.6-0.8c0.3-0.2,0.6-0.3,1-0.3v1.8c-0.3,0-0.7,0-1,0.1
			c-0.4,0.1-0.6,0.2-0.6,0.3v7.1h-2.2V223.2z"/>
		<path class="st21" d="M255.2,223.2h2.2v1c0.1-0.4,0.3-0.6,0.6-0.8c0.3-0.2,0.6-0.3,1-0.3v1.8c-0.3,0-0.7,0-1,0.1
			c-0.4,0.1-0.6,0.2-0.6,0.3v7.1h-2.2V223.2z"/>
		<path class="st21" d="M259.8,231.8c-0.3-0.5-0.4-1.2-0.4-2c0-0.7,0.1-1.3,0.3-1.7c0.2-0.4,0.5-0.7,0.8-0.9
			c0.3-0.2,0.8-0.4,1.5-0.6l0.6-0.2v0v-0.9c0-0.2,0-0.4-0.1-0.6s-0.2-0.2-0.3-0.2c-0.1,0-0.2,0.1-0.3,0.2c-0.1,0.1-0.1,0.3-0.1,0.4
			v0.6h-2.1v-0.3c0-0.9,0.2-1.6,0.6-1.9s1.1-0.6,2.1-0.6c0.8,0,1.4,0.2,1.9,0.6c0.5,0.4,0.7,1,0.7,1.7v7h-2.2v-1.1
			c-0.1,0.4-0.3,0.7-0.5,0.9c-0.2,0.2-0.5,0.3-0.9,0.3C260.5,232.5,260,232.3,259.8,231.8z M262.5,230.6c0.1-0.1,0.1-0.3,0.1-0.5
			v-2.6c-0.3,0.1-0.6,0.3-0.7,0.5c-0.2,0.2-0.2,0.5-0.2,0.8v1.2c0,0.5,0.2,0.8,0.5,0.8C262.3,230.8,262.4,230.7,262.5,230.6z"/>
	</g>
	<g>
		<path class="st48" d="M226.1,388.5v-12.2h3.8v1.9h-1.4v8.3h1.4v1.9H226.1z"/>
		<path class="st48" d="M234.5,387.8c-0.5-0.5-0.7-1.4-0.7-2.6v-1.2h2.4v1.5c0,0.6,0.2,0.9,0.6,0.9c0.2,0,0.4-0.1,0.5-0.2
			c0.1-0.1,0.1-0.3,0.1-0.6c0-0.4,0-0.7-0.1-1c-0.1-0.3-0.2-0.5-0.4-0.7s-0.4-0.4-0.8-0.8l-1-1c-0.8-0.8-1.2-1.7-1.2-2.6
			c0-1,0.2-1.8,0.7-2.4c0.5-0.5,1.2-0.8,2.1-0.8c1.1,0,1.9,0.3,2.4,0.9c0.5,0.6,0.7,1.5,0.7,2.7h-2.5l0-0.8c0-0.2,0-0.3-0.1-0.4
			c-0.1-0.1-0.2-0.1-0.4-0.1c-0.2,0-0.3,0.1-0.4,0.2c-0.1,0.1-0.1,0.2-0.1,0.4c0,0.4,0.2,0.8,0.7,1.2l1.4,1.4
			c0.3,0.3,0.6,0.6,0.8,0.9c0.2,0.3,0.4,0.6,0.5,1c0.1,0.4,0.2,0.9,0.2,1.4c0,1.2-0.2,2.1-0.7,2.7s-1.2,0.9-2.2,0.9
			C235.8,388.6,235,388.3,234.5,387.8z"/>
		<path class="st48" d="M240.8,387.8c-0.3-0.5-0.4-1.3-0.4-2.3c0-0.8,0.1-1.4,0.3-1.9c0.2-0.4,0.5-0.8,0.9-1c0.4-0.2,1-0.4,1.7-0.7
			l0.7-0.2v0v-1c0-0.3-0.1-0.5-0.2-0.6s-0.2-0.2-0.4-0.2c-0.1,0-0.2,0.1-0.3,0.2c-0.1,0.1-0.1,0.3-0.1,0.5v0.6h-2.4v-0.3
			c0-1,0.2-1.7,0.7-2.2s1.3-0.7,2.3-0.7c0.9,0,1.6,0.2,2.1,0.7s0.8,1.1,0.8,1.9v7.9H244v-1.2c-0.1,0.4-0.3,0.8-0.6,1
			c-0.3,0.2-0.6,0.4-1,0.4C241.6,388.6,241.1,388.3,240.8,387.8z M243.8,386.4c0.1-0.2,0.1-0.3,0.1-0.6V383
			c-0.4,0.1-0.6,0.3-0.8,0.5s-0.3,0.5-0.3,0.9v1.3c0,0.6,0.2,0.9,0.6,0.9C243.6,386.7,243.7,386.6,243.8,386.4z"/>
		<path class="st48" d="M247.4,388.5v-12.2h2.5v12.2H247.4z"/>
		<path class="st48" d="M250.9,377.4v-1.7h2.5v1.7H250.9z M250.9,388.5v-10.4h2.5v10.4H250.9z"/>
		<path class="st48" d="M254.3,378.1h2.5v1.1c0.1-0.4,0.3-0.7,0.6-0.9c0.3-0.2,0.7-0.3,1.1-0.3v2.1c-0.3,0-0.7,0-1.2,0.1
			c-0.4,0.1-0.6,0.2-0.6,0.3v7.9h-2.5V378.1z"/>
		<path class="st48" d="M262.2,388.5v-1.9h1.4v-8.3h-1.4v-1.9h3.8v12.2H262.2z"/>
	</g>
</g>
</svg>
