<?xml version="1.0" encoding="utf-8"?>
<!-- Generator: Adobe Illustrator 16.0.0, SVG Export Plug-In . SVG Version: 6.00 Build 0)  -->
<!DOCTYPE svg PUBLIC "-//W3C//DTD SVG 1.1//EN" "http://www.w3.org/Graphics/SVG/1.1/DTD/svg11.dtd">
<svg version="1.1" id="Capa_1" xmlns="http://www.w3.org/2000/svg" xmlns:xlink="http://www.w3.org/1999/xlink" x="0px" y="0px"
	 width="502px" height="93.5px" viewBox="-65.521 84.146 502 93.5" enable-background="new -65.521 84.146 502 93.5"
	 xml:space="preserve">
<path fill="#DADADA" d="M-129.725,271.212c0,0,1.543,2.972,2.244,4.309c-7.893,3.786-15.133,6.013-22.463,6.685v-24.9
	l-20.781,22.783c-4.078-1.123-8.34-2.625-12.91-4.565c0.537-1.022,1.965-3.754,1.965-3.754h-12.213l7.581,8.763
	c0,0,1.505-2.395,2.245-3.341c10.929,5.29,20.518,7.315,29.201,7.289v26.78l10.107-8.345l-1.404-1.391l-3.787,3.34v-20.633
	c8.637-0.809,16.395-3.569,23.726-7.041c0.538,0.953,1.963,3.478,1.963,3.478l6.601-9.456H-129.725L-129.725,271.212z
	 M-167.291,280.951l12.433-14.188v15.664C-158.877,282.409-162.987,281.912-167.291,280.951z"/>
<g>
	<path d="M-416.925,366.165l-11.789-3.89l-0.077-1.67l11.358-5.266l0.08,1.747l-3.442,1.501l0.229,4.858l3.564,1.102
		L-416.925,366.165z M-421.833,363.069l-0.188-3.943l-3.155,1.362c-0.953,0.421-1.743,0.732-2.372,0.948
		c0.756,0.112,1.512,0.287,2.254,0.52L-421.833,363.069z"/>
	<path d="M-420.783,351.979l-0.2-1.405c0.565-0.069,1.001-0.282,1.309-0.637c0.305-0.358,0.465-0.859,0.478-1.507
		c0.012-0.656-0.115-1.143-0.379-1.462c-0.261-0.321-0.569-0.483-0.928-0.488c-0.324-0.006-0.575,0.128-0.764,0.398
		c-0.131,0.191-0.302,0.674-0.51,1.45c-0.282,1.042-0.52,1.763-0.72,2.162c-0.199,0.398-0.472,0.7-0.816,0.904
		c-0.342,0.199-0.721,0.297-1.13,0.293c-0.379-0.008-0.721-0.098-1.039-0.277c-0.314-0.175-0.575-0.415-0.782-0.713
		c-0.16-0.224-0.291-0.527-0.402-0.912c-0.104-0.383-0.153-0.794-0.147-1.233c0.012-0.658,0.116-1.234,0.311-1.73
		c0.2-0.495,0.46-0.857,0.792-1.092c0.326-0.229,0.764-0.386,1.305-0.468l0.165,1.392c-0.43,0.057-0.774,0.237-1.018,0.536
		c-0.25,0.299-0.375,0.725-0.387,1.285c-0.013,0.653,0.089,1.119,0.304,1.406c0.212,0.285,0.46,0.43,0.752,0.435
		c0.183,0.002,0.35-0.054,0.498-0.165c0.157-0.116,0.286-0.296,0.392-0.544c0.055-0.143,0.185-0.56,0.386-1.257
		c0.286-1.004,0.52-1.703,0.695-2.099c0.179-0.392,0.434-0.698,0.765-0.919c0.329-0.22,0.738-0.326,1.224-0.317
		c0.473,0.009,0.915,0.153,1.334,0.437c0.413,0.284,0.73,0.688,0.951,1.213c0.221,0.525,0.323,1.118,0.314,1.777
		c-0.02,1.09-0.261,1.918-0.722,2.48C-419.212,351.481-419.89,351.838-420.783,351.979z"/>
	<path d="M-420.117,334.218l0.261-1.452c0.846,0.274,1.495,0.737,1.935,1.389c0.447,0.648,0.64,1.463,0.588,2.437
		c-0.063,1.224-0.486,2.177-1.279,2.858c-0.794,0.678-1.87,0.982-3.237,0.916c-1.412-0.075-2.485-0.492-3.231-1.26
		c-0.741-0.766-1.084-1.727-1.026-2.882c0.058-1.124,0.488-2.019,1.287-2.69c0.8-0.672,1.895-0.973,3.279-0.901
		c0.086,0.004,0.211,0.017,0.38,0.026l-0.317,6.255c0.924-0.006,1.643-0.231,2.158-0.675c0.511-0.445,0.786-1.018,0.822-1.717
		c0.029-0.521-0.09-0.973-0.346-1.359C-419.1,334.781-419.525,334.467-420.117,334.218z M-422.644,338.777l0.237-4.691
		c-0.71,0.028-1.249,0.18-1.618,0.457c-0.573,0.43-0.874,1.004-0.913,1.725c-0.034,0.654,0.158,1.213,0.571,1.683
		C-423.947,338.416-423.376,338.69-422.644,338.777z"/>
	<path d="M-418.971,328.426l0.121-1.414c0.565,0.057,1.041-0.052,1.42-0.33c0.375-0.279,0.644-0.734,0.8-1.365
		c0.155-0.633,0.144-1.134-0.04-1.508c-0.187-0.37-0.452-0.598-0.8-0.683c-0.311-0.077-0.593-0.005-0.836,0.219
		c-0.169,0.157-0.443,0.589-0.817,1.299c-0.507,0.953-0.901,1.604-1.186,1.95c-0.285,0.343-0.617,0.574-0.994,0.698
		c-0.384,0.12-0.773,0.129-1.171,0.03c-0.364-0.09-0.678-0.256-0.947-0.498c-0.269-0.244-0.473-0.531-0.604-0.871
		c-0.107-0.255-0.169-0.58-0.188-0.979c-0.019-0.398,0.022-0.811,0.128-1.236c0.161-0.641,0.393-1.176,0.694-1.617
		c0.3-0.439,0.641-0.734,1.01-0.889c0.375-0.152,0.834-0.209,1.381-0.167l-0.147,1.393c-0.438-0.042-0.808,0.06-1.118,0.294
		c-0.306,0.238-0.525,0.627-0.657,1.164c-0.156,0.639-0.165,1.119-0.024,1.442c0.144,0.325,0.36,0.521,0.64,0.591
		c0.18,0.043,0.357,0.026,0.528-0.048c0.175-0.077,0.344-0.226,0.498-0.443c0.085-0.127,0.305-0.504,0.655-1.136
		c0.507-0.918,0.887-1.549,1.147-1.891c0.263-0.346,0.575-0.589,0.95-0.729c0.372-0.141,0.793-0.154,1.265-0.037
		c0.46,0.113,0.86,0.354,1.2,0.724c0.338,0.368,0.561,0.832,0.657,1.393c0.099,0.565,0.067,1.164-0.089,1.802
		c-0.261,1.062-0.677,1.813-1.26,2.26C-417.33,328.293-418.07,328.484-418.971,328.426z"/>
	<path d="M-418.616,316.718c-1.393-0.688-2.233-1.584-2.523-2.692c-0.237-0.923-0.129-1.848,0.332-2.779
		c0.511-1.035,1.265-1.713,2.27-2.035c1.001-0.32,2.103-0.187,3.299,0.406c0.971,0.477,1.66,1,2.075,1.565
		c0.408,0.565,0.631,1.2,0.665,1.905c0.034,0.707-0.112,1.391-0.436,2.044c-0.523,1.053-1.279,1.739-2.278,2.056
		C-416.209,317.502-417.34,317.348-418.616,316.718z M-417.962,315.404c0.964,0.478,1.786,0.623,2.477,0.439
		c0.687-0.181,1.185-0.59,1.502-1.225c0.311-0.633,0.332-1.277,0.054-1.936c-0.272-0.657-0.905-1.23-1.891-1.718
		c-0.93-0.464-1.739-0.599-2.429-0.413c-0.69,0.186-1.184,0.59-1.498,1.215c-0.311,0.641-0.335,1.285-0.066,1.939
		C-419.544,314.364-418.925,314.93-417.962,315.404z"/>
	<path d="M-409.886,306.482l-7.642-3.509l0.534-1.161l1.159,0.529c-0.402-0.546-0.633-0.984-0.69-1.313
		c-0.054-0.337-0.016-0.649,0.125-0.953c0.205-0.44,0.542-0.819,1.024-1.145l0.997,0.999c-0.332,0.23-0.571,0.504-0.718,0.823
		c-0.129,0.281-0.164,0.577-0.098,0.88c0.069,0.303,0.233,0.575,0.485,0.81c0.398,0.354,0.868,0.659,1.416,0.912l4.001,1.833
		L-409.886,306.482z"/>
	<path d="M-414.398,294.327l-1.34-2.055l0.971-1.604l0.987,2.644L-414.398,294.327z M-406.084,298.826l-7.188-4.367l0.738-1.215
		l7.186,4.368L-406.084,298.826z"/>
	<path d="M-400.494,287.792c0.004,0.694-0.082,1.286-0.259,1.776c-0.175,0.492-0.445,0.951-0.803,1.375
		c-0.601,0.702-1.232,1.098-1.896,1.182c-0.661,0.084-1.262-0.1-1.797-0.557c-0.311-0.266-0.538-0.582-0.673-0.945
		c-0.136-0.362-0.188-0.725-0.148-1.088c0.04-0.365,0.14-0.728,0.307-1.084c0.127-0.262,0.344-0.628,0.654-1.102
		c0.643-0.965,1.066-1.713,1.272-2.25c-0.145-0.129-0.236-0.213-0.278-0.247c-0.442-0.376-0.838-0.536-1.188-0.484
		c-0.483,0.067-0.957,0.376-1.42,0.92c-0.434,0.511-0.663,0.964-0.694,1.357c-0.028,0.392,0.136,0.84,0.486,1.343l-1.041,0.936
		c-0.376-0.483-0.605-0.955-0.694-1.411c-0.094-0.461-0.039-0.957,0.167-1.508c0.205-0.546,0.542-1.095,1.009-1.646
		c0.465-0.545,0.905-0.932,1.323-1.165c0.421-0.229,0.796-0.345,1.128-0.339s0.673,0.102,1.023,0.291
		c0.217,0.123,0.565,0.388,1.052,0.801l1.445,1.23c1.009,0.859,1.666,1.378,1.97,1.562c0.306,0.181,0.634,0.309,0.995,0.386
		l-0.963,1.128C-399.833,288.172-400.159,288.017-400.494,287.792z M-402.999,285.826c-0.171,0.529-0.538,1.236-1.09,2.116
		c-0.311,0.504-0.511,0.878-0.584,1.132c-0.077,0.255-0.082,0.496-0.012,0.73c0.071,0.23,0.205,0.429,0.392,0.59
		c0.292,0.248,0.628,0.346,1.005,0.289c0.382-0.053,0.747-0.291,1.108-0.713c0.354-0.416,0.579-0.869,0.673-1.35
		s0.046-0.934-0.14-1.358c-0.146-0.325-0.465-0.692-0.945-1.101L-402.999,285.826z"/>
	<path d="M-385.551,271.215l-7.89-8.492l1.124-1.042l6.954,7.488l4.18-3.89l0.937,1.006L-385.551,271.215z"/>
	<path d="M-373.112,258.016l1.303-0.694c0.307,0.836,0.342,1.628,0.11,2.38c-0.241,0.748-0.756,1.404-1.552,1.967
		c-1.001,0.709-2.017,0.964-3.04,0.764c-1.022-0.204-1.932-0.863-2.722-1.977c-0.817-1.153-1.152-2.258-1.007-3.318
		c0.14-1.057,0.687-1.918,1.628-2.589c0.916-0.648,1.888-0.867,2.911-0.65c1.024,0.217,1.936,0.886,2.738,2.021
		c0.046,0.068,0.117,0.172,0.211,0.312l-5.108,3.617c0.571,0.725,1.196,1.152,1.866,1.278c0.665,0.13,1.28-0.009,1.855-0.415
		c0.43-0.304,0.714-0.674,0.853-1.111C-372.924,259.158-372.938,258.633-373.112,258.016z M-378.256,258.848l3.831-2.713
		c-0.461-0.54-0.914-0.869-1.356-0.988c-0.691-0.186-1.332-0.071-1.92,0.346c-0.534,0.381-0.856,0.874-0.967,1.491
		C-378.777,257.598-378.643,258.221-378.256,258.848z"/>
	<path d="M-366.073,257.791l1.291-0.547c0.271,0.342,0.565,0.529,0.892,0.564c0.442,0.053,0.921-0.079,1.448-0.392
		c0.565-0.334,0.936-0.702,1.106-1.114c0.175-0.406,0.197-0.846,0.067-1.312c-0.085-0.287-0.364-0.824-0.839-1.614
		c-0.162,0.944-0.645,1.651-1.438,2.123c-0.993,0.587-1.972,0.681-2.94,0.288c-0.967-0.395-1.747-1.096-2.344-2.098
		c-0.408-0.691-0.659-1.401-0.754-2.134c-0.098-0.729,0-1.396,0.286-1.993c0.283-0.601,0.742-1.088,1.383-1.469
		c0.854-0.502,1.763-0.572,2.73-0.197l-0.527-0.887l1.128-0.668l3.699,6.246c0.666,1.129,1.026,1.992,1.074,2.599
		c0.05,0.604-0.094,1.188-0.43,1.755c-0.333,0.567-0.866,1.062-1.59,1.492c-0.861,0.512-1.675,0.73-2.429,0.656
		C-365.024,259.015-365.628,258.582-366.073,257.791z M-367.62,252.852c0.561,0.948,1.16,1.527,1.794,1.74
		c0.631,0.213,1.232,0.149,1.797-0.186c0.561-0.332,0.905-0.828,1.028-1.484c0.12-0.66-0.089-1.449-0.636-2.373
		c-0.521-0.885-1.116-1.435-1.771-1.651c-0.659-0.217-1.264-0.161-1.818,0.167c-0.542,0.32-0.874,0.817-0.99,1.482
		C-368.333,251.212-368.135,251.979-367.62,252.852z"/>
	<path d="M-351.108,248.73c-0.36,0.595-0.74,1.053-1.146,1.385c-0.406,0.329-0.874,0.577-1.405,0.754
		c-0.878,0.285-1.619,0.293-2.229,0.02c-0.613-0.271-1.029-0.744-1.248-1.41c-0.129-0.392-0.157-0.777-0.085-1.158
		c0.072-0.382,0.221-0.718,0.444-1.006c0.221-0.291,0.502-0.546,0.83-0.763c0.242-0.157,0.619-0.354,1.134-0.597
		c1.049-0.489,1.802-0.909,2.258-1.26c-0.058-0.183-0.094-0.304-0.11-0.352c-0.18-0.553-0.437-0.896-0.763-1.039
		c-0.444-0.191-1.005-0.175-1.689,0.047c-0.636,0.21-1.07,0.475-1.303,0.795c-0.227,0.322-0.323,0.787-0.285,1.4l-1.376,0.253
		c-0.065-0.604-0.02-1.128,0.139-1.565c0.163-0.438,0.474-0.84,0.932-1.2c0.461-0.354,1.035-0.65,1.719-0.873
		c0.684-0.226,1.259-0.328,1.739-0.305c0.479,0.021,0.859,0.123,1.14,0.298c0.282,0.18,0.52,0.44,0.722,0.784
		c0.121,0.218,0.281,0.626,0.479,1.228l0.592,1.807c0.413,1.256,0.703,2.043,0.866,2.357c0.164,0.312,0.382,0.598,0.647,0.847
		l-1.411,0.463C-350.745,249.399-350.946,249.098-351.108,248.73z M-352.217,245.748c-0.423,0.364-1.105,0.776-2.039,1.238
		c-0.532,0.264-0.895,0.48-1.086,0.658c-0.201,0.18-0.328,0.382-0.39,0.619c-0.058,0.234-0.052,0.467,0.023,0.704
		c0.12,0.363,0.354,0.622,0.708,0.772c0.353,0.152,0.792,0.142,1.317-0.031c0.521-0.171,0.949-0.438,1.281-0.801
		c0.329-0.361,0.525-0.771,0.583-1.23c0.044-0.354-0.031-0.836-0.229-1.434L-352.217,245.748z"/>
	<path d="M-344.664,247.843l-2.869-11.23l1.376-0.351l2.869,11.23L-344.664,247.843z"/>
	<path d="M-323.15,243.345v-11.591h8.378v1.373h-6.848v3.525h6.412v1.371h-6.412v3.947h7.114v1.372h-8.645V243.345z"/>
	<path d="M-309.529,240.889l1.413-0.164c0.058,0.564,0.261,1.007,0.606,1.321c0.355,0.312,0.852,0.483,1.499,0.513
		c0.651,0.023,1.143-0.09,1.466-0.344c0.33-0.254,0.502-0.561,0.514-0.92c0.008-0.319-0.114-0.58-0.385-0.773
		c-0.188-0.133-0.666-0.314-1.436-0.539c-1.039-0.305-1.752-0.561-2.146-0.768c-0.391-0.209-0.689-0.488-0.881-0.834
		c-0.198-0.351-0.287-0.73-0.271-1.14c0.016-0.374,0.118-0.716,0.301-1.029c0.188-0.31,0.426-0.569,0.733-0.768
		c0.224-0.151,0.534-0.28,0.917-0.38c0.391-0.096,0.802-0.139,1.242-0.119c0.652,0.021,1.233,0.143,1.723,0.35
		c0.488,0.211,0.846,0.479,1.074,0.812c0.221,0.334,0.371,0.773,0.439,1.32l-1.396,0.133c-0.045-0.434-0.218-0.779-0.509-1.031
		c-0.298-0.257-0.726-0.393-1.276-0.413c-0.654-0.025-1.127,0.064-1.416,0.267c-0.289,0.207-0.436,0.453-0.451,0.742
		c-0.004,0.184,0.045,0.354,0.154,0.508c0.109,0.155,0.289,0.289,0.533,0.402c0.141,0.053,0.557,0.193,1.25,0.41
		c0.998,0.309,1.69,0.557,2.08,0.742c0.389,0.186,0.689,0.448,0.906,0.783c0.207,0.334,0.309,0.744,0.293,1.23
		c-0.021,0.477-0.18,0.914-0.471,1.324c-0.293,0.407-0.707,0.718-1.236,0.924c-0.531,0.208-1.123,0.3-1.779,0.275
		c-1.09-0.044-1.914-0.303-2.473-0.777C-309.064,242.474-309.4,241.785-309.529,240.889z"/>
	<path d="M-298.892,247.371l2.163-11.418l1.271,0.242l-0.201,1.067c0.381-0.36,0.779-0.608,1.195-0.744
		c0.414-0.138,0.893-0.157,1.431-0.054c0.706,0.131,1.296,0.434,1.766,0.896c0.468,0.468,0.782,1.056,0.927,1.769
		c0.146,0.713,0.146,1.462,0,2.25c-0.166,0.846-0.457,1.58-0.887,2.195c-0.432,0.619-0.971,1.056-1.616,1.305
		c-0.646,0.251-1.286,0.318-1.925,0.197c-0.463-0.09-0.865-0.266-1.194-0.534c-0.334-0.266-0.595-0.574-0.774-0.915l-0.76,4.014
		L-298.892,247.371z M-296.263,240.365c-0.201,1.063-0.141,1.889,0.197,2.48c0.33,0.589,0.803,0.941,1.418,1.057
		c0.619,0.117,1.197-0.045,1.742-0.488c0.542-0.445,0.914-1.215,1.125-2.323c0.199-1.053,0.132-1.882-0.2-2.489
		c-0.329-0.604-0.798-0.965-1.399-1.078c-0.592-0.113-1.174,0.064-1.734,0.535C-295.679,238.534-296.062,239.303-296.263,240.365z"
		/>
	<path d="M-280.412,246.072l1.346,0.617c-0.479,0.752-1.089,1.26-1.83,1.523c-0.736,0.266-1.576,0.253-2.506-0.039
		c-1.172-0.371-1.986-1.021-2.445-1.958c-0.465-0.939-0.485-2.058-0.074-3.362c0.422-1.348,1.1-2.288,2.028-2.813
		c0.923-0.527,1.942-0.616,3.05-0.269c1.074,0.335,1.829,0.973,2.277,1.918c0.451,0.945,0.47,2.079,0.057,3.4
		c-0.031,0.084-0.073,0.203-0.127,0.363l-5.976-1.877c-0.226,0.893-0.191,1.645,0.116,2.254c0.299,0.609,0.781,1.018,1.451,1.229
		c0.502,0.156,0.968,0.16,1.408,0.008C-281.209,246.914-280.796,246.584-280.412,246.072z M-284.189,242.479l4.479,1.408
		c0.154-0.694,0.139-1.255-0.039-1.681c-0.269-0.661-0.747-1.099-1.439-1.318c-0.623-0.195-1.209-0.15-1.77,0.137
		C-283.508,241.31-283.921,241.793-284.189,242.479z"/>
	<path d="M-269.419,250.006l1.246,0.672c-0.48,0.847-1.112,1.412-1.891,1.699c-0.777,0.285-1.598,0.27-2.451-0.054
		c-1.07-0.403-1.8-1.08-2.185-2.03c-0.383-0.949-0.327-2.08,0.167-3.393c0.32-0.85,0.739-1.539,1.26-2.068
		c0.518-0.53,1.129-0.849,1.816-0.951c0.697-0.102,1.377-0.027,2.047,0.228c0.854,0.321,1.464,0.796,1.843,1.435
		c0.374,0.635,0.489,1.375,0.343,2.225l-1.377-0.284c0.081-0.575,0.012-1.053-0.193-1.438c-0.215-0.384-0.537-0.656-0.978-0.824
		c-0.666-0.25-1.295-0.215-1.89,0.111c-0.597,0.325-1.094,1.01-1.486,2.05c-0.396,1.057-0.486,1.899-0.271,2.528
		c0.225,0.633,0.656,1.068,1.302,1.312c0.521,0.196,1.012,0.198,1.479,0.011C-270.169,251.043-269.764,250.635-269.419,250.006z"/>
	<path d="M-260.787,246.956l0.807-1.407l1.234,0.705l-0.807,1.406L-260.787,246.956z M-265.743,255.607l4.183-7.299l1.23,0.706
		l-4.18,7.298L-265.743,255.607z"/>
	<path d="M-255.067,260.707c-0.69,0.021-1.284-0.049-1.782-0.211c-0.492-0.16-0.957-0.417-1.396-0.768
		c-0.717-0.578-1.127-1.197-1.229-1.858c-0.108-0.661,0.065-1.267,0.505-1.812c0.257-0.321,0.564-0.557,0.924-0.702
		c0.361-0.148,0.722-0.209,1.088-0.18c0.367,0.031,0.729,0.123,1.09,0.279c0.264,0.119,0.633,0.327,1.119,0.625
		c0.982,0.613,1.739,1.018,2.285,1.209c0.124-0.146,0.201-0.242,0.238-0.282c0.362-0.451,0.516-0.854,0.451-1.206
		c-0.08-0.475-0.402-0.94-0.959-1.389c-0.523-0.421-0.982-0.638-1.378-0.656c-0.392-0.018-0.839,0.158-1.329,0.523l-0.963-1.018
		c0.476-0.387,0.936-0.63,1.393-0.732c0.457-0.105,0.959-0.062,1.512,0.128c0.553,0.188,1.104,0.509,1.672,0.962
		c0.557,0.449,0.957,0.879,1.201,1.291c0.242,0.414,0.363,0.782,0.367,1.116c0.008,0.332-0.086,0.678-0.265,1.034
		c-0.112,0.219-0.368,0.577-0.762,1.07l-1.192,1.482c-0.828,1.033-1.336,1.701-1.508,2.012c-0.175,0.307-0.297,0.645-0.362,1
		l-1.15-0.927C-255.429,261.375-255.281,261.043-255.067,260.707z M-253.167,258.148c-0.533-0.158-1.254-0.502-2.146-1.033
		c-0.509-0.301-0.892-0.486-1.148-0.556c-0.253-0.07-0.497-0.065-0.728,0.009c-0.228,0.077-0.423,0.215-0.58,0.404
		c-0.24,0.301-0.326,0.636-0.265,1.016c0.065,0.377,0.313,0.74,0.749,1.088c0.424,0.344,0.881,0.557,1.365,0.637
		c0.48,0.082,0.934,0.021,1.352-0.18c0.322-0.156,0.682-0.48,1.075-0.974L-253.167,258.148z"/>
	<path d="M-250.64,265.528l7.729-8.639l1.057,0.946l-7.726,8.639L-250.64,265.528z"/>
	<path d="M-238.734,262.4l1.095-1.199l1.051,0.959l-1.095,1.197L-238.734,262.4z M-245.457,269.758l5.676-6.205l1.047,0.955
		l-5.674,6.209L-245.457,269.758z"/>
	<path d="M-241.107,273.902l0.82-0.818l8.104-0.557c-0.448-0.406-0.839-0.773-1.169-1.101l-2.414-2.421l0.824-0.826l4.852,4.854
		l-0.672,0.676l-6.984,0.549l-1.331,0.068c0.495,0.408,0.94,0.81,1.34,1.208l2.745,2.747l-0.867,0.872L-241.107,273.902z"/>
	<path d="M-229.242,286.16c-0.68-0.136-1.24-0.34-1.689-0.609s-0.84-0.624-1.189-1.063c-0.564-0.726-0.829-1.423-0.778-2.089
		c0.049-0.668,0.351-1.219,0.899-1.652c0.322-0.252,0.677-0.412,1.063-0.475c0.383-0.062,0.745-0.04,1.1,0.073
		c0.347,0.112,0.681,0.282,0.997,0.517c0.229,0.174,0.547,0.463,0.947,0.861c0.82,0.822,1.471,1.384,1.957,1.693
		c0.154-0.117,0.252-0.192,0.297-0.222c0.455-0.358,0.693-0.715,0.713-1.071c0.029-0.483-0.18-1.007-0.625-1.57
		c-0.413-0.527-0.809-0.843-1.188-0.95c-0.379-0.109-0.851-0.038-1.412,0.208l-0.711-1.205c0.545-0.269,1.055-0.404,1.521-0.402
		c0.468,0,0.946,0.156,1.441,0.465c0.492,0.309,0.963,0.746,1.406,1.314c0.446,0.566,0.739,1.074,0.887,1.531
		c0.14,0.457,0.174,0.847,0.105,1.17c-0.074,0.325-0.232,0.64-0.49,0.948c-0.16,0.188-0.492,0.479-0.992,0.87l-1.494,1.174
		c-1.039,0.814-1.685,1.357-1.923,1.618c-0.236,0.261-0.432,0.562-0.569,0.894l-0.917-1.162
		C-229.743,286.725-229.531,286.437-229.242,286.16z M-226.814,284.098c-0.487-0.277-1.104-0.776-1.859-1.493
		c-0.43-0.411-0.762-0.676-0.992-0.802c-0.232-0.123-0.473-0.174-0.713-0.155c-0.24,0.022-0.462,0.112-0.653,0.265
		c-0.304,0.237-0.466,0.547-0.486,0.928c-0.024,0.386,0.138,0.795,0.476,1.228c0.343,0.435,0.736,0.741,1.189,0.929
		c0.453,0.191,0.906,0.233,1.356,0.131c0.353-0.076,0.772-0.314,1.271-0.704L-226.814,284.098z"/>
	<path d="M-223.55,297.191l0.894-0.574c-0.987,0-1.761-0.436-2.313-1.303c-0.362-0.564-0.537-1.182-0.529-1.854
		c0.012-0.674,0.212-1.318,0.604-1.933c0.391-0.615,0.948-1.155,1.676-1.618c0.704-0.451,1.423-0.744,2.147-0.873
		c0.726-0.136,1.394-0.061,1.999,0.211c0.607,0.274,1.096,0.702,1.467,1.285c0.273,0.428,0.424,0.863,0.456,1.312
		c0.036,0.448-0.032,0.869-0.188,1.266l3.503-2.24l0.766,1.195l-9.768,6.242L-223.55,297.191z M-222.437,291.149
		c-0.908,0.579-1.462,1.202-1.666,1.874c-0.207,0.67-0.141,1.262,0.198,1.785c0.331,0.525,0.833,0.836,1.497,0.932
		c0.663,0.094,1.433-0.142,2.312-0.703c0.969-0.619,1.56-1.261,1.773-1.924c0.218-0.662,0.145-1.268-0.201-1.818
		c-0.344-0.533-0.85-0.842-1.516-0.924C-220.701,290.29-221.504,290.553-222.437,291.149z"/>
	<path d="M-217.693,307.248c-0.631-0.299-1.123-0.632-1.494-1.001c-0.367-0.371-0.66-0.812-0.893-1.321
		c-0.374-0.844-0.451-1.584-0.244-2.219c0.217-0.635,0.64-1.096,1.279-1.379c0.379-0.166,0.754-0.234,1.143-0.2
		c0.389,0.031,0.738,0.145,1.051,0.34c0.307,0.192,0.59,0.442,0.84,0.746c0.18,0.224,0.416,0.583,0.711,1.066
		c0.589,0.997,1.086,1.701,1.479,2.122c0.178-0.072,0.291-0.121,0.338-0.145c0.529-0.232,0.846-0.523,0.955-0.865
		c0.146-0.462,0.073-1.02-0.216-1.674c-0.269-0.61-0.578-1.016-0.921-1.213c-0.344-0.197-0.818-0.246-1.425-0.142l-0.392-1.345
		c0.6-0.13,1.117-0.132,1.572-0.02c0.457,0.119,0.882,0.386,1.287,0.807c0.399,0.422,0.754,0.961,1.045,1.62
		c0.293,0.655,0.449,1.222,0.479,1.697c0.023,0.479-0.035,0.868-0.182,1.163c-0.148,0.297-0.385,0.562-0.711,0.801
		c-0.203,0.143-0.592,0.34-1.168,0.597l-1.739,0.774c-1.21,0.537-1.963,0.902-2.261,1.1c-0.297,0.193-0.553,0.438-0.777,0.729
		l-0.603-1.354C-218.324,307.676-218.042,307.448-217.693,307.248z M-214.841,305.843c-0.4-0.386-0.881-1.021-1.434-1.901
		c-0.314-0.498-0.566-0.838-0.764-1.018c-0.193-0.178-0.414-0.288-0.654-0.324c-0.236-0.037-0.473-0.006-0.696,0.096
		c-0.351,0.157-0.582,0.418-0.7,0.78c-0.118,0.368-0.057,0.804,0.163,1.31c0.224,0.5,0.533,0.896,0.925,1.191
		c0.395,0.296,0.822,0.445,1.286,0.457c0.354,0.012,0.823-0.113,1.405-0.368L-214.841,305.843z"/>
	<path d="M-209.189,334.105l-0.184,1.468c-0.863-0.231-1.527-0.661-2.006-1.288c-0.475-0.629-0.711-1.431-0.711-2.4
		c0-1.23,0.377-2.205,1.133-2.922c0.762-0.719,1.822-1.08,3.184-1.08c1.418,0,2.514,0.366,3.291,1.091
		c0.782,0.726,1.171,1.669,1.171,2.831c0,1.12-0.381,2.037-1.144,2.749c-0.764,0.711-1.844,1.067-3.232,1.067
		c-0.086,0-0.211-0.002-0.379-0.008v-6.262c-0.924,0.054-1.629,0.314-2.121,0.783c-0.49,0.47-0.737,1.055-0.737,1.759
		c0,0.521,0.139,0.968,0.415,1.336C-210.232,333.597-209.789,333.893-209.189,334.105z M-206.896,329.427v4.693
		c0.71-0.063,1.239-0.242,1.594-0.538c0.552-0.453,0.828-1.043,0.828-1.766c0-0.654-0.222-1.205-0.657-1.651
		C-205.576,329.723-206.162,329.477-206.896,329.427z"/>
	<path d="M-211.258,356.432l11.517,1.344l-0.18,1.518l-11.512-1.342L-211.258,356.432z"/>
	<path d="M-211.934,363.343l8.193,1.886l-0.289,1.25l-1.165-0.27c0.762,0.811,1.006,1.78,0.746,2.92
		c-0.119,0.495-0.307,0.927-0.578,1.304c-0.277,0.37-0.579,0.627-0.912,0.766c-0.337,0.141-0.713,0.208-1.125,0.195
		c-0.269-0.004-0.725-0.086-1.368-0.232l-5.033-1.156l0.313-1.389l4.984,1.148c0.566,0.13,1.002,0.175,1.308,0.13
		c0.306-0.044,0.569-0.187,0.806-0.423c0.23-0.236,0.387-0.54,0.475-0.914c0.137-0.593,0.063-1.146-0.209-1.664
		c-0.275-0.518-0.938-0.896-1.988-1.136l-4.475-1.035L-211.934,363.343z"/>
	<path d="M-215.522,377.055l8.989-0.339l-0.486,1.442l-5.347,0.098c-0.574,0.012-1.173,0-1.78-0.031
		c0.379,0.261,0.827,0.597,1.349,1.015l4.262,3.408l-0.462,1.385l-6.956-5.691L-215.522,377.055z"/>
	<path d="M-218.214,391.784l-0.746,1.271c-0.703-0.554-1.143-1.212-1.334-1.978c-0.188-0.759-0.09-1.59,0.297-2.486
		c0.48-1.128,1.216-1.873,2.195-2.231c0.98-0.362,2.098-0.272,3.352,0.265c1.299,0.559,2.162,1.326,2.594,2.303
		c0.428,0.976,0.412,1.998-0.043,3.061c-0.445,1.03-1.162,1.723-2.14,2.073c-0.981,0.35-2.118,0.252-3.393-0.298
		c-0.077-0.032-0.193-0.085-0.342-0.156l2.476-5.75c-0.871-0.315-1.621-0.358-2.26-0.12c-0.635,0.236-1.092,0.684-1.368,1.325
		c-0.208,0.479-0.257,0.942-0.147,1.393C-218.967,390.904-218.682,391.344-218.214,391.784z M-214.257,388.392l-1.855,4.312
		c0.676,0.218,1.236,0.265,1.678,0.133c0.685-0.2,1.169-0.632,1.454-1.293c0.257-0.607,0.274-1.193,0.047-1.78
		C-213.16,389.184-213.599,388.724-214.257,388.392z"/>
	<path d="M-220.828,396.891l-0.538,1.313c-0.525-0.222-1.011-0.257-1.454-0.102c-0.439,0.152-0.828,0.507-1.166,1.061
		c-0.341,0.562-0.475,1.045-0.41,1.456c0.065,0.405,0.255,0.7,0.562,0.888c0.275,0.167,0.564,0.179,0.863,0.038
		c0.211-0.102,0.594-0.432,1.166-0.997c0.764-0.762,1.334-1.263,1.709-1.511c0.375-0.244,0.754-0.371,1.152-0.375
		c0.403,0,0.777,0.105,1.133,0.317c0.316,0.191,0.569,0.444,0.757,0.758c0.188,0.31,0.291,0.649,0.317,1.01
		c0.025,0.277-0.012,0.603-0.113,0.994c-0.098,0.385-0.262,0.766-0.489,1.138c-0.342,0.564-0.721,1.012-1.14,1.342
		c-0.42,0.332-0.829,0.512-1.23,0.55c-0.398,0.037-0.855-0.049-1.368-0.252l0.56-1.287c0.401,0.173,0.789,0.186,1.15,0.049
		c0.363-0.135,0.691-0.439,0.978-0.914c0.339-0.564,0.485-1.019,0.448-1.37c-0.045-0.354-0.188-0.605-0.436-0.754
		c-0.159-0.098-0.328-0.13-0.518-0.109c-0.191,0.02-0.393,0.113-0.611,0.272c-0.119,0.094-0.439,0.393-0.965,0.892
		c-0.747,0.729-1.295,1.218-1.648,1.471c-0.355,0.248-0.729,0.385-1.125,0.411c-0.395,0.024-0.802-0.09-1.217-0.338
		c-0.406-0.249-0.721-0.599-0.934-1.051c-0.215-0.452-0.289-0.964-0.215-1.527c0.077-0.566,0.285-1.13,0.619-1.694
		c0.563-0.937,1.185-1.527,1.871-1.783C-222.437,396.524-221.671,396.564-220.828,396.891z"/>
	<path d="M-230.292,408.835l-1.133-0.578c0.162-0.375,0.339-0.69,0.521-0.951c0.304-0.421,0.598-0.698,0.896-0.835
		c0.303-0.136,0.59-0.179,0.875-0.116c0.287,0.058,0.774,0.336,1.475,0.831l3.936,2.808l0.607-0.851l0.906,0.642l-0.607,0.851
		l1.692,1.206l-0.128,1.653l-2.389-1.698l-0.844,1.177l-0.903-0.64l0.841-1.183l-4.003-2.855c-0.334-0.238-0.56-0.364-0.685-0.393
		c-0.126-0.024-0.244-0.012-0.371,0.045c-0.119,0.055-0.244,0.169-0.369,0.34C-230.064,408.416-230.174,408.599-230.292,408.835z"/>
	<path d="M-226.204,417.854l1.197,1.091l-0.957,1.049l-1.197-1.094L-226.204,417.854z M-233.575,411.14l6.214,5.661l-0.953,1.049
		l-6.214-5.663L-233.575,411.14z"/>
	<path d="M-238.287,415.974l-1.094,0.872c-0.352-0.261-0.689-0.358-1.014-0.306c-0.436,0.067-0.865,0.325-1.285,0.762
		c-0.458,0.477-0.715,0.933-0.773,1.368c-0.057,0.439,0.041,0.871,0.293,1.287c0.154,0.252,0.57,0.7,1.238,1.331
		c-0.094-0.95,0.18-1.759,0.818-2.431c0.803-0.829,1.717-1.182,2.758-1.06c1.035,0.12,1.977,0.587,2.822,1.397
		c0.574,0.552,1.01,1.169,1.29,1.849c0.296,0.683,0.381,1.344,0.265,2c-0.113,0.651-0.432,1.241-0.944,1.783
		c-0.685,0.713-1.544,1.021-2.573,0.918l0.744,0.715l-0.91,0.943l-5.236-5.032c-0.939-0.903-1.518-1.641-1.729-2.211
		c-0.209-0.57-0.229-1.175-0.054-1.808c0.171-0.636,0.55-1.259,1.132-1.865c0.693-0.724,1.42-1.15,2.171-1.283
		C-239.623,415.072-238.925,415.33-238.287,415.974z M-235.472,420.319c-0.795-0.762-1.525-1.165-2.191-1.197
		c-0.668-0.037-1.23,0.185-1.682,0.655c-0.454,0.475-0.652,1.039-0.599,1.708c0.057,0.666,0.472,1.375,1.25,2.12
		c0.737,0.709,1.454,1.079,2.146,1.114c0.693,0.03,1.26-0.184,1.701-0.647c0.439-0.455,0.625-1.019,0.564-1.692
		C-234.353,421.708-234.744,421.02-235.472,420.319z"/>
	<path d="M-250.298,429.018c0.094-0.684,0.259-1.261,0.502-1.723c0.242-0.464,0.563-0.884,0.982-1.25
		c0.688-0.619,1.367-0.923,2.037-0.914c0.668,0.002,1.239,0.269,1.705,0.79c0.277,0.308,0.457,0.653,0.543,1.03
		c0.085,0.381,0.085,0.743,0,1.102c-0.094,0.354-0.245,0.696-0.457,1.026c-0.154,0.244-0.424,0.578-0.803,1.004
		c-0.766,0.869-1.282,1.553-1.564,2.059c0.127,0.15,0.209,0.244,0.244,0.28c0.385,0.432,0.755,0.642,1.113,0.642
		c0.486-0.002,0.994-0.246,1.527-0.721c0.498-0.444,0.794-0.861,0.875-1.248c0.08-0.387-0.021-0.854-0.301-1.397l1.156-0.785
		c0.306,0.529,0.473,1.03,0.499,1.49c0.026,0.471-0.1,0.961-0.372,1.475c-0.281,0.513-0.685,1.008-1.227,1.492
		c-0.529,0.475-1.021,0.798-1.47,0.973c-0.444,0.172-0.831,0.23-1.165,0.18c-0.326-0.051-0.651-0.191-0.973-0.43
		c-0.2-0.146-0.512-0.46-0.936-0.933l-1.26-1.415c-0.889-0.991-1.463-1.595-1.739-1.818c-0.276-0.22-0.589-0.395-0.933-0.516
		l1.107-0.989C-250.896,428.549-250.593,428.749-250.298,429.018z M-248.081,431.307c0.24-0.501,0.7-1.15,1.368-1.951
		c0.383-0.452,0.627-0.798,0.735-1.034c0.112-0.244,0.145-0.484,0.11-0.721c-0.039-0.244-0.137-0.454-0.305-0.642
		c-0.256-0.285-0.571-0.426-0.957-0.426c-0.387,0.004-0.781,0.191-1.194,0.559c-0.409,0.366-0.694,0.781-0.849,1.244
		c-0.162,0.464-0.178,0.918-0.049,1.361c0.102,0.347,0.365,0.754,0.789,1.223L-248.081,431.307z"/>
	<path d="M-258.665,437.565l-1.269,0.627c-0.41-0.879-0.503-1.73-0.285-2.526c0.218-0.799,0.705-1.452,1.466-1.965
		c0.951-0.636,1.923-0.837,2.918-0.599c0.997,0.236,1.886,0.94,2.663,2.107c0.508,0.751,0.822,1.49,0.957,2.226
		c0.127,0.732,0.037,1.406-0.283,2.032c-0.319,0.623-0.779,1.134-1.372,1.531c-0.755,0.509-1.501,0.73-2.233,0.672
		c-0.737-0.062-1.407-0.401-2.016-1.015l1.031-0.957c0.422,0.399,0.85,0.621,1.285,0.676c0.432,0.052,0.844-0.053,1.236-0.315
		c0.588-0.393,0.922-0.931,1.004-1.603c0.086-0.676-0.184-1.474-0.803-2.398c-0.635-0.938-1.266-1.498-1.91-1.686
		c-0.639-0.189-1.246-0.086-1.82,0.295c-0.459,0.308-0.744,0.711-0.863,1.199C-259.078,436.352-258.98,436.922-258.665,437.565z"/>
	<path d="M-260.167,446.425l0.795,1.415l-1.247,0.692l-0.788-1.415L-260.167,446.425z M-265.017,437.719l4.096,7.344l-1.246,0.692
		l-4.088-7.345L-265.017,437.719z"/>
	<path d="M-268.654,444.321c0.578,1.442,0.602,2.676,0.077,3.69c-0.444,0.845-1.141,1.462-2.105,1.845
		c-1.073,0.427-2.085,0.423-3.05-0.009c-0.957-0.432-1.687-1.267-2.182-2.509c-0.4-1.001-0.563-1.853-0.49-2.551
		c0.068-0.694,0.326-1.312,0.777-1.863c0.448-0.546,1.012-0.955,1.692-1.229c1.089-0.432,2.116-0.432,3.068,0
		C-269.917,442.123-269.177,443.002-268.654,444.321z M-270.017,444.857c-0.396-1-0.914-1.662-1.541-1.985
		c-0.639-0.322-1.283-0.354-1.942-0.09c-0.655,0.261-1.095,0.729-1.335,1.401c-0.234,0.67-0.153,1.521,0.256,2.541
		c0.387,0.965,0.895,1.61,1.527,1.93c0.635,0.326,1.279,0.354,1.93,0.098c0.658-0.26,1.107-0.729,1.349-1.396
		C-269.539,446.691-269.619,445.857-270.017,444.857z"/>
	<path d="M-282.011,445.071l2.402,8.057l-1.23,0.369l-0.338-1.15c-0.33,1.061-1.055,1.757-2.174,2.091
		c-0.482,0.145-0.957,0.191-1.418,0.137c-0.457-0.051-0.83-0.193-1.119-0.414c-0.287-0.224-0.529-0.517-0.723-0.879
		c-0.129-0.238-0.285-0.672-0.479-1.304l-1.475-4.952l1.355-0.407l1.465,4.899c0.168,0.558,0.342,0.957,0.533,1.201
		c0.189,0.244,0.441,0.409,0.766,0.491c0.315,0.085,0.662,0.071,1.023-0.043c0.583-0.171,1.031-0.505,1.349-1
		c0.313-0.495,0.313-1.261,0.009-2.293l-1.312-4.399L-282.011,445.071z"/>
	<path d="M-298.273,451.957l-1.459,0.202c-0.007-0.888,0.235-1.646,0.714-2.269c0.481-0.625,1.191-1.059,2.13-1.317
		c1.186-0.324,2.229-0.216,3.115,0.326c0.895,0.547,1.521,1.478,1.877,2.793c0.371,1.364,0.311,2.517-0.191,3.462
		c-0.496,0.944-1.305,1.567-2.42,1.871c-1.086,0.295-2.066,0.165-2.955-0.385c-0.886-0.554-1.513-1.499-1.877-2.839
		c-0.021-0.083-0.051-0.203-0.09-0.368l6.041-1.646c-0.291-0.873-0.73-1.488-1.312-1.839c-0.583-0.35-1.21-0.432-1.886-0.248
		c-0.505,0.139-0.9,0.387-1.185,0.749C-298.056,450.812-298.224,451.318-298.273,451.957z M-293.156,452.938l-4.526,1.232
		c0.24,0.668,0.556,1.13,0.933,1.395c0.58,0.415,1.222,0.525,1.922,0.334c0.629-0.171,1.104-0.525,1.424-1.069
		C-293.097,454.291-293.007,453.664-293.156,452.938z"/>
	<path d="M-304.32,452.462l-1.401,0.223c-0.083-0.561-0.306-0.996-0.667-1.295c-0.363-0.3-0.863-0.446-1.514-0.444
		c-0.653,0-1.141,0.137-1.451,0.401c-0.318,0.269-0.475,0.578-0.475,0.94c0,0.322,0.141,0.572,0.413,0.762
		c0.193,0.122,0.676,0.281,1.458,0.475c1.047,0.265,1.773,0.49,2.174,0.682c0.402,0.191,0.709,0.456,0.917,0.797
		c0.212,0.34,0.313,0.714,0.313,1.128c0,0.374-0.082,0.721-0.252,1.042c-0.172,0.32-0.402,0.585-0.693,0.796
		c-0.224,0.165-0.529,0.306-0.912,0.418c-0.381,0.114-0.791,0.173-1.228,0.173c-0.661,0.002-1.239-0.094-1.741-0.281
		c-0.496-0.188-0.869-0.439-1.104-0.766c-0.24-0.321-0.402-0.761-0.492-1.303l1.389-0.191c0.061,0.436,0.248,0.77,0.554,1.01
		c0.306,0.242,0.733,0.362,1.288,0.358c0.658,0,1.123-0.11,1.406-0.33c0.278-0.216,0.417-0.466,0.415-0.757
		c0.002-0.184-0.06-0.351-0.171-0.497c-0.121-0.157-0.304-0.281-0.553-0.383c-0.141-0.051-0.565-0.171-1.262-0.358
		c-1.01-0.269-1.711-0.486-2.113-0.655c-0.394-0.172-0.709-0.422-0.934-0.741c-0.223-0.33-0.342-0.735-0.342-1.222
		c0-0.473,0.135-0.921,0.412-1.343c0.276-0.417,0.676-0.743,1.193-0.975c0.521-0.23,1.109-0.351,1.771-0.351
		c1.091,0,1.924,0.22,2.496,0.676C-304.849,450.902-304.483,451.574-304.32,452.462z"/>
	<path d="M-332.332,452.576l-1.45-0.134c0.04-0.587-0.03-1.086-0.213-1.497c-0.175-0.409-0.506-0.777-0.978-1.102
		c-0.477-0.317-1.042-0.537-1.687-0.657c-0.575-0.104-1.099-0.112-1.565-0.019c-0.475,0.085-0.842,0.265-1.112,0.525
		c-0.269,0.261-0.438,0.563-0.497,0.916c-0.068,0.354-0.026,0.682,0.131,0.981c0.154,0.306,0.457,0.591,0.9,0.859
		c0.285,0.175,0.928,0.482,1.927,0.927c1.001,0.439,1.694,0.816,2.075,1.111c0.489,0.385,0.834,0.816,1.025,1.289
		c0.188,0.471,0.233,0.969,0.14,1.49c-0.106,0.578-0.37,1.088-0.788,1.527c-0.417,0.439-0.964,0.735-1.637,0.88
		c-0.676,0.143-1.396,0.146-2.171,0.008c-0.84-0.159-1.563-0.43-2.16-0.822c-0.597-0.39-1.015-0.882-1.266-1.475
		c-0.249-0.595-0.327-1.226-0.233-1.897l1.465,0.154c-0.053,0.729,0.111,1.312,0.493,1.764c0.382,0.448,1.009,0.747,1.887,0.91
		c0.913,0.167,1.607,0.124,2.089-0.133c0.478-0.256,0.762-0.618,0.848-1.091c0.072-0.411-0.014-0.774-0.264-1.088
		c-0.24-0.321-0.95-0.73-2.124-1.229c-1.176-0.501-1.974-0.896-2.392-1.186c-0.607-0.432-1.02-0.905-1.252-1.431
		c-0.23-0.525-0.289-1.09-0.178-1.704c0.111-0.604,0.389-1.145,0.831-1.613c0.446-0.473,1.021-0.794,1.729-0.978
		c0.702-0.179,1.461-0.187,2.272-0.04c1.03,0.188,1.868,0.494,2.509,0.928c0.645,0.426,1.106,0.978,1.391,1.658
		C-332.296,451.088-332.216,451.807-332.332,452.576z"/>
	<path d="M-344.951,445.702l-0.766,1.432l-1.432-0.764l0.764-1.432L-344.951,445.702z"/>
	<path d="M-361.144,443.662l-1.244-0.972c0.8-1.02,1.718-1.665,2.748-1.935c1.034-0.263,2.099-0.16,3.205,0.328
		c1.142,0.505,1.97,1.146,2.479,1.927c0.515,0.783,0.76,1.691,0.748,2.74c-0.014,1.051-0.246,2.079-0.694,3.089
		c-0.481,1.105-1.12,1.978-1.902,2.612c-0.788,0.636-1.662,0.994-2.628,1.083c-0.967,0.082-1.918-0.085-2.855-0.496
		c-1.061-0.465-1.833-1.128-2.318-1.991c-0.484-0.857-0.655-1.837-0.507-2.942l1.526,0.287c-0.094,0.875,0.017,1.6,0.328,2.156
		c0.311,0.556,0.824,0.991,1.532,1.305c0.815,0.36,1.582,0.46,2.304,0.313c0.717-0.148,1.331-0.505,1.846-1.066
		c0.512-0.561,0.923-1.189,1.232-1.89c0.396-0.902,0.611-1.747,0.646-2.537c0.033-0.786-0.155-1.471-0.565-2.047
		c-0.409-0.582-0.94-1.01-1.589-1.295c-0.79-0.346-1.554-0.417-2.3-0.201C-359.891,442.345-360.558,442.854-361.144,443.662z"/>
	<path d="M-365.404,436.704l-1.035,1.248l-1.245-1.038l1.034-1.248L-365.404,436.704z"/>
</g>
<g>
	<g>
		<path fill="#001B45" stroke="#001B45" stroke-width="3" d="M-51.885,160.811c2.238-0.153,4.039-1.163,5.403-3.035
			c0.873-1.178,2.134-3.771,3.767-7.789l20.627-50.905h2.633l20.736,48.866c2.33,5.464,4.069,8.988,5.223,10.574
			c1.146,1.586,2.777,2.345,4.896,2.289v2.361h-30.084v-2.361c3.018-0.124,5.004-0.377,5.956-0.77
			c0.954-0.395,1.435-1.388,1.435-2.992c0-0.72-0.246-1.819-0.727-3.299c-0.307-0.871-0.707-1.933-1.219-3.171l-2.34-5.616h-20.924
			c-1.364,3.684-2.236,6.082-2.631,7.198c-0.812,2.382-1.227,4.121-1.227,5.203c0,1.332,0.893,2.296,2.68,2.902
			c1.06,0.329,2.646,0.512,4.756,0.543v2.36h-18.961V160.811L-51.885,160.811z M-17.01,141.312l-8.916-21.544h-0.766l-8.441,21.544
			H-17.01z"/>
		<path fill="#001B45" stroke="#001B45" stroke-width="3" d="M15.264,160.811c2.539-0.092,4.356-0.424,5.442-1.004
			c1.853-0.965,2.772-2.818,2.772-5.543v-45.026c0-2.71-0.872-4.531-2.632-5.469c-1.027-0.575-2.893-0.936-5.584-1.086v-2.361
			h32.502v2.361c-3.791,0.123-6.316,0.65-7.568,1.582c-1.26,0.934-1.886,3.231-1.886,6.908v43.954c0,2.062,0.532,3.428,1.611,4.09
			c1.073,0.67,3.165,1.004,6.284,1.004c5.603,0,10.3-1.232,14.098-3.697c3.799-2.467,7.077-7.271,9.838-14.406h2.712l-3.765,21.055
			H15.263L15.264,160.811L15.264,160.811z"/>
		<path fill="#001B45" stroke="#001B45" stroke-width="3" d="M77.119,163.172v-2.361c2.672-0.092,4.559-0.457,5.685-1.094
			c1.726-0.969,2.592-2.787,2.592-5.465v-45.016c0-2.71-0.899-4.53-2.687-5.469c-1.031-0.575-2.891-0.935-5.59-1.087v-2.36h53.558
			v18.747h-2.277c-1.18-5.998-3.186-10.104-6.01-12.316c-2.826-2.209-7.969-3.314-15.434-3.314c-2.844,0-4.648,0.297-5.416,0.887
			c-0.773,0.588-1.16,1.766-1.16,3.52v21.543c5.291,0.062,8.869-0.899,10.742-2.885c1.865-1.979,3.305-5.604,4.303-10.867h2.367
			v31.368h-2.367c-0.666-5.281-2.018-9.004-4.057-11.16c-2.039-2.158-5.697-3.236-10.988-3.236v22.523
			c0,1.969,0.508,3.31,1.521,4.021c1.012,0.713,3.092,1.071,6.236,1.071c5.916,0,10.76-1.151,14.504-3.45
			c3.744-2.3,7.07-6.613,9.977-12.94h2.578l-3.766,19.344H77.119V163.172z"/>
		<path fill="#001B45" stroke="#001B45" stroke-width="3" d="M140.905,141.524h2.686c1.484,6.942,3.885,11.993,7.189,15.146
			c3.305,3.153,7.096,4.729,11.367,4.729c4.15,0,7.104-1.081,8.854-3.25c1.746-2.165,2.625-4.451,2.625-6.845
			c0-2.784-0.912-5.06-2.746-6.813c-1.205-1.153-3.656-2.651-7.348-4.506l-5.938-2.998c-5.891-2.967-10.049-5.909-12.467-8.816
			c-2.418-2.908-3.633-6.5-3.633-10.771c0-4.547,1.607-8.788,4.812-12.727c3.197-3.937,8.115-5.908,14.73-5.908
			c3.365,0,6.623,0.512,9.775,1.546c3.139,1.028,4.938,1.542,5.383,1.542c1.014,0,1.713-0.297,2.1-0.891
			c0.395-0.597,0.699-1.386,0.939-2.357H182v20.251h-2.58c-1.211-4.687-3.35-8.724-6.422-12.108
			c-3.064-3.385-6.795-5.08-11.182-5.08c-3.084,0-5.523,0.854-7.314,2.567c-1.793,1.713-2.686,3.798-2.686,6.249
			c0,2.939,0.832,5.139,2.52,6.59c1.65,1.489,5.342,3.672,11.092,6.551l6.879,3.454c3.064,1.546,5.502,3.255,7.328,5.134
			c3.404,3.505,5.109,7.774,5.109,12.796c0,4.688-1.832,9.111-5.482,13.27c-3.65,4.161-9.502,6.241-17.559,6.241
			c-1.846,0-3.717-0.175-5.609-0.524c-1.891-0.347-3.764-0.884-5.615-1.611l-1.785-0.68c-0.42-0.121-0.82-0.222-1.207-0.294
			c-0.387-0.079-0.713-0.112-0.986-0.112c-0.951,0-1.613,0.28-1.965,0.84c-0.361,0.56-0.674,1.352-0.947,2.382h-2.684V141.524
			L140.905,141.524z"/>
		<path fill="#001B45" stroke="#001B45" stroke-width="3" d="M190.844,160.811c2.633-0.064,4.523-0.385,5.678-0.963
			c1.871-0.967,2.811-2.832,2.811-5.596v-45.016c0-2.743-0.893-4.578-2.678-5.513c-1.086-0.575-3.025-0.92-5.812-1.043v-2.36h32.502
			v2.36c-2.896,0.123-4.891,0.453-5.982,0.998c-1.812,0.933-2.719,2.785-2.719,5.558v45.016c0,2.609,0.727,4.356,2.174,5.235
			c1.451,0.879,3.631,1.322,6.527,1.322v2.36h-32.502v-2.359H190.844z"/>
	</g>
	<g>
		<linearGradient id="SVGID_1_" gradientUnits="userSpaceOnUse" x1="-20.2427" y1="163.1719" x2="-20.2427" y2="99.0815">
			<stop  offset="0" style="stop-color:#2AEAFF"/>
			<stop  offset="0.2512" style="stop-color:#2AAEFF"/>
			<stop  offset="0.7553" style="stop-color:#005BA9"/>
		</linearGradient>
		<path fill="url(#SVGID_1_)" d="M-51.885,160.811c2.238-0.153,4.039-1.163,5.403-3.035c0.873-1.178,2.134-3.771,3.767-7.789
			l20.627-50.905h2.633l20.736,48.866c2.33,5.464,4.069,8.988,5.223,10.574c1.146,1.586,2.777,2.345,4.896,2.289v2.361h-30.084
			v-2.361c3.018-0.124,5.004-0.377,5.956-0.77c0.954-0.395,1.435-1.388,1.435-2.992c0-0.72-0.246-1.819-0.727-3.299
			c-0.307-0.871-0.707-1.933-1.219-3.171l-2.34-5.616h-20.924c-1.364,3.684-2.236,6.082-2.631,7.198
			c-0.812,2.382-1.227,4.121-1.227,5.203c0,1.332,0.893,2.296,2.68,2.902c1.06,0.329,2.646,0.512,4.756,0.543v2.36h-18.961V160.811
			L-51.885,160.811z M-17.01,141.312l-8.916-21.544h-0.766l-8.441,21.544H-17.01z"/>
		<linearGradient id="SVGID_2_" gradientUnits="userSpaceOnUse" x1="44.0586" y1="163.1719" x2="44.0586" y2="100.3218">
			<stop  offset="0" style="stop-color:#2AEAFF"/>
			<stop  offset="0.2512" style="stop-color:#2AAEFF"/>
			<stop  offset="0.7553" style="stop-color:#005BA9"/>
		</linearGradient>
		<path fill="url(#SVGID_2_)" d="M15.264,160.811c2.539-0.092,4.356-0.424,5.442-1.004c1.853-0.965,2.772-2.818,2.772-5.543v-45.026
			c0-2.71-0.872-4.531-2.632-5.469c-1.027-0.575-2.893-0.936-5.584-1.086v-2.361h32.502v2.361c-3.791,0.123-6.316,0.65-7.568,1.582
			c-1.26,0.934-1.886,3.231-1.886,6.908v43.954c0,2.062,0.532,3.428,1.611,4.09c1.073,0.67,3.165,1.004,6.284,1.004
			c5.603,0,10.3-1.232,14.098-3.697c3.799-2.467,7.077-7.271,9.838-14.406h2.712l-3.765,21.055H15.263L15.264,160.811
			L15.264,160.811z"/>
		<linearGradient id="SVGID_3_" gradientUnits="userSpaceOnUse" x1="106.1572" y1="163.1738" x2="106.1572" y2="100.3208">
			<stop  offset="0" style="stop-color:#2AEAFF"/>
			<stop  offset="0.2512" style="stop-color:#2AAEFF"/>
			<stop  offset="0.7553" style="stop-color:#005BA9"/>
		</linearGradient>
		<path fill="url(#SVGID_3_)" d="M77.119,163.172v-2.361c2.672-0.092,4.559-0.457,5.685-1.094c1.726-0.969,2.592-2.787,2.592-5.465
			v-45.016c0-2.71-0.899-4.53-2.687-5.469c-1.031-0.575-2.891-0.935-5.59-1.087v-2.36h53.558v18.747h-2.277
			c-1.18-5.998-3.186-10.104-6.01-12.316c-2.826-2.209-7.969-3.314-15.434-3.314c-2.844,0-4.648,0.297-5.416,0.887
			c-0.773,0.588-1.16,1.766-1.16,3.52v21.543c5.291,0.062,8.869-0.899,10.742-2.885c1.865-1.979,3.305-5.604,4.303-10.867h2.367
			v31.368h-2.367c-0.666-5.281-2.018-9.004-4.057-11.16c-2.039-2.158-5.697-3.236-10.988-3.236v22.523
			c0,1.969,0.508,3.31,1.521,4.021c1.012,0.713,3.092,1.071,6.236,1.071c5.916,0,10.76-1.151,14.504-3.45
			c3.744-2.3,7.07-6.613,9.977-12.94h2.578l-3.766,19.344H77.119V163.172z"/>
		<linearGradient id="SVGID_4_" gradientUnits="userSpaceOnUse" x1="162.8247" y1="164.5186" x2="162.8247" y2="98.605">
			<stop  offset="0" style="stop-color:#2AEAFF"/>
			<stop  offset="0.2512" style="stop-color:#2AAEFF"/>
			<stop  offset="0.7553" style="stop-color:#005BA9"/>
		</linearGradient>
		<path fill="url(#SVGID_4_)" d="M140.905,141.524h2.686c1.484,6.942,3.885,11.993,7.189,15.146
			c3.305,3.153,7.096,4.729,11.367,4.729c4.15,0,7.104-1.081,8.854-3.25c1.746-2.165,2.625-4.451,2.625-6.845
			c0-2.784-0.912-5.06-2.746-6.813c-1.205-1.153-3.656-2.651-7.348-4.506l-5.938-2.998c-5.891-2.967-10.049-5.909-12.467-8.816
			c-2.418-2.908-3.633-6.5-3.633-10.771c0-4.547,1.607-8.788,4.812-12.727c3.197-3.937,8.115-5.908,14.73-5.908
			c3.365,0,6.623,0.512,9.775,1.546c3.139,1.028,4.938,1.542,5.383,1.542c1.014,0,1.713-0.297,2.1-0.891
			c0.395-0.597,0.699-1.386,0.939-2.357H182v20.251h-2.58c-1.211-4.687-3.35-8.724-6.422-12.108
			c-3.064-3.385-6.795-5.08-11.182-5.08c-3.084,0-5.523,0.854-7.314,2.567c-1.793,1.713-2.686,3.798-2.686,6.249
			c0,2.939,0.832,5.139,2.52,6.59c1.65,1.489,5.342,3.672,11.092,6.551l6.879,3.454c3.064,1.546,5.502,3.255,7.328,5.134
			c3.404,3.505,5.109,7.774,5.109,12.796c0,4.688-1.832,9.111-5.482,13.27c-3.65,4.161-9.502,6.241-17.559,6.241
			c-1.846,0-3.717-0.175-5.609-0.524c-1.891-0.347-3.764-0.884-5.615-1.611l-1.785-0.68c-0.42-0.121-0.82-0.222-1.207-0.294
			c-0.387-0.079-0.713-0.112-0.986-0.112c-0.951,0-1.613,0.28-1.965,0.84c-0.361,0.56-0.674,1.352-0.947,2.382h-2.684V141.524
			L140.905,141.524z"/>
		<linearGradient id="SVGID_5_" gradientUnits="userSpaceOnUse" x1="207.0933" y1="163.1699" x2="207.0933" y2="100.3208">
			<stop  offset="0" style="stop-color:#2AEAFF"/>
			<stop  offset="0.2512" style="stop-color:#2AAEFF"/>
			<stop  offset="0.7553" style="stop-color:#005BA9"/>
		</linearGradient>
		<path fill="url(#SVGID_5_)" d="M190.844,160.811c2.633-0.064,4.523-0.385,5.678-0.963c1.871-0.967,2.811-2.832,2.811-5.596
			v-45.016c0-2.743-0.893-4.578-2.678-5.513c-1.086-0.575-3.025-0.92-5.812-1.043v-2.36h32.502v2.36
			c-2.896,0.123-4.891,0.453-5.982,0.998c-1.812,0.933-2.719,2.785-2.719,5.558v45.016c0,2.609,0.727,4.356,2.174,5.235
			c1.451,0.879,3.631,1.322,6.527,1.322v2.36h-32.502v-2.359H190.844z"/>
	</g>
</g>
<g>
	<path fill="#001B45" stroke="#001B45" stroke-width="3" d="M205.282-110.476c0,0,1.174,2.281,1.707,3.31
		c-6,2.908-11.504,4.616-17.08,5.131v-19.118L174.1-103.66c-3.098-0.861-6.343-2.014-9.816-3.506
		c0.407-0.785,1.497-2.882,1.497-2.882h-9.289l5.765,6.728c0,0,1.145-1.839,1.709-2.563c8.311,4.061,15.604,5.618,22.207,5.595
		v20.564l7.688-6.407l-1.068-1.065l-2.883,2.562v-15.843c6.568-0.623,12.469-2.741,18.043-5.405c0.41,0.731,1.494,2.669,1.494,2.669
		l5.02-7.261H205.282z M176.717-103l9.453-10.892v12.029C183.112-101.879,179.987-102.262,176.717-103z"/>
	<path fill="#001B45" stroke="#001B45" stroke-width="3" d="M185.481-161.965c-33.984,0-61.531,27.546-61.531,61.527
		c0,33.979,27.544,61.525,61.531,61.525c33.979,0,61.525-27.547,61.525-61.525C247.006-134.419,219.458-161.965,185.481-161.965z
		 M185.481-65.066c-19.537,0-35.375-15.838-35.375-35.371c0-19.536,15.838-35.372,35.375-35.372
		c19.532,0,35.371,15.836,35.371,35.372C220.852-80.904,205.013-65.066,185.481-65.066z"/>
	<linearGradient id="SVGID_6_" gradientUnits="userSpaceOnUse" x1="185.478" y1="-36.8003" x2="185.478" y2="-183.0405">
		<stop  offset="0" style="stop-color:#2AEAFF"/>
		<stop  offset="0.2512" style="stop-color:#2AAEFF"/>
		<stop  offset="0.7553" style="stop-color:#005BA9"/>
	</linearGradient>
	<path fill="url(#SVGID_6_)" d="M185.481-161.965c-33.984,0-61.531,27.546-61.531,61.527c0,33.979,27.544,61.525,61.531,61.525
		c33.979,0,61.525-27.547,61.525-61.525C247.006-134.419,219.458-161.965,185.481-161.965z M185.481-65.066
		c-19.537,0-35.375-15.838-35.375-35.371c0-19.536,15.838-35.372,35.375-35.372c19.532,0,35.371,15.836,35.371,35.372
		C220.852-80.904,205.013-65.066,185.481-65.066z"/>
	<path fill="#009FE3" d="M205.282-110.476c0,0,1.174,2.281,1.707,3.31c-6,2.908-11.504,4.616-17.08,5.131v-19.118L174.1-103.66
		c-3.098-0.861-6.343-2.014-9.816-3.506c0.407-0.785,1.497-2.882,1.497-2.882h-9.289l5.765,6.728c0,0,1.145-1.839,1.709-2.563
		c8.311,4.061,15.604,5.618,22.207,5.595v20.564l7.688-6.407l-1.068-1.065l-2.883,2.562v-15.843
		c6.568-0.623,12.469-2.741,18.043-5.405c0.41,0.731,1.494,2.669,1.494,2.669l5.02-7.261H205.282z M176.717-103l9.453-10.892v12.029
		C183.112-101.879,179.987-102.262,176.717-103z"/>
	<g>
		<g>
			<path fill="#001B45" stroke="#001B45" stroke-width="2.2274" d="M83.306,25.277c1.662-0.114,3-0.863,4.012-2.253
				c0.647-0.875,1.584-2.801,2.796-5.783l15.315-37.795h1.954l15.396,36.281c1.73,4.057,3.021,6.673,3.877,7.851
				c0.852,1.178,2.063,1.741,3.636,1.7v1.753h-22.336v-1.753c2.24-0.092,3.714-0.28,4.422-0.571c0.708-0.292,1.065-1.03,1.065-2.221
				c0-0.535-0.182-1.351-0.539-2.45c-0.228-0.646-0.525-1.435-0.905-2.354l-1.737-4.17H94.728c-1.014,2.735-1.661,4.516-1.954,5.344
				c-0.604,1.769-0.911,3.06-0.911,3.864c0,0.989,0.663,1.704,1.99,2.155c0.786,0.244,1.963,0.379,3.53,0.403v1.752H83.306V25.277
				L83.306,25.277z M109.199,10.8L102.58-5.195h-0.569L95.744,10.8H109.199z"/>
			<path fill="#001B45" stroke="#001B45" stroke-width="2.2274" d="M133.162,25.277c1.885-0.068,3.233-0.314,4.04-0.745
				c1.376-0.717,2.059-2.093,2.059-4.116v-33.43c0-2.012-0.646-3.364-1.954-4.06c-0.763-0.427-2.147-0.695-4.146-0.806v-1.753
				h24.131v1.753c-2.814,0.091-4.689,0.483-5.619,1.174c-0.935,0.693-1.4,2.399-1.4,5.129v32.634c0,1.531,0.396,2.545,1.196,3.037
				c0.798,0.497,2.351,0.745,4.666,0.745c4.159,0,7.647-0.915,10.467-2.745c2.82-1.832,5.254-5.399,7.305-10.696h2.014
				l-2.796,15.632h-39.963L133.162,25.277L133.162,25.277z"/>
			<path fill="#001B45" stroke="#001B45" stroke-width="2.2274" d="M179.085,27.03v-1.753c1.983-0.068,3.384-0.339,4.22-0.812
				c1.282-0.719,1.925-2.069,1.925-4.057v-33.422c0-2.012-0.668-3.363-1.994-4.06c-0.767-0.427-2.146-0.694-4.15-0.807v-1.752
				h39.764v13.918h-1.69c-0.876-4.453-2.365-7.501-4.462-9.144c-2.099-1.64-5.917-2.461-11.459-2.461
				c-2.112,0-3.451,0.221-4.021,0.658c-0.574,0.437-0.861,1.311-0.861,2.613V1.946c3.928,0.045,6.585-0.668,7.976-2.142
				c1.386-1.469,2.453-4.16,3.194-8.068h1.758v23.289h-1.758c-0.494-3.921-1.498-6.685-3.011-8.286
				c-1.516-1.602-4.231-2.403-8.159-2.403v16.723c0,1.462,0.377,2.458,1.13,2.985c0.75,0.529,2.296,0.795,4.63,0.795
				c4.394,0,7.989-0.855,10.769-2.561c2.779-1.708,5.25-4.911,7.407-9.608h1.914l-2.796,14.361L179.085,27.03L179.085,27.03z"/>
			<path fill="#001B45" stroke="#001B45" stroke-width="2.2274" d="M226.444,10.958h1.993c1.103,5.155,2.884,8.905,5.338,11.245
				c2.453,2.342,5.269,3.512,8.439,3.512c3.082,0,5.274-0.803,6.573-2.413c1.297-1.608,1.949-3.306,1.949-5.083
				c0-2.067-0.677-3.756-2.039-5.059c-0.895-0.856-2.714-1.968-5.455-3.345l-4.408-2.226c-4.374-2.203-7.461-4.388-9.256-6.546
				c-1.795-2.16-2.697-4.826-2.697-7.998c0-3.375,1.193-6.524,3.572-9.448c2.374-2.923,6.025-4.387,10.938-4.387
				c2.498,0,4.917,0.38,7.257,1.148c2.331,0.763,3.667,1.145,3.997,1.145c0.753,0,1.271-0.22,1.559-0.661
				c0.293-0.443,0.52-1.029,0.698-1.75h2.053v15.035h-1.915c-0.899-3.479-2.486-6.477-4.769-8.99
				c-2.274-2.513-5.045-3.771-8.302-3.771c-2.289,0-4.101,0.634-5.431,1.906c-1.331,1.272-1.994,2.82-1.994,4.64
				c0,2.182,0.618,3.815,1.871,4.893c1.226,1.105,3.967,2.727,8.235,4.863l5.107,2.565c2.275,1.147,4.084,2.417,5.44,3.811
				c2.527,2.603,3.793,5.773,3.793,9.501c0,3.48-1.359,6.765-4.07,9.852c-2.71,3.09-7.055,4.634-13.036,4.634
				c-1.37,0-2.759-0.13-4.164-0.389c-1.404-0.257-2.794-0.656-4.17-1.196l-1.325-0.504c-0.312-0.09-0.609-0.165-0.896-0.218
				c-0.286-0.059-0.528-0.083-0.731-0.083c-0.707,0-1.198,0.208-1.459,0.623c-0.269,0.416-0.5,1.004-0.703,1.769h-1.992V10.958
				L226.444,10.958z"/>
			<path fill="#001B45" stroke="#001B45" stroke-width="2.2274" d="M263.521,25.277c1.954-0.048,3.358-0.286,4.215-0.715
				c1.39-0.717,2.088-2.102,2.088-4.154v-33.422c0-2.037-0.663-3.398-1.989-4.092c-0.806-0.427-2.245-0.684-4.314-0.775v-1.752
				h24.13v1.752c-2.149,0.091-3.631,0.336-4.441,0.741c-1.346,0.692-2.018,2.067-2.018,4.126v33.422
				c0,1.937,0.539,3.234,1.613,3.887c1.077,0.652,2.696,0.982,4.846,0.982v1.752h-24.13L263.521,25.277L263.521,25.277z"/>
		</g>
		<g>
			<linearGradient id="SVGID_7_" gradientUnits="userSpaceOnUse" x1="106.7988" y1="27.0303" x2="106.7988" y2="-20.5542">
				<stop  offset="0" style="stop-color:#2AEAFF"/>
				<stop  offset="0.2512" style="stop-color:#2AAEFF"/>
				<stop  offset="0.7553" style="stop-color:#005BA9"/>
			</linearGradient>
			<path fill="url(#SVGID_7_)" d="M83.306,25.277c1.662-0.114,3-0.863,4.012-2.253c0.647-0.875,1.584-2.801,2.796-5.783
				l15.315-37.795h1.954l15.396,36.281c1.73,4.057,3.021,6.673,3.877,7.851c0.852,1.178,2.063,1.741,3.636,1.7v1.753h-22.336v-1.753
				c2.24-0.092,3.714-0.28,4.422-0.571c0.708-0.292,1.065-1.03,1.065-2.221c0-0.535-0.182-1.351-0.539-2.45
				c-0.228-0.646-0.525-1.435-0.905-2.354l-1.737-4.17H94.728c-1.014,2.735-1.661,4.516-1.954,5.344
				c-0.604,1.769-0.911,3.06-0.911,3.864c0,0.989,0.663,1.704,1.99,2.155c0.786,0.244,1.963,0.379,3.53,0.403v1.752H83.306V25.277
				L83.306,25.277z M109.199,10.8L102.58-5.195h-0.569L95.744,10.8H109.199z"/>
			<linearGradient id="SVGID_8_" gradientUnits="userSpaceOnUse" x1="154.5396" y1="27.0303" x2="154.5396" y2="-19.6333">
				<stop  offset="0" style="stop-color:#2AEAFF"/>
				<stop  offset="0.2512" style="stop-color:#2AAEFF"/>
				<stop  offset="0.7553" style="stop-color:#005BA9"/>
			</linearGradient>
			<path fill="url(#SVGID_8_)" d="M133.162,25.277c1.885-0.068,3.233-0.314,4.04-0.745c1.376-0.717,2.059-2.093,2.059-4.116v-33.43
				c0-2.012-0.646-3.364-1.954-4.06c-0.763-0.427-2.147-0.695-4.146-0.806v-1.753h24.131v1.753
				c-2.814,0.091-4.689,0.483-5.619,1.174c-0.935,0.693-1.4,2.399-1.4,5.129v32.634c0,1.531,0.396,2.545,1.196,3.037
				c0.798,0.497,2.351,0.745,4.666,0.745c4.159,0,7.647-0.915,10.467-2.745c2.82-1.832,5.254-5.399,7.305-10.696h2.014
				l-2.796,15.632h-39.963L133.162,25.277L133.162,25.277z"/>
			<linearGradient id="SVGID_9_" gradientUnits="userSpaceOnUse" x1="200.645" y1="27.0312" x2="200.645" y2="-19.6338">
				<stop  offset="0" style="stop-color:#2AEAFF"/>
				<stop  offset="0.2512" style="stop-color:#2AAEFF"/>
				<stop  offset="0.7553" style="stop-color:#005BA9"/>
			</linearGradient>
			<path fill="url(#SVGID_9_)" d="M179.085,27.03v-1.753c1.983-0.068,3.384-0.339,4.22-0.812c1.282-0.719,1.925-2.069,1.925-4.057
				v-33.422c0-2.012-0.668-3.363-1.994-4.06c-0.767-0.427-2.146-0.694-4.15-0.807v-1.752h39.764v13.918h-1.69
				c-0.876-4.453-2.365-7.501-4.462-9.144c-2.099-1.64-5.917-2.461-11.459-2.461c-2.112,0-3.451,0.221-4.021,0.658
				c-0.574,0.437-0.861,1.311-0.861,2.613V1.946c3.928,0.045,6.585-0.668,7.976-2.142c1.386-1.469,2.453-4.16,3.194-8.068h1.758
				v23.289h-1.758c-0.494-3.921-1.498-6.685-3.011-8.286c-1.516-1.602-4.231-2.403-8.159-2.403v16.723
				c0,1.462,0.377,2.458,1.13,2.985c0.75,0.529,2.296,0.795,4.63,0.795c4.394,0,7.989-0.855,10.769-2.561
				c2.779-1.708,5.25-4.911,7.407-9.608h1.914l-2.796,14.361L179.085,27.03L179.085,27.03z"/>
			<linearGradient id="SVGID_10_" gradientUnits="userSpaceOnUse" x1="242.7173" y1="28.0298" x2="242.7173" y2="-20.9077">
				<stop  offset="0" style="stop-color:#2AEAFF"/>
				<stop  offset="0.2512" style="stop-color:#2AAEFF"/>
				<stop  offset="0.7553" style="stop-color:#005BA9"/>
			</linearGradient>
			<path fill="url(#SVGID_10_)" d="M226.444,10.958h1.993c1.103,5.155,2.884,8.905,5.338,11.245
				c2.453,2.342,5.269,3.512,8.439,3.512c3.082,0,5.274-0.803,6.573-2.413c1.297-1.608,1.949-3.306,1.949-5.083
				c0-2.067-0.677-3.756-2.039-5.059c-0.895-0.856-2.714-1.968-5.455-3.345l-4.408-2.226c-4.374-2.203-7.461-4.388-9.256-6.546
				c-1.795-2.16-2.697-4.826-2.697-7.998c0-3.375,1.193-6.524,3.572-9.448c2.374-2.923,6.025-4.387,10.938-4.387
				c2.498,0,4.917,0.38,7.257,1.148c2.331,0.763,3.667,1.145,3.997,1.145c0.753,0,1.271-0.22,1.559-0.661
				c0.293-0.443,0.52-1.029,0.698-1.75h2.053v15.035h-1.915c-0.899-3.479-2.486-6.477-4.769-8.99
				c-2.274-2.513-5.045-3.771-8.302-3.771c-2.289,0-4.101,0.634-5.431,1.906c-1.331,1.272-1.994,2.82-1.994,4.64
				c0,2.182,0.618,3.815,1.871,4.893c1.226,1.105,3.967,2.727,8.235,4.863l5.107,2.565c2.275,1.147,4.084,2.417,5.44,3.811
				c2.527,2.603,3.793,5.773,3.793,9.501c0,3.48-1.359,6.765-4.07,9.852c-2.71,3.09-7.055,4.634-13.036,4.634
				c-1.37,0-2.759-0.13-4.164-0.389c-1.404-0.257-2.794-0.656-4.17-1.196l-1.325-0.504c-0.312-0.09-0.609-0.165-0.896-0.218
				c-0.286-0.059-0.528-0.083-0.731-0.083c-0.707,0-1.198,0.208-1.459,0.623c-0.269,0.416-0.5,1.004-0.703,1.769h-1.992V10.958
				L226.444,10.958z"/>
			<linearGradient id="SVGID_11_" gradientUnits="userSpaceOnUse" x1="275.5845" y1="27.0288" x2="275.5845" y2="-19.6338">
				<stop  offset="0" style="stop-color:#2AEAFF"/>
				<stop  offset="0.2512" style="stop-color:#2AAEFF"/>
				<stop  offset="0.7553" style="stop-color:#005BA9"/>
			</linearGradient>
			<path fill="url(#SVGID_11_)" d="M263.521,25.277c1.954-0.048,3.358-0.286,4.215-0.715c1.39-0.717,2.088-2.102,2.088-4.154
				v-33.422c0-2.037-0.663-3.398-1.989-4.092c-0.806-0.427-2.245-0.684-4.314-0.775v-1.752h24.13v1.752
				c-2.149,0.091-3.631,0.336-4.441,0.741c-1.346,0.692-2.018,2.067-2.018,4.126v33.422c0,1.937,0.539,3.234,1.613,3.887
				c1.077,0.652,2.696,0.982,4.846,0.982v1.752h-24.13L263.521,25.277L263.521,25.277z"/>
		</g>
	</g>
</g>
<g>
	<path fill="#001B45" stroke="#001B45" stroke-width="3" d="M562.781,152.811c2.238-0.153,4.039-1.163,5.403-3.035
		c0.873-1.178,2.134-3.771,3.767-7.789l20.627-50.905h2.633l20.736,48.866c2.33,5.464,4.069,8.988,5.223,10.574
		c1.146,1.586,2.777,2.345,4.896,2.289v2.361h-30.084v-2.361c3.018-0.124,5.004-0.377,5.956-0.77
		c0.954-0.395,1.435-1.388,1.435-2.992c0-0.72-0.246-1.819-0.727-3.299c-0.307-0.871-0.707-1.933-1.219-3.171l-2.34-5.616h-20.924
		c-1.364,3.684-2.236,6.082-2.631,7.198c-0.812,2.382-1.227,4.121-1.227,5.203c0,1.332,0.893,2.296,2.68,2.902
		c1.06,0.329,2.646,0.512,4.756,0.543v2.36h-18.961V152.811L562.781,152.811z M597.656,133.312l-8.916-21.544h-0.766l-8.441,21.544
		H597.656z"/>
	<path fill="#001B45" stroke="#001B45" stroke-width="3" d="M629.93,152.811c2.539-0.092,4.356-0.424,5.442-1.004
		c1.853-0.965,2.772-2.818,2.772-5.543v-45.026c0-2.71-0.872-4.531-2.632-5.469c-1.027-0.575-2.893-0.935-5.584-1.086v-2.361h32.502
		v2.361c-3.791,0.123-6.316,0.65-7.568,1.583c-1.26,0.933-1.886,3.231-1.886,6.907v43.955c0,2.062,0.532,3.428,1.611,4.09
		c1.073,0.67,3.165,1.004,6.284,1.004c5.603,0,10.3-1.232,14.098-3.697c3.799-2.467,7.077-7.271,9.838-14.406h2.712l-3.765,21.055
		h-53.826L629.93,152.811L629.93,152.811z"/>
	<path fill="#001B45" stroke="#001B45" stroke-width="3" d="M691.785,155.172v-2.361c2.672-0.092,4.559-0.457,5.685-1.094
		c1.726-0.969,2.592-2.787,2.592-5.465v-45.016c0-2.71-0.899-4.531-2.687-5.469c-1.031-0.575-2.891-0.935-5.59-1.086V92.32h53.558
		v18.747h-2.278c-1.18-5.998-3.185-10.104-6.01-12.317c-2.825-2.208-7.969-3.314-15.434-3.314c-2.844,0-4.648,0.297-5.416,0.887
		c-0.772,0.588-1.16,1.765-1.16,3.52v21.542c5.291,0.062,8.869-0.899,10.742-2.884c1.865-1.979,3.305-5.604,4.304-10.868h2.366
		v31.369h-2.366c-0.666-5.281-2.019-9.004-4.058-11.16c-2.039-2.158-5.697-3.236-10.988-3.236v22.523
		c0,1.969,0.508,3.31,1.521,4.021c1.012,0.713,3.092,1.071,6.236,1.071c5.917,0,10.76-1.151,14.505-3.45
		c3.744-2.3,7.069-6.613,9.976-12.94h2.578l-3.765,19.344h-54.312V155.172z"/>
	<path fill="#001B45" stroke="#001B45" stroke-width="3" d="M755.57,133.524h2.686c1.484,6.942,3.885,11.993,7.189,15.146
		c3.305,3.153,7.096,4.729,11.367,4.729c4.15,0,7.104-1.081,8.854-3.25c1.746-2.165,2.625-4.451,2.625-6.845
		c0-2.784-0.912-5.06-2.746-6.813c-1.205-1.153-3.656-2.651-7.348-4.506l-5.938-2.998c-5.891-2.967-10.049-5.909-12.467-8.817
		c-2.418-2.908-3.633-6.5-3.633-10.771c0-4.547,1.607-8.788,4.812-12.726c3.197-3.937,8.115-5.909,14.73-5.909
		c3.365,0,6.623,0.512,9.775,1.546c3.139,1.028,4.938,1.542,5.383,1.542c1.014,0,1.713-0.297,2.1-0.89
		c0.395-0.597,0.699-1.386,0.939-2.358h2.766v20.251h-2.58c-1.211-4.687-3.35-8.724-6.422-12.108
		c-3.064-3.385-6.795-5.08-11.182-5.08c-3.084,0-5.523,0.854-7.314,2.567c-1.793,1.713-2.686,3.798-2.686,6.249
		c0,2.939,0.832,5.139,2.52,6.59c1.65,1.489,5.342,3.672,11.092,6.551l6.879,3.454c3.064,1.546,5.502,3.255,7.328,5.134
		c3.404,3.505,5.109,7.774,5.109,12.796c0,4.688-1.832,9.111-5.482,13.27c-3.65,4.161-9.502,6.24-17.559,6.24
		c-1.846,0-3.717-0.174-5.609-0.523c-1.891-0.347-3.764-0.884-5.615-1.611l-1.785-0.68c-0.42-0.121-0.82-0.222-1.207-0.294
		c-0.387-0.079-0.713-0.112-0.986-0.112c-0.951,0-1.613,0.28-1.965,0.84c-0.361,0.56-0.674,1.352-0.947,2.382h-2.684V133.524
		L755.57,133.524z"/>
	<path fill="#001B45" stroke="#001B45" stroke-width="3" d="M805.509,152.811c2.633-0.064,4.523-0.385,5.678-0.963
		c1.871-0.967,2.811-2.832,2.811-5.596v-45.016c0-2.743-0.893-4.578-2.678-5.512c-1.086-0.576-3.025-0.92-5.812-1.043V92.32h32.502
		v2.361c-2.896,0.123-4.891,0.453-5.982,0.997c-1.812,0.933-2.719,2.785-2.719,5.558v45.016c0,2.609,0.727,4.356,2.174,5.235
		c1.451,0.879,3.631,1.322,6.527,1.322v2.36h-32.502v-2.359H805.509z"/>
</g>
<linearGradient id="SVGID_12_" gradientUnits="userSpaceOnUse" x1="601.7563" y1="237.8379" x2="601.7563" y2="173.7471">
	<stop  offset="0" style="stop-color:#2AEAFF"/>
	<stop  offset="0.2512" style="stop-color:#2AAEFF"/>
	<stop  offset="0.7553" style="stop-color:#005BA9"/>
</linearGradient>
<path fill="url(#SVGID_12_)" d="M570.114,235.477c2.238-0.153,4.039-1.163,5.403-3.035c0.873-1.178,2.134-3.771,3.767-7.789
	l20.627-50.905h2.633l20.736,48.866c2.33,5.464,4.069,8.988,5.223,10.574c1.146,1.586,2.777,2.345,4.896,2.289v2.361h-30.084v-2.361
	c3.018-0.124,5.004-0.377,5.956-0.77c0.954-0.395,1.435-1.388,1.435-2.992c0-0.72-0.246-1.819-0.727-3.299
	c-0.307-0.871-0.707-1.933-1.219-3.171l-2.34-5.616h-20.924c-1.364,3.684-2.236,6.082-2.631,7.198
	c-0.812,2.382-1.227,4.121-1.227,5.203c0,1.332,0.893,2.296,2.68,2.902c1.06,0.329,2.646,0.512,4.756,0.543v2.36h-18.961V235.477
	L570.114,235.477z M604.989,215.978l-8.916-21.544h-0.766l-8.441,21.544H604.989z"/>
<linearGradient id="SVGID_13_" gradientUnits="userSpaceOnUse" x1="658.7251" y1="155.1719" x2="658.7251" y2="92.3218">
	<stop  offset="0" style="stop-color:#2AEAFF"/>
	<stop  offset="0.2512" style="stop-color:#2AAEFF"/>
	<stop  offset="0.7553" style="stop-color:#005BA9"/>
</linearGradient>
<path fill="url(#SVGID_13_)" d="M629.93,152.811c2.539-0.092,4.356-0.424,5.442-1.004c1.853-0.965,2.772-2.818,2.772-5.543v-45.026
	c0-2.71-0.872-4.531-2.632-5.469c-1.027-0.575-2.893-0.935-5.584-1.086v-2.361h32.502v2.361c-3.791,0.123-6.316,0.65-7.568,1.583
	c-1.26,0.933-1.886,3.231-1.886,6.907v43.955c0,2.062,0.532,3.428,1.611,4.09c1.073,0.67,3.165,1.004,6.284,1.004
	c5.603,0,10.3-1.232,14.098-3.697c3.799-2.467,7.077-7.271,9.838-14.406h2.712l-3.765,21.055h-53.826L629.93,152.811L629.93,152.811
	z"/>
<linearGradient id="SVGID_14_" gradientUnits="userSpaceOnUse" x1="720.8228" y1="155.1738" x2="720.8228" y2="92.3208">
	<stop  offset="0" style="stop-color:#2AEAFF"/>
	<stop  offset="0.2512" style="stop-color:#2AAEFF"/>
	<stop  offset="0.7553" style="stop-color:#005BA9"/>
</linearGradient>
<path fill="url(#SVGID_14_)" d="M691.785,155.172v-2.361c2.672-0.092,4.559-0.457,5.685-1.094c1.726-0.969,2.592-2.787,2.592-5.465
	v-45.016c0-2.71-0.899-4.531-2.687-5.469c-1.031-0.575-2.891-0.935-5.59-1.086V92.32h53.558v18.747h-2.278
	c-1.18-5.998-3.185-10.104-6.01-12.317c-2.825-2.208-7.969-3.314-15.434-3.314c-2.844,0-4.648,0.297-5.416,0.887
	c-0.772,0.588-1.16,1.765-1.16,3.52v21.542c5.291,0.062,8.869-0.899,10.742-2.884c1.865-1.979,3.305-5.604,4.304-10.868h2.366
	v31.369h-2.366c-0.666-5.281-2.019-9.004-4.058-11.16c-2.039-2.158-5.697-3.236-10.988-3.236v22.523c0,1.969,0.508,3.31,1.521,4.021
	c1.012,0.713,3.092,1.071,6.236,1.071c5.917,0,10.76-1.151,14.505-3.45c3.744-2.3,7.069-6.613,9.976-12.94h2.578l-3.765,19.344
	h-54.312V155.172z"/>
<linearGradient id="SVGID_15_" gradientUnits="userSpaceOnUse" x1="777.4897" y1="156.5186" x2="777.4897" y2="90.605">
	<stop  offset="0" style="stop-color:#2AEAFF"/>
	<stop  offset="0.2512" style="stop-color:#2AAEFF"/>
	<stop  offset="0.7553" style="stop-color:#005BA9"/>
</linearGradient>
<path fill="url(#SVGID_15_)" d="M755.57,133.524h2.686c1.484,6.942,3.885,11.993,7.189,15.146c3.305,3.153,7.096,4.729,11.367,4.729
	c4.15,0,7.104-1.081,8.854-3.25c1.746-2.165,2.625-4.451,2.625-6.845c0-2.784-0.912-5.06-2.746-6.813
	c-1.205-1.153-3.656-2.651-7.348-4.506l-5.938-2.998c-5.891-2.967-10.049-5.909-12.467-8.817c-2.418-2.908-3.633-6.5-3.633-10.771
	c0-4.547,1.607-8.788,4.812-12.726c3.197-3.937,8.115-5.909,14.73-5.909c3.365,0,6.623,0.512,9.775,1.546
	c3.139,1.028,4.938,1.542,5.383,1.542c1.014,0,1.713-0.297,2.1-0.89c0.395-0.597,0.699-1.386,0.939-2.358h2.766v20.251h-2.58
	c-1.211-4.687-3.35-8.724-6.422-12.108c-3.064-3.385-6.795-5.08-11.182-5.08c-3.084,0-5.523,0.854-7.314,2.567
	c-1.793,1.713-2.686,3.798-2.686,6.249c0,2.939,0.832,5.139,2.52,6.59c1.65,1.489,5.342,3.672,11.092,6.551l6.879,3.454
	c3.064,1.546,5.502,3.255,7.328,5.134c3.404,3.505,5.109,7.774,5.109,12.796c0,4.688-1.832,9.111-5.482,13.27
	c-3.65,4.161-9.502,6.24-17.559,6.24c-1.846,0-3.717-0.174-5.609-0.523c-1.891-0.347-3.764-0.884-5.615-1.611l-1.785-0.68
	c-0.42-0.121-0.82-0.222-1.207-0.294c-0.387-0.079-0.713-0.112-0.986-0.112c-0.951,0-1.613,0.28-1.965,0.84
	c-0.361,0.56-0.674,1.352-0.947,2.382h-2.684V133.524L755.57,133.524z"/>
<linearGradient id="SVGID_16_" gradientUnits="userSpaceOnUse" x1="821.7583" y1="155.1699" x2="821.7583" y2="92.3208">
	<stop  offset="0" style="stop-color:#2AEAFF"/>
	<stop  offset="0.2512" style="stop-color:#2AAEFF"/>
	<stop  offset="0.7553" style="stop-color:#005BA9"/>
</linearGradient>
<path fill="url(#SVGID_16_)" d="M805.509,152.811c2.633-0.064,4.523-0.385,5.678-0.963c1.871-0.967,2.811-2.832,2.811-5.596v-45.016
	c0-2.743-0.893-4.578-2.678-5.512c-1.086-0.576-3.025-0.92-5.812-1.043V92.32h32.502v2.361c-2.896,0.123-4.891,0.453-5.982,0.997
	c-1.812,0.933-2.719,2.785-2.719,5.558v45.016c0,2.609,0.727,4.356,2.174,5.235c1.451,0.879,3.631,1.322,6.527,1.322v2.36h-32.502
	v-2.359H805.509z"/>
<g>
	<g>
		<path fill="#001B45" stroke="#001B45" stroke-width="3" d="M235.065,156.113c0.934-0.935,2.068-1.401,3.399-1.401
			c1.332,0,2.465,0.467,3.399,1.401c0.934,0.934,1.401,2.066,1.401,3.398s-0.468,2.466-1.401,3.399
			c-0.935,0.934-2.067,1.401-3.399,1.401c-1.331,0-2.466-0.468-3.399-1.401s-1.4-2.067-1.4-3.399S234.131,157.047,235.065,156.113z"
			/>
		<path fill="#001B45" stroke="#001B45" stroke-width="3" d="M252.21,140.588c2.433-2.646,5.489-3.968,9.171-3.968
			c3.755,0,6.83,1.351,9.227,4.051c2.395,2.701,3.594,5.976,3.594,9.823c0,3.792-1.185,7.053-3.553,9.781
			c-2.367,2.729-5.457,4.093-9.268,4.093c-3.7,0-6.762-1.327-9.185-3.982c-2.424-2.654-3.636-5.951-3.636-9.892
			C248.561,146.535,249.778,143.233,252.21,140.588z M257.524,158.846c0.648,2.461,1.934,3.691,3.857,3.691
			c1.832,0,3.033-0.944,3.607-2.831c0.573-1.887,0.859-4.957,0.859-9.212c0-4.236-0.301-7.303-0.901-9.199
			c-0.601-1.896-1.78-2.844-3.538-2.844c-1.924,0-3.209,1.23-3.856,3.69c-0.426,1.646-0.638,4.431-0.638,8.353
			C256.915,154.472,257.118,157.255,257.524,158.846z"/>
		<path fill="#001B45" stroke="#001B45" stroke-width="3" d="M276.754,162.148c1.091-0.13,1.85-0.389,2.275-0.777
			c0.425-0.389,0.656-1.138,0.693-2.247l0.055-1.665v-15.456c0-1.194-0.203-2.005-0.609-2.435c-0.408-0.429-1.213-0.719-2.414-0.867
			v-1.36h10.766v4.468c1.205-1.572,2.4-2.82,3.588-3.746c1.187-0.925,2.559-1.388,4.116-1.388c1.168,0,2.22,0.375,3.156,1.124
			s1.404,1.846,1.404,3.288c0,1.11-0.329,2.026-0.987,2.747c-0.658,0.722-1.516,1.082-2.572,1.082c-1.206,0-2.249-0.563-3.129-1.692
			c-0.882-1.128-1.498-1.692-1.85-1.692c-0.761,0-1.525,0.468-2.295,1.401c-0.77,0.935-1.154,2.272-1.154,4.015v10.761
			c0,1.876,0.273,3.048,0.818,3.517c0.546,0.469,1.633,0.776,3.261,0.924v1.359h-15.122V162.148z"/>
		<path fill="#001B45" stroke="#001B45" stroke-width="3" d="M303.268,167.573c0.675-0.86,1.845-1.42,3.51-1.679v-0.389
			c-1.11-0.426-1.915-0.86-2.414-1.305c-0.888-0.795-1.332-1.858-1.332-3.19c0-1.591,0.698-2.951,2.095-4.079
			s2.762-1.915,4.093-2.358v-0.389c-1.924-0.777-3.478-1.887-4.661-3.33c-1.185-1.442-1.776-3.191-1.776-5.244
			c0-2.59,1.036-4.727,3.108-6.41c2.071-1.683,4.874-2.525,8.407-2.525c1.332,0,2.553,0.13,3.663,0.389
			c1.109,0.26,1.97,0.527,2.58,0.805h7.492v3.024h-4.605c0.739,0.722,1.308,1.563,1.706,2.525c0.397,0.962,0.597,2.008,0.597,3.136
			c0,3.552-1.692,5.984-5.078,7.298c-1.775,0.703-3.986,1.055-6.632,1.055c-0.573,0-0.948-0.01-1.124-0.028
			c-0.176-0.018-0.439-0.027-0.79-0.027c-0.556,0.093-1.138,0.389-1.749,0.888c-0.629,0.519-0.943,1.138-0.943,1.859
			c0,0.573,0.157,1.018,0.472,1.332s0.75,0.509,1.305,0.582c0.277,0.038,0.869,0.069,1.775,0.098
			c0.906,0.027,1.609,0.041,2.109,0.041l3.69,0.056c2.09,0.037,3.848,0.343,5.272,0.916c2.719,1.109,4.079,3.099,4.079,5.966
			c0,3.699-2.035,6.243-6.105,7.631c-2.146,0.722-4.847,1.082-8.103,1.082c-2.663,0-4.957-0.259-6.881-0.777
			c-3.183-0.869-4.773-2.349-4.773-4.439C302.254,169.27,302.592,168.434,303.268,167.573z M309.123,172.467
			c1.249,0.668,3.057,1.003,5.425,1.003c2.108,0,3.848-0.168,5.217-0.502c2.571-0.631,3.856-1.792,3.856-3.482
			c0-0.984-0.365-1.723-1.096-2.215s-2.058-0.738-3.981-0.738h-9.324c-0.592,0.483-1.018,0.892-1.276,1.227
			c-0.462,0.612-0.693,1.263-0.693,1.949C307.25,170.879,307.874,171.798,309.123,172.467z M311.107,150.688
			c0.555,1.664,1.618,2.497,3.19,2.497c1.425,0,2.405-0.624,2.941-1.873s0.805-3.075,0.805-5.48c0-2.553-0.282-4.412-0.846-5.577
			c-0.565-1.166-1.531-1.748-2.9-1.748c-1.498,0-2.497,0.624-2.997,1.873c-0.499,1.248-0.749,3.066-0.749,5.452
			C310.551,148.016,310.736,149.634,311.107,150.688z"/>
		<path fill="#001B45" stroke="#001B45" stroke-width="3" d="M335.289,156.113c0.935-0.935,2.067-1.401,3.399-1.401
			s2.465,0.467,3.399,1.401c0.934,0.934,1.401,2.066,1.401,3.398s-0.468,2.466-1.401,3.399c-0.935,0.934-2.067,1.401-3.399,1.401
			s-2.465-0.468-3.399-1.401c-0.934-0.934-1.4-2.067-1.4-3.399S334.355,157.047,335.289,156.113z"/>
		<path fill="#001B45" stroke="#001B45" stroke-width="3" d="M348.736,162.148c1.035-0.13,1.748-0.352,2.137-0.666
			c0.628-0.5,0.943-1.425,0.943-2.775v-16.704c0-1.194-0.213-2.005-0.639-2.435c-0.426-0.429-1.239-0.719-2.441-0.867v-1.36h10.766
			v4.079c0.943-1.239,1.859-2.201,2.747-2.886c1.646-1.239,3.478-1.859,5.494-1.859c2.275,0,4.042,0.537,5.301,1.609
			c0.702,0.611,1.368,1.61,1.997,2.997h0.389c1.073-1.313,2.1-2.303,3.08-2.969c1.554-1.092,3.247-1.638,5.078-1.638
			c1.998,0,3.76,0.639,5.286,1.915s2.289,3.293,2.289,6.049v14.291c0,1.313,0.213,2.15,0.639,2.511
			c0.425,0.361,1.174,0.597,2.247,0.708v1.359h-13.485v-1.359c1.035-0.148,1.757-0.402,2.164-0.764
			c0.407-0.36,0.61-1.179,0.61-2.455v-13.764c0-1.479-0.218-2.626-0.652-3.44c-0.435-0.813-1.262-1.221-2.483-1.221
			c-0.98,0-2.012,0.448-3.094,1.346s-1.623,1.521-1.623,1.873v15.206c0,1.239,0.185,2.035,0.555,2.386
			c0.37,0.352,1.063,0.629,2.081,0.833v1.359H364.83v-1.359c0.999-0.13,1.711-0.375,2.137-0.735
			c0.425-0.361,0.638-1.188,0.638-2.483v-13.764c0-1.442-0.203-2.58-0.61-3.413c-0.407-0.832-1.248-1.248-2.524-1.248
			c-1.166,0-2.248,0.477-3.247,1.429c-0.999,0.953-1.498,1.55-1.498,1.79v15.206c0,1.239,0.176,2.035,0.527,2.386
			c0.351,0.352,1.045,0.629,2.081,0.833v1.359h-13.597V162.148z"/>
		<path fill="#001B45" stroke="#001B45" stroke-width="3" d="M395.936,162.204c0.943-0.148,1.752-0.454,2.428-0.917
			c0.675-0.463,1.706-1.537,3.094-3.223c0.573-0.704,1.332-1.687,2.276-2.947s1.722-2.28,2.333-3.059l-7.301-11.19
			c-0.593-0.908-1.064-1.473-1.415-1.695c-0.352-0.222-0.87-0.379-1.554-0.472v-1.36h14.204v1.36
			c-1.313,0.186-2.081,0.319-2.303,0.403c-0.222,0.083-0.333,0.301-0.333,0.653c0,0.427,0.476,1.392,1.428,2.896
			c0.951,1.504,1.79,2.749,2.515,3.732c1.956-2.457,3.165-4.019,3.626-4.686c0.462-0.667,0.692-1.223,0.692-1.667
			c0-0.556-0.227-0.907-0.678-1.056c-0.452-0.148-1.196-0.24-2.232-0.277v-1.36h9.524v1.36c-0.698,0.13-1.278,0.287-1.738,0.472
			c-0.846,0.371-1.572,0.936-2.179,1.695l-5.878,7.246l8.491,12.895c0.203,0.315,0.43,0.552,0.68,0.709s0.587,0.319,1.013,0.486
			v1.304h-13.683v-1.304c0.795-0.037,1.425-0.13,1.887-0.278c0.463-0.147,0.694-0.463,0.694-0.944c0-0.314-0.194-0.824-0.583-1.528
			c-0.222-0.426-0.583-1.027-1.082-1.806c-0.274-0.43-0.668-1.023-1.181-1.781c-0.512-0.759-0.979-1.465-1.399-2.119
			c-1.216,1.553-2.123,2.75-2.722,3.592c-1.239,1.742-1.858,2.863-1.858,3.364c0,0.593,0.235,0.981,0.707,1.167
			s1.179,0.297,2.122,0.334v1.304h-9.596V162.204z"/>
	</g>
	<g>
		<linearGradient id="SVGID_17_" gradientUnits="userSpaceOnUse" x1="238.4653" y1="164.3125" x2="238.4653" y2="154.7119">
			<stop  offset="0" style="stop-color:#2AEAFF"/>
			<stop  offset="0.2512" style="stop-color:#2AAEFF"/>
			<stop  offset="0.7553" style="stop-color:#005BA9"/>
		</linearGradient>
		<path fill="url(#SVGID_17_)" d="M235.065,156.113c0.934-0.935,2.068-1.401,3.399-1.401c1.332,0,2.465,0.467,3.399,1.401
			c0.934,0.934,1.401,2.066,1.401,3.398s-0.468,2.466-1.401,3.399c-0.935,0.934-2.067,1.401-3.399,1.401
			c-1.331,0-2.466-0.468-3.399-1.401s-1.4-2.067-1.4-3.399S234.131,157.047,235.065,156.113z"/>
		<linearGradient id="SVGID_18_" gradientUnits="userSpaceOnUse" x1="261.3813" y1="164.3682" x2="261.3813" y2="136.6201">
			<stop  offset="0" style="stop-color:#2AEAFF"/>
			<stop  offset="0.2512" style="stop-color:#2AAEFF"/>
			<stop  offset="0.7553" style="stop-color:#005BA9"/>
		</linearGradient>
		<path fill="url(#SVGID_18_)" d="M252.21,140.588c2.433-2.646,5.489-3.968,9.171-3.968c3.755,0,6.83,1.351,9.227,4.051
			c2.395,2.701,3.594,5.976,3.594,9.823c0,3.792-1.185,7.053-3.553,9.781c-2.367,2.729-5.457,4.093-9.268,4.093
			c-3.7,0-6.762-1.327-9.185-3.982c-2.424-2.654-3.636-5.951-3.636-9.892C248.561,146.535,249.778,143.233,252.21,140.588z
			 M257.524,158.846c0.648,2.461,1.934,3.691,3.857,3.691c1.832,0,3.033-0.944,3.607-2.831c0.573-1.887,0.859-4.957,0.859-9.212
			c0-4.236-0.301-7.303-0.901-9.199c-0.601-1.896-1.78-2.844-3.538-2.844c-1.924,0-3.209,1.23-3.856,3.69
			c-0.426,1.646-0.638,4.431-0.638,8.353C256.915,154.472,257.118,157.255,257.524,158.846z"/>
		<linearGradient id="SVGID_19_" gradientUnits="userSpaceOnUse" x1="288.27" y1="163.5078" x2="288.27" y2="136.6748">
			<stop  offset="0" style="stop-color:#2AEAFF"/>
			<stop  offset="0.2512" style="stop-color:#2AAEFF"/>
			<stop  offset="0.7553" style="stop-color:#005BA9"/>
		</linearGradient>
		<path fill="url(#SVGID_19_)" d="M276.754,162.148c1.091-0.13,1.85-0.389,2.275-0.777c0.425-0.389,0.656-1.138,0.693-2.247
			l0.055-1.665v-15.456c0-1.194-0.203-2.005-0.609-2.435c-0.408-0.429-1.213-0.719-2.414-0.867v-1.36h10.766v4.468
			c1.205-1.572,2.4-2.82,3.588-3.746c1.187-0.925,2.559-1.388,4.116-1.388c1.168,0,2.22,0.375,3.156,1.124s1.404,1.846,1.404,3.288
			c0,1.11-0.329,2.026-0.987,2.747c-0.658,0.722-1.516,1.082-2.572,1.082c-1.206,0-2.249-0.563-3.129-1.692
			c-0.882-1.128-1.498-1.692-1.85-1.692c-0.761,0-1.525,0.468-2.295,1.401c-0.77,0.935-1.154,2.272-1.154,4.015v10.761
			c0,1.876,0.273,3.048,0.818,3.517c0.546,0.469,1.633,0.776,3.261,0.924v1.359h-15.122V162.148z"/>
		<linearGradient id="SVGID_20_" gradientUnits="userSpaceOnUse" x1="315.186" y1="175.3008" x2="315.186" y2="136.6748">
			<stop  offset="0" style="stop-color:#2AEAFF"/>
			<stop  offset="0.2512" style="stop-color:#2AAEFF"/>
			<stop  offset="0.7553" style="stop-color:#005BA9"/>
		</linearGradient>
		<path fill="url(#SVGID_20_)" d="M303.268,167.573c0.675-0.86,1.845-1.42,3.51-1.679v-0.389c-1.11-0.426-1.915-0.86-2.414-1.305
			c-0.888-0.795-1.332-1.858-1.332-3.19c0-1.591,0.698-2.951,2.095-4.079s2.762-1.915,4.093-2.358v-0.389
			c-1.924-0.777-3.478-1.887-4.661-3.33c-1.185-1.442-1.776-3.191-1.776-5.244c0-2.59,1.036-4.727,3.108-6.41
			c2.071-1.683,4.874-2.525,8.407-2.525c1.332,0,2.553,0.13,3.663,0.389c1.109,0.26,1.97,0.527,2.58,0.805h7.492v3.024h-4.605
			c0.739,0.722,1.308,1.563,1.706,2.525c0.397,0.962,0.597,2.008,0.597,3.136c0,3.552-1.692,5.984-5.078,7.298
			c-1.775,0.703-3.986,1.055-6.632,1.055c-0.573,0-0.948-0.01-1.124-0.028c-0.176-0.018-0.439-0.027-0.79-0.027
			c-0.556,0.093-1.138,0.389-1.749,0.888c-0.629,0.519-0.943,1.138-0.943,1.859c0,0.573,0.157,1.018,0.472,1.332
			s0.75,0.509,1.305,0.582c0.277,0.038,0.869,0.069,1.775,0.098c0.906,0.027,1.609,0.041,2.109,0.041l3.69,0.056
			c2.09,0.037,3.848,0.343,5.272,0.916c2.719,1.109,4.079,3.099,4.079,5.966c0,3.699-2.035,6.243-6.105,7.631
			c-2.146,0.722-4.847,1.082-8.103,1.082c-2.663,0-4.957-0.259-6.881-0.777c-3.183-0.869-4.773-2.349-4.773-4.439
			C302.254,169.27,302.592,168.434,303.268,167.573z M309.123,172.467c1.249,0.668,3.057,1.003,5.425,1.003
			c2.108,0,3.848-0.168,5.217-0.502c2.571-0.631,3.856-1.792,3.856-3.482c0-0.984-0.365-1.723-1.096-2.215s-2.058-0.738-3.981-0.738
			h-9.324c-0.592,0.483-1.018,0.892-1.276,1.227c-0.462,0.612-0.693,1.263-0.693,1.949
			C307.25,170.879,307.874,171.798,309.123,172.467z M311.107,150.688c0.555,1.664,1.618,2.497,3.19,2.497
			c1.425,0,2.405-0.624,2.941-1.873s0.805-3.075,0.805-5.48c0-2.553-0.282-4.412-0.846-5.577c-0.565-1.166-1.531-1.748-2.9-1.748
			c-1.498,0-2.497,0.624-2.997,1.873c-0.499,1.248-0.749,3.066-0.749,5.452C310.551,148.016,310.736,149.634,311.107,150.688z"/>
		<linearGradient id="SVGID_21_" gradientUnits="userSpaceOnUse" x1="338.688" y1="164.3125" x2="338.688" y2="154.7119">
			<stop  offset="0" style="stop-color:#2AEAFF"/>
			<stop  offset="0.2512" style="stop-color:#2AAEFF"/>
			<stop  offset="0.7553" style="stop-color:#005BA9"/>
		</linearGradient>
		<path fill="url(#SVGID_21_)" d="M335.289,156.113c0.935-0.935,2.067-1.401,3.399-1.401s2.465,0.467,3.399,1.401
			c0.934,0.934,1.401,2.066,1.401,3.398s-0.468,2.466-1.401,3.399c-0.935,0.934-2.067,1.401-3.399,1.401s-2.465-0.468-3.399-1.401
			c-0.934-0.934-1.4-2.067-1.4-3.399S334.355,157.047,335.289,156.113z"/>
		<linearGradient id="SVGID_22_" gradientUnits="userSpaceOnUse" x1="371.3921" y1="163.5078" x2="371.3921" y2="136.6748">
			<stop  offset="0" style="stop-color:#2AEAFF"/>
			<stop  offset="0.2512" style="stop-color:#2AAEFF"/>
			<stop  offset="0.7553" style="stop-color:#005BA9"/>
		</linearGradient>
		<path fill="url(#SVGID_22_)" d="M348.736,162.148c1.035-0.13,1.748-0.352,2.137-0.666c0.628-0.5,0.943-1.425,0.943-2.775v-16.704
			c0-1.194-0.213-2.005-0.639-2.435c-0.426-0.429-1.239-0.719-2.441-0.867v-1.36h10.766v4.079c0.943-1.239,1.859-2.201,2.747-2.886
			c1.646-1.239,3.478-1.859,5.494-1.859c2.275,0,4.042,0.537,5.301,1.609c0.702,0.611,1.368,1.61,1.997,2.997h0.389
			c1.073-1.313,2.1-2.303,3.08-2.969c1.554-1.092,3.247-1.638,5.078-1.638c1.998,0,3.76,0.639,5.286,1.915s2.289,3.293,2.289,6.049
			v14.291c0,1.313,0.213,2.15,0.639,2.511c0.425,0.361,1.174,0.597,2.247,0.708v1.359h-13.485v-1.359
			c1.035-0.148,1.757-0.402,2.164-0.764c0.407-0.36,0.61-1.179,0.61-2.455v-13.764c0-1.479-0.218-2.626-0.652-3.44
			c-0.435-0.813-1.262-1.221-2.483-1.221c-0.98,0-2.012,0.448-3.094,1.346s-1.623,1.521-1.623,1.873v15.206
			c0,1.239,0.185,2.035,0.555,2.386c0.37,0.352,1.063,0.629,2.081,0.833v1.359H364.83v-1.359c0.999-0.13,1.711-0.375,2.137-0.735
			c0.425-0.361,0.638-1.188,0.638-2.483v-13.764c0-1.442-0.203-2.58-0.61-3.413c-0.407-0.832-1.248-1.248-2.524-1.248
			c-1.166,0-2.248,0.477-3.247,1.429c-0.999,0.953-1.498,1.55-1.498,1.79v15.206c0,1.239,0.176,2.035,0.527,2.386
			c0.351,0.352,1.045,0.629,2.081,0.833v1.359h-13.597V162.148z"/>
		<linearGradient id="SVGID_23_" gradientUnits="userSpaceOnUse" x1="409.2134" y1="163.5078" x2="409.2134" y2="137.3408">
			<stop  offset="0" style="stop-color:#2AEAFF"/>
			<stop  offset="0.2512" style="stop-color:#2AAEFF"/>
			<stop  offset="0.7553" style="stop-color:#005BA9"/>
		</linearGradient>
		<path fill="url(#SVGID_23_)" d="M395.936,162.204c0.943-0.148,1.752-0.454,2.428-0.917c0.675-0.463,1.706-1.537,3.094-3.223
			c0.573-0.704,1.332-1.687,2.276-2.947s1.722-2.28,2.333-3.059l-7.301-11.19c-0.593-0.908-1.064-1.473-1.415-1.695
			c-0.352-0.222-0.87-0.379-1.554-0.472v-1.36h14.204v1.36c-1.313,0.186-2.081,0.319-2.303,0.403
			c-0.222,0.083-0.333,0.301-0.333,0.653c0,0.427,0.476,1.392,1.428,2.896c0.951,1.504,1.79,2.749,2.515,3.732
			c1.956-2.457,3.165-4.019,3.626-4.686c0.462-0.667,0.692-1.223,0.692-1.667c0-0.556-0.227-0.907-0.678-1.056
			c-0.452-0.148-1.196-0.24-2.232-0.277v-1.36h9.524v1.36c-0.698,0.13-1.278,0.287-1.738,0.472
			c-0.846,0.371-1.572,0.936-2.179,1.695l-5.878,7.246l8.491,12.895c0.203,0.315,0.43,0.552,0.68,0.709s0.587,0.319,1.013,0.486
			v1.304h-13.683v-1.304c0.795-0.037,1.425-0.13,1.887-0.278c0.463-0.147,0.694-0.463,0.694-0.944c0-0.314-0.194-0.824-0.583-1.528
			c-0.222-0.426-0.583-1.027-1.082-1.806c-0.274-0.43-0.668-1.023-1.181-1.781c-0.512-0.759-0.979-1.465-1.399-2.119
			c-1.216,1.553-2.123,2.75-2.722,3.592c-1.239,1.742-1.858,2.863-1.858,3.364c0,0.593,0.235,0.981,0.707,1.167
			s1.179,0.297,2.122,0.334v1.304h-9.596V162.204z"/>
	</g>
</g>
</svg>
